<svg id="图层_1" data-name="图层 1" xmlns="http://www.w3.org/2000/svg" viewBox="0 0 1273.22 124.51"><defs><style>.cls-1{fill:#fff;}</style></defs><path class="cls-1" d="M36.38,91.47c6.4-2.31,13.31-5,20.35-7.81l.39,1.15a304.06,304.06,0,0,1-27.91,28,13,13,0,0,1-4.48,5.88l-13-18.81c6-3.71,7-5.12,7-8.2V40.91H1.44L.28,37.32H19L27,29.39l14.46,12c-.77.89-2,1.92-5.12,2.3ZM12.32,3c43.14.51,31.74,33.41,14.21,23.81-3-8.32-9.6-17.29-15.11-23ZM106.4,36.68S117,45.26,123.3,51c-.39,1.41-1.79,2-3.71,2H90.27v63.1c0,1.92-8.19,6.53-15.36,6.53H71.33V53.07H45l-1-3.59h27.4V2.38L95,4.68c-.26,1.79-1,3.07-4.74,3.59V49.48h6.66Z" transform="translate(-0.28 -0.07)"/><path class="cls-1" d="M233.38,82s10,7.68,16,13c-.39,1.41-1.79,2-3.71,2H215.58v22.66c0,1-7.8,3.58-14.33,3.58h-3.07V97.1H179.74c-3.33,13.44-12.54,21.89-50.94,26.37l-.77-2c24.06-6,31.87-13.31,34.56-24.32H130.72l-1-3.58h33.54A91.25,91.25,0,0,0,164,82.76a29,29,0,0,1-11.78,2.82h-2.56V29.64l18.56,7.17h41.86l2.3-2.43a7.2,7.2,0,0,1-1.79-1.15,30.21,30.21,0,0,0-4.09-13.06h-2.18a64.63,64.63,0,0,1-20.1,13.7l-1.41-1a68.22,68.22,0,0,0,6.92-12.67H170.78c15.87,7,2.69,21.89-7.29,12.8a26.93,26.93,0,0,0-2.82-12.8h-4.1A68.41,68.41,0,0,1,128.8,41.93l-1.28-1.15c7.93-9.22,15.23-23.94,18.69-39.81l21.5,7.42c-.51,1.67-2.3,2.69-5.25,2.56-1,1.92-2.17,3.84-3.33,5.64h14.6l7.42-10.25s5.76,4.74,10.5,9.09A92.18,92.18,0,0,0,196,1.1L217.5,7c-.38,1.54-1.92,2.82-4.86,2.82a55.57,55.57,0,0,1-5,6.79H224L232.35,6s9.48,7.17,15.11,12.16c-.39,1.41-1.67,2.05-3.59,2.05h-26c8.83,3.2,9.21,9.22,5.89,12.8l10,7.42a8.1,8.1,0,0,1-4.61,2.44V79.05c-.13,1-9,4.1-14.72,4.1h-.89l6.14.51c-.26,1.54-1,2.82-4.1,3.2v6.66h9Zm-35.2,11.52V81.87L211.36,83V78.8H167.2v1.28a1.89,1.89,0,0,1-.64,1l19.33,2.05c-.39,1.66-1.54,2.94-4.48,3.2-.26,2.56-.52,4.86-.9,7.17Zm-31-53.13v9.22h44.16V40.39Zm44.16,22V53.19H167.2v9.22ZM167.2,66v9.21h44.16V66Z" transform="translate(-0.28 -0.07)"/><path class="cls-1" d="M291.61,46.79c33,9,15.88,33.67,3.33,21.38a43.75,43.75,0,0,0-3.33-18.3v68.48c0,1.54-7.29,5-13.95,5h-3.58V74.83A94.35,94.35,0,0,1,256.54,93l-1.41-1.28c9.22-14.33,14.34-34.56,17-53.89H257.05l-1-3.58h18.05V1.48l22.27,2.05c-.26,1.92-1.15,3.2-4.74,3.71v27h.64l7.56-11.78s8.57,8.07,13.18,13.32c-.38,1.4-1.66,2-3.46,2H291.61Zm82.44,55.56c3.71,2.18,4.86,4.1,4.86,7.3,0,6.65-5.63,10-17.79,10h-5.5c-10.76,0-12.55-3.71-12.55-14.21V17.74H331.3v41c0,24.58-2.44,49.54-37.13,65l-1-.9c18.56-17.41,20.61-39.43,20.61-64V7.24L334,14.15h7.43L350,3.91,366.11,17.1c-.89,1-2.17,1.92-5.12,2.43V100.3c0,1.67.26,2.43,1.28,2.43h2.44a3.44,3.44,0,0,0,2.56-1.28c1.28-2.17,3.45-9.09,5-14.72h1.15Z" transform="translate(-0.28 -0.07)"/><path class="cls-1" d="M421.92,52.68c31.87,9.6,16.89,33.54,4.48,22.53-.26-5.89-2.31-12.29-4.48-17.66v60.8c-.13,1-5.76,5-14.59,5H404V79.56a103.71,103.71,0,0,1-20,18.82l-1.41-1.28c9.6-13.31,16.26-32.9,19.71-50.56h-16l-1-3.59H404V23.88c-6.53.64-13.32,1-19.72,1.15L384,23.75c13.57-5.37,29.82-15.1,37.89-22l19.71,17.41c-1.66,1.4-4.86,1.79-9.47.25-3,.77-6.53,1.41-10.24,2.05v21l7.29-10.75s8.58,7.68,13.57,12.8c-.38,1.41-1.79,2-3.58,2H421.92ZM495,64s8.19,6.65,13.18,11.13c0,1.28-1.28,2.31-2.81,2.56l-15.75,3v36.22c0,1.67-7.68,5.76-14.46,5.76h-3.46V83.92l-39,7.29L431,87.88l40.7-7.55V5.19l22.66,2.18c-.26,1.79-1.15,3.2-4.74,3.71V74.32ZM440.73,47.56c39.17,2.56,24.58,33.16,9,21.89-.64-7.68-5-16-9.86-21.12ZM443,15.05c38.78,4.48,23.81,34.69,8.58,22.91C451.1,30,447,21.32,442,15.82Z" transform="translate(-0.28 -0.07)"/><path class="cls-1" d="M634.79,36.43c-1,1.28-2.31,1.66-5.12,1.79a140.13,140.13,0,0,1-21.89,10.24l5.76,5.5c-1,1.16-2.31,1.54-5.12,1.79-6.66,3.08-16.64,7-25.35,10.12l3.71.25c-.25,1.92-1.53,2.82-4.22,3.33v8.07h23.55l9.73-12.93S627,73.16,633.51,79.05c-.39,1.41-1.92,2-3.84,2H582.56v20.74c0,12.67-3.33,19.58-26,21.5C555.93,117.2,555,113,552,110s-6.4-4.86-15.49-6.53V102s20.22,1.28,23.68,1.28c2.05,0,2.69-.64,2.69-2.31V81.1H514.72l-1-3.58h49.16V64.2l13,1A166.76,166.76,0,0,0,586,51.4H536.48l-1.15-3.58h51.45L597,38.22l8.2,7.81c1.28-3.72,2.56-8.2,3.45-12H533.15c1.54,10.12-2,17.16-7.17,20s-11.39,1.16-13.31-4.35C511,44.23,514.2,40.14,518.81,38c4.61-2.81,9-10.24,7.68-18.56l1.54-.13a42.32,42.32,0,0,1,4.35,11.14H586A196.51,196.51,0,0,0,597,1.48l22.92,8.58c-.64,1.4-2.18,2.43-5.12,2a200.66,200.66,0,0,1-24.2,18.31H608l9.86-9.86ZM532.51,3C572.45,8.27,556.7,38.86,541,26.7c-.77-8.19-5-17-9.47-23ZM562,1.48c38.27,8.71,18.82,37.12,4.1,23.17.12-8.06-2.31-16.38-5.12-22.66Z" transform="translate(-0.28 -0.07)"/><path class="cls-1" d="M707.62,66.12s10.75,8.2,17.15,13.83c-.39,1.41-1.79,2-3.71,2H642l-1-3.59H698ZM740.9,14.28S752,22.35,758.82,28C758.43,29.39,756.9,30,755,30H682.65c-1.28,7.93-2.56,16.12-3.71,22.27h49.67l10-9.47,16.26,14C753.7,58.06,752,59,749,59.34c-2.94,33-7.93,51.59-16.9,58.24-5.5,4.23-11.39,5.89-21.76,5.89,0-5.5-.76-10.11-3.32-12.8-2.69-2.94-8.2-5.5-15.37-6.91l.13-1.41c7.43.64,18.31,1.28,21.76,1.28a7.36,7.36,0,0,0,5.12-1.54c4.87-3.58,8.84-20.73,11.27-46.21H679.2l-6.15,7.94-16.76-9.09a20.58,20.58,0,0,1,3.83-3.2c3.08-13.7,6.79-40.19,7.3-50.18L690.59,5.7c-.38,1.54-1.66,3.08-5,3.2-.64,4.49-1.41,10.89-2.43,17.54h48Z" transform="translate(-0.28 -0.07)"/><path class="cls-1" d="M884.9,56.91c-.9,1.53-2.18,2.05-5.51,2.43a97.33,97.33,0,0,1-20.61,33.28c10.37,5.76,22,9.73,33.8,12.67l-.26,1.54c-8.06,1.41-13.82,7.3-16.64,16.13-11.26-5.25-20.86-11.52-28.8-20-12,9-27.27,15.74-46.47,20l-.76-1.41a107.9,107.9,0,0,0,39.17-28.67C832.29,83.15,827.29,71,824.09,55.5H815.9l-1.15-3.58h22.91V29.13H814.37c1.53,1.66,3.07,3.33,4.22,4.74-.38,1.4-1.66,2-3.46,2H799.65V53.45c5.12-1.41,10.49-2.94,15.74-4.48l.26,1c-4,3.46-9.22,7.94-16,13.06v40.58c0,11.78-2.44,18.05-20.36,19.58-.25-5.5-.77-9.6-2.43-12.28s-3.71-4.36-9.22-5.51v-1.66s10,.64,12.42.64c1.79,0,2.31-.51,2.31-1.92V75.6l-4.61,3.07a5.67,5.67,0,0,1-3.59,3.84L766.75,61.9c3.33-.64,8.83-2,15.62-3.84V35.91H769.18l-1-3.58h14.21V1.48l22,2.05c-.25,1.92-1.53,3.2-4.73,3.71V31.31l6.4-10.63s3.45,3.46,7,7.17l-.64-2.3h25.21V2.89L861,4.68c-.25,1.92-1.15,3.07-4.74,3.71V25.55h8.58l9.09-12.16s10.37,8.19,16.51,13.69c-.38,1.41-1.92,2.05-3.71,2.05H856.22V51.92h1.67l10.37-10ZM826.14,55.5a66.45,66.45,0,0,0,19.72,28.16A103.9,103.9,0,0,0,858.78,55.5Z" transform="translate(-0.28 -0.07)"/><path class="cls-1" d="M968.22,38.47c7.94,30.73,29.57,47.75,50.95,58.89l-.64,1.53c-7.94.77-14.59,6.28-18.18,15.11-18.43-17.28-29.18-38.15-34.05-75.53h-.12v78.22c0,1.79-8.2,6.4-15.24,6.4h-3.58V68.68c-11.52,19.33-28.8,35.33-51.72,47l-1.15-1.15c21.63-18.69,36.87-48.9,43.27-76H899.23l-1-3.58h49.16V1.61l23.55,2.3c-.25,1.79-1.15,3.07-4.73,3.59V34.89H990l10.37-14.08s11.65,9.34,18.44,15.62c-.26,1.4-1.8,2-3.72,2ZM973,4.94c38.91-1,25,29.57,8.83,19.2a37,37,0,0,0-9.73-18.56Z" transform="translate(-0.28 -0.07)"/><path class="cls-1" d="M1126.3,34.76s11.14,9,17.54,14.85c-.38,1.41-1.79,2-3.71,2h-59.78c-1.92,6.66-3.84,12.93-5.38,17.92h27.65L1113,59.72l16.77,16.13c-1,1.28-2.3,1.67-5.25,1.92a205.59,205.59,0,0,1-28,19.84c22.14,10.12,18.3,29.19,3.33,26.76-11.14-12-32.52-25.09-49.67-30.6l.64-1.41c17.67-1.4,30.85.13,40.45,3.33a218.8,218.8,0,0,0,11.52-22.53h-28.16l-6.78,8.2L1050.14,71a33.13,33.13,0,0,1,4.48-3.2c1.79-4.48,3.71-10.11,5.63-16.13h-33.92l-1-3.59h36c2.17-6.65,4.22-13.82,6-20.6h-33.53l-1-3.59h35.59c2.56-9.73,4.61-18.56,5.5-23.81L1097.89,7c-.64,1.54-2.18,3.08-5.63,2.69l-4,14.21h18.3l9.35-12.42s10.49,8.33,16.64,14c-.39,1.41-1.79,2-3.59,2h-41.73c-1.79,6.52-3.84,13.69-5.88,20.6h35.2Z" transform="translate(-0.28 -0.07)"/><path class="cls-1" d="M1255.58,95.82s11.53,10,17.93,16.39c-.39,1.4-1.92,2-3.84,2h-115l-1-3.58h36.48V3.53l22.28,2.05c-.26,1.79-1,2.94-4.1,3.32V110.67h9.73V3.78l22.27,2.05c-.25,1.79-1,2.95-4.09,3.33V80c5-17.67,9.85-37.76,12.67-52.61L1273.12,34c-.64,1.67-2,2.95-5.25,2.95a374.6,374.6,0,0,1-31.61,53.76v20h9.34Zm-95.23-68.35c41.73,33.53,29.44,73.34,12.29,57-.77-18.18-7.56-39.43-14-56.32Z" transform="translate(-0.28 -0.07)"/></svg>