<svg id="图层_1" data-name="图层 1" xmlns="http://www.w3.org/2000/svg" viewBox="0 0 190.51 131.36"><defs><style>.cls-1{fill:#fff;}.cls-2{fill:#d6191d;}.cls-3{fill:#236735;}.cls-3,.cls-6{fill-rule:evenodd;}.cls-4{fill:#e7372f;}.cls-5{fill:#206735;}</style></defs><g id="图层_2" data-name="图层 2"><g id="图层_1-2" data-name="图层 1-2"><circle class="cls-1" cx="95.24" cy="33.43" r="32.54"/><path class="cls-2" d="M76.81,50a1,1,0,0,0,.09-.73c-.21-.3-.4,0-.57.16a1.43,1.43,0,0,1-.94.36,3.77,3.77,0,0,1-.73-.35c-.15-.08-.62-.4-.78-.24s.56.79.55,1c-.32.06-.61-.31-.91-.16,0,.24.26.29.37.47-.4,0-.73-.43-1.12-.2.12.32.49.16.67.44-.17.3-.57.2-.8.18s-.32-.31-.54-.19c0,.25.3.33.35.51-.11.27-.5.22-.64.3s-.11.14-.16.18c-.33.28-.84.54-1,.3s0-.24-.13-.37-.18.26-.23.41c-.11.32-.33,1,.25.9a4.59,4.59,0,0,0,1.39-.63.9.9,0,0,1,.07.84c-.1.23-.46.54-.15.77.82.23,1.4-.83.83-1.61v-.27c.3-.06.6-.34.89-.26.09,0,.17.15.29.22l.3.13a4.46,4.46,0,0,0,.63.28.56.56,0,0,0,.71-.29c.25-.4.06-.82-.34-1.25.24-.22.56-.12.84,0,.12,0,.21.14.32,0s-.17-.31-.21-.53C76.28,50.15,76.59,50.21,76.81,50Z" transform="translate(-0.09 -0.02)"/><path class="cls-2" d="M71.54,50.25a3.39,3.39,0,0,0-.33.42c-.14.28.1.52.36.38s.15-.31.34-.34c.15-.47.71-.81,1-1.26h0A3.38,3.38,0,0,0,71.54,50.25Z" transform="translate(-0.09 -0.02)"/><path class="cls-2" d="M70,50.24a2.73,2.73,0,0,0-.5,0c-.28.1-.43.48-.24.66a1,1,0,0,0,.86,0l-.15-.25c0-.11.13-.2.16-.3A.34.34,0,0,0,70,50.24Z" transform="translate(-0.09 -0.02)"/><path class="cls-2" d="M75.1,51.28c.15-.16-.13-.43-.34-.31s0,.15-.1.22-.21,0-.24.12A.82.82,0,0,0,75.1,51.28Z" transform="translate(-0.09 -0.02)"/><path class="cls-2" d="M74.38,51.31c0-.09.17-.1.24-.12s0-.16.1-.22.49.15.34.31S74.51,51.37,74.38,51.31Z" transform="translate(-0.09 -0.02)"/><path class="cls-2" d="M81.41,59.8c.14-.23-.21-.33-.4-.6a.49.49,0,0,1,0-.41c.24-.54.67-.57,1.14-.79a2.61,2.61,0,0,0,.67-.47c.44-.38.57-.91.11-1.24-.27.1-.29.4-.46.56s-.19.12-.27.2a4.48,4.48,0,0,1-.92.87c-.16.09-.36.14-.52.23s-.13.12-.2.15l-.65.3a1.08,1.08,0,0,0-.43,1,.9.9,0,0,0,1.14.18C80.84,59.8,81.22,60.14,81.41,59.8Z" transform="translate(-0.09 -0.02)"/><path class="cls-2" d="M82.12,58.57s-.08-.09-.1-.09c-.29-.13-.2.54-.2.68s-.12.43.08.64C82.38,59.66,82.34,58.86,82.12,58.57Z" transform="translate(-0.09 -0.02)"/><path class="cls-2" d="M79,57.72c0-.3.37-.3.5-.44s0-.06,0-.09a.87.87,0,0,0-.44-.16c-.12,0-.29.06-.39-.08s.33-.5.57-.56h.33c.26.09.46.41.72.27a3.43,3.43,0,0,0,.59-.55c.15-.19.08-.35.29-.47s.17.4.16.61a1.39,1.39,0,0,1-.08.6,3.81,3.81,0,0,1-.87.67c-.19.14-.36.32-.53.47l-.5.4c-.21.19-.41.37-.59.25s-.12-.2-.21-.26-.76.07-1-.23a.39.39,0,0,1,0-.54.4.4,0,0,1,.31-.11c.11,0,.18.09.28.13A1.61,1.61,0,0,0,79,57.72Z" transform="translate(-0.09 -0.02)"/><path class="cls-2" d="M91.68,58.69c.17.14,0,.52.25.55s.38-.42.68-.25c-.17.49-.91.52-1.11,1a1.32,1.32,0,0,1-.06.39,1.76,1.76,0,0,0-.09.91c.23.06.62-.06.81.12a.54.54,0,0,1-.37.64c-.23-.08,0-.53-.19-.6s-.23.1-.29.19a3.33,3.33,0,0,1-.16,1.4c-.06.16-.14.37-.23.39-.36.09-.2-.54-.29-.79.29-.11.36-.58.27-.9-.28-.07-.35.23-.51.33s-.22,0-.29.14,0,.44-.23.46-.46-.41-.37-.64a.54.54,0,0,1,.41-.27c.31-.06.5,0,.74-.14a.87.87,0,0,0,.27-.27V61.1c0-.26.16-.59,0-.76-.18,0-.32.17-.45.27a3.41,3.41,0,0,0-.39.37,5,5,0,0,0-.7.82,5.82,5.82,0,0,1-.2,1.81.25.25,0,0,1-.21.27h0c-.42,0-.46-.63-.45-1-.3.11-.37.61-.64.82l-.21-.06c-.35-.53.28-1,.47-1.44-.28,0-.69-.4-.67-.63s.46-.35.59-.44.26-.24.41-.35a3.39,3.39,0,0,0,.42-.33,1.8,1.8,0,0,0,.27-.93c0-.19,0-.42.15-.45.37-.06.24.57.22.9a9.43,9.43,0,0,0-.14,1.19c.21,0,.34-.22.49-.33a1.83,1.83,0,0,0,.44-.35,1.46,1.46,0,0,1,.45-.37c.16-.12.35-.26.39-.41s0-.48.06-.7A.47.47,0,0,1,91.68,58.69Z" transform="translate(-0.09 -0.02)"/><path class="cls-2" d="M100.42,57.67c0,.17-.14.34-.12.57s.36.82.11,1c-.11-.08-.1-.23-.16-.4s-.31-.22-.5-.19-.25.14-.2.25.19.09.28.16a.86.86,0,0,1,.27.4c.06.33-.46.64-.62.88s-.11.6.18.41-.07-.65.32-.57c.07.09,0,.23.07.38s.27-.15.42-.15a1.62,1.62,0,0,1-.44.73,3.78,3.78,0,0,0-.56.92,3.37,3.37,0,0,0-.7.76c0,.16.06.37.2.41.35-.13.22-.5.43-.7a.85.85,0,0,1,.32-.59c.15-.16.26-.51.51-.51.17.3-.2.46-.1.7s.46.09.44.49c.47.1-.16.48.18.79s.3-.22.53-.24c0,.17.28.29.22.48a.33.33,0,0,0-.33.07c0,.34.33.35.44.59.72.4.64-.84.5-1.24.32,0,.49.57.83.53a.32.32,0,0,0,.29-.35h0v-.07c-.06-.17-.42-.37-.64-.51s-.43-.16-.59-.32a2,2,0,0,1,.32-.45c0-.26-.23-.25-.38-.31s0-.14-.1-.23-.18-.08-.22-.18.06-.41,0-.59-.19-.06-.3-.21c.22-.39.78-.59,1.08-.92a.29.29,0,0,0-.11-.26c-.47.1-.75.56-1.27.54a1.32,1.32,0,0,1,.09-.3c.43-.11.47-.66.38-1-.33-.19-.39.34-.55.42-.31-.35,0-.91-.24-1.29A.73.73,0,0,0,100.42,57.67Z" transform="translate(-0.09 -0.02)"/><path class="cls-2" d="M100.2,63a1.51,1.51,0,0,0,.26,1.31.31.31,0,0,0,.19,0,2.45,2.45,0,0,1,.07-.72c.07-.23-.25-.13-.33-.26s0-.28-.15-.28S100.22,63,100.2,63Z" transform="translate(-0.09 -0.02)"/><path class="cls-2" d="M100.61,57.71a.08.08,0,0,0,.09-.08h0c0-.09-.13-.16-.17-.2S100.53,57.62,100.61,57.71Z" transform="translate(-0.09 -0.02)"/><path class="cls-2" d="M100.65,60.35h.11a.58.58,0,0,0,.1-.13,1,1,0,0,1-.06-.25A.34.34,0,0,0,100.65,60.35Z" transform="translate(-0.09 -0.02)"/><path class="cls-2" d="M100.54,57.41c.06.05.14.2,0,.27s-.08,0-.13,0S100.44,57.46,100.54,57.41Z" transform="translate(-0.09 -0.02)"/><path class="cls-2" d="M100.83,60a1,1,0,0,0,.06.25s-.09.08-.1.13-.07,0-.11,0A.34.34,0,0,1,100.83,60Z" transform="translate(-0.09 -0.02)"/><path class="cls-2" d="M109.42,57.25a1,1,0,0,0,.13,1.2,1.37,1.37,0,0,0,1,.28c.4-.08.82-.41,1-.06s-.63.75-1,.75-.93-.61-1.41-.67a2.52,2.52,0,0,0-.25.49v.09l-.09.24a2.53,2.53,0,0,1-.23.72c-.09.12-.41.35-.63.29-.15-.22,0-.36.14-.51a1.43,1.43,0,0,0,.21-.49,2.31,2.31,0,0,0,.12-.52c.06-.21.27-.49.09-.73a2,2,0,0,1-.48.52,1.34,1.34,0,0,1-.51-.17.38.38,0,0,1-.23-.25c0-.09.36-.45.52-.61s.41-.44.41-.64c0-.43-.59-1-.09-1.21.4.09.23.38.51.66a.26.26,0,0,0,.24.06c.2,0,.28-.28.46-.34s.53,0,.58.22S109.51,57.06,109.42,57.25Z" transform="translate(-0.09 -0.02)"/><path class="cls-2" d="M114.1,50.75c.21,0,.26.34,0,.28S114,50.83,114.1,50.75Z" transform="translate(-0.09 -0.02)"/><path class="cls-2" d="M113.92,52.08c0-.08.19,0,.09.11S113.92,52.15,113.92,52.08Z" transform="translate(-0.09 -0.02)"/><path class="cls-2" d="M115.24,52.91c.08,0,.16.1.24.13a.47.47,0,0,1-.28.09.13.13,0,0,1,0-.18Z" transform="translate(-0.09 -0.02)"/><path class="cls-2" d="M114.1,51a.51.51,0,0,0-.22-.59c-.22-.16-.31-.15-.23-.3s.43,0,.56.15.1.38.26.51.18,0,.26.07.27.47.49.52h0c.22-.37-.71-.57-.81-.88v-.27a2.26,2.26,0,0,1,0-.52c.09-.15.32-.28.45-.23s.14.19.22.31a2,2,0,0,1,.38.61.31.31,0,0,0,.23,0c.21-.38.47-.84.86-.7s.58.4.54.66c-.2.09-.49.14-.64.4s0,.23-.08.34.06,0,.1,0a3.22,3.22,0,0,0-.21.46.48.48,0,0,1,.26.62h0a.83.83,0,0,1-.08.12c.28-.13.38-.5.57-.68a.58.58,0,0,1,.81.12c.09.37-.55.38-.5.72a2.72,2.72,0,0,1,1,1.63,1.24,1.24,0,0,1-.44.72c-.15.1-.4,0-.59,0a1.2,1.2,0,0,1-.59-.11c.19-.33.8-.19.82-.64s-.32-.93-.68-1a5.42,5.42,0,0,0-.22.56.51.51,0,0,1-.24.51.91.91,0,0,1-.65,0c-.13-.1-.1-.37-.07-.49s.46-.65.33-.82a.24.24,0,0,0-.28,0c-.1.08-.07.22-.14.32a.36.36,0,0,1-.47.18h0l-.09-.06a1.09,1.09,0,0,1,.22-.53,5.56,5.56,0,0,0,.26-.75.66.66,0,0,0,0-.44c-.11.16-.11.28-.28.51a5.62,5.62,0,0,0-.51,1.27c.24.21.54.57.32.81a.36.36,0,0,1-.5-.08h0c-.13-.19-.24-.59-.39-.84s-.45-.51-.36-.63.42.48.66.34,0-.16,0-.24c-.47-.28-.78-.72-1.19-1-.12.11,0,.2-.14.32s-.28-.32-.2-.43.5-.1.69,0c.38.14.69.67,1,.75.25-.34-.2-.36-.46-.54a1.58,1.58,0,0,1-.22-.23c-.27-.26-1.1-.83-.89-1.08S113.9,51.12,114.1,51Z" transform="translate(-0.09 -0.02)"/><path class="cls-2" d="M114.1,51.1c.22.06.17-.3,0-.28S114,51,114.1,51.1Z" transform="translate(-0.09 -0.02)"/><path class="cls-2" d="M114,52.19c.1-.06,0-.19-.09-.11S114,52.13,114,52.19Z" transform="translate(-0.09 -0.02)"/><path class="cls-2" d="M115.2,53.13a.47.47,0,0,0,.28-.09c-.08,0-.16-.09-.24-.13a.13.13,0,0,0-.07.17Z" transform="translate(-0.09 -0.02)"/><path class="cls-3" d="M94.92,0a32.71,32.71,0,0,1,23.71,9.74,32.75,32.75,0,0,1,9.94,25A32.53,32.53,0,0,1,118.5,57.74a33.58,33.58,0,0,1-47.2-.12,32.92,32.92,0,0,1-10-25.35A33.58,33.58,0,0,1,94.92,0Zm.25,65.36a31.72,31.72,0,1,0-.57,0Z" transform="translate(-0.09 -0.02)"/><path class="cls-3" d="M118.15,33.66a23,23,0,1,1-45.94.22A23,23,0,0,1,95.3,11h.91A22.9,22.9,0,0,1,118.15,33.66Zm-.94.39v-2a22,22,0,0,0-14.64-18.92,21.77,21.77,0,0,0-13-.45,21.22,21.22,0,0,0-11.76,8,21.64,21.64,0,0,0-3.66,19.15.52.52,0,0,0,.54.46,10.65,10.65,0,0,1,1.49.19A23.35,23.35,0,0,1,89.1,46.83a23.8,23.8,0,0,1,5.61,8.58c.06.16.25.27.39.4.11-.13.28-.25.33-.4a23.19,23.19,0,0,1,4.28-7.16,23.48,23.48,0,0,1,16.39-8.14.4.4,0,0,0,.42-.35A19,19,0,0,0,117.21,34.05Z" transform="translate(-0.09 -0.02)"/><polygon class="cls-3" points="96.14 14.76 113.28 37.9 104.65 38.01 96.14 28.06 94.34 29.8 100.82 38.01 94.58 38.01 90.98 34.08 87.75 37.9 77.2 38.01 96.14 14.76"/><path class="cls-4" d="M69.43,38.65l.13.64-2.44,2h0l2.71-.57.12.59-3.76.76-.09-.64,2.44-2h0L65.87,40l-.12-.59Z" transform="translate(-0.09 -0.02)"/><path class="cls-4" d="M67.19,35.36a2.36,2.36,0,0,1,1.54.26,1.26,1.26,0,0,1,.54,1,1.27,1.27,0,0,1-.37,1.1,2.27,2.27,0,0,1-1.48.5A2.21,2.21,0,0,1,65.89,38a1.46,1.46,0,0,1-.2-2.07l0-.05A2.38,2.38,0,0,1,67.19,35.36Zm0,.62a2.32,2.32,0,0,0-1.21.33.78.78,0,0,0-.25.6.74.74,0,0,0,.34.56,3.21,3.21,0,0,0,2.47-.19.71.71,0,0,0,.1-1l-.19-.16A2.18,2.18,0,0,0,67.24,36Z" transform="translate(-0.09 -0.02)"/><path class="cls-4" d="M69.24,31.83v.62l-1.7.87V34l1.66.08v.6l-3.83-.18.06-1.3a1.89,1.89,0,0,1,.3-1,1,1,0,0,1,.86-.36.93.93,0,0,1,.68.3,1.12,1.12,0,0,1,.29.61Zm-2.77.6a.66.66,0,0,0-.5.2,1.21,1.21,0,0,0-.21.71v.57l1.32.06v-.73a.89.89,0,0,0-.12-.55.58.58,0,0,0-.49-.28Z" transform="translate(-0.09 -0.02)"/><path class="cls-4" d="M66.39,28.07l-.18,1,3.36.57-.1.59-3.37-.57-.17,1-.42-.07L66,27.94Z" transform="translate(-0.09 -0.02)"/><path class="cls-4" d="M70.67,25.42,70.5,26l-1.67-.52L68.4,26.9l1.72.52L70,28l-3.72-1.11.17-.58,1.54.47.43-1.42-1.54-.47.17-.57Z" transform="translate(-0.09 -0.02)"/><path class="cls-4" d="M72,22.29l-1.09,2.43-3.5-1.56,1-2.31.39.17-.72,1.81,1.09.48.68-1.66.39.17-.72,1.62,1.25.56.84-1.88Z" transform="translate(-0.09 -0.02)"/><path class="cls-4" d="M73.83,19.24l-.32.54-1.21-.3-.59,1,.83.93-.33.53-2.66-3.11.27-.45Zm-2,.13L70.44,19h0l1,1.06Z" transform="translate(-0.09 -0.02)"/><path class="cls-4" d="M74.92,16.08a1,1,0,0,1,.41.81,1.54,1.54,0,0,1-.4,1,1.47,1.47,0,0,1-.88.6.92.92,0,0,1-.84-.2l-.11-.09.38-.47.1.08a.64.64,0,0,0,.55.14.88.88,0,0,0,.48-.32.77.77,0,0,0,.23-.6.54.54,0,0,0-.24-.44.56.56,0,0,0-.47-.07,2.86,2.86,0,0,0-.69.31,2.25,2.25,0,0,1-.91.43.76.76,0,0,1-.63-.15,1,1,0,0,1-.36-.77,1.43,1.43,0,0,1,.33-.88,1.31,1.31,0,0,1,.88-.56,1.13,1.13,0,0,1,.77.24l-.37.47a.62.62,0,0,0-.45-.16.77.77,0,0,0-.48.28.87.87,0,0,0-.19.48.48.48,0,0,0,.19.39.47.47,0,0,0,.36.1,1.89,1.89,0,0,0,.74-.36,2.85,2.85,0,0,1,.93-.4A.84.84,0,0,1,74.92,16.08Z" transform="translate(-0.09 -0.02)"/><path class="cls-4" d="M75.72,12,75,12.7l2.39,2.44-.43.42-2.39-2.44-.71.71-.3-.3,1.92-1.88Z" transform="translate(-0.09 -0.02)"/><path class="cls-4" d="M82,7.65,80.16,8.71l.67,1.12,1.4-.8.21.36L81,10.2l.86,1.5-.53.29-2-3.36,2.41-1.35Z" transform="translate(-0.09 -0.02)"/><path class="cls-4" d="M86.1,7.51a2.36,2.36,0,0,1,.23,1.54,1.27,1.27,0,0,1-.81.83,1.31,1.31,0,0,1-1.16,0,2.31,2.31,0,0,1-.93-1.26,2.28,2.28,0,0,1-.21-1.54A1.38,1.38,0,0,1,84,6.26a1.36,1.36,0,0,1,1.15,0A2.33,2.33,0,0,1,86.1,7.51Zm-.57.23a2.18,2.18,0,0,0-.69-1,.72.72,0,0,0-.64,0,.75.75,0,0,0-.43.49A2.13,2.13,0,0,0,84,8.47a2.11,2.11,0,0,0,.7,1,.7.7,0,0,0,.66.06.65.65,0,0,0,.42-.5,2.24,2.24,0,0,0-.27-1.34Z" transform="translate(-0.09 -0.02)"/><path class="cls-4" d="M90.1,8.39l-.6.16L88.17,7.18l-.66.18L87.93,9l-.58.15-1-3.71,1.26-.33a2.11,2.11,0,0,1,1,0,.93.93,0,0,1,.59.76.9.9,0,0,1-.1.7,1.09,1.09,0,0,1-.5.45ZM88.7,5.93a.62.62,0,0,0-.34-.42,1.17,1.17,0,0,0-.74,0l-.52.14.34,1.28.7-.18a.87.87,0,0,0,.49-.28A.53.53,0,0,0,88.7,5.93Z" transform="translate(-0.09 -0.02)"/><path class="cls-4" d="M93.33,8l-2.64.33-.48-3.81,2.51-.31.06.42-2,.24L90.93,6l1.84-.18v.43L91,6.48l.22,1.35,2-.25Z" transform="translate(-0.09 -0.02)"/><path class="cls-4" d="M96.68,6.83a1,1,0,0,1-.38.83,1.5,1.5,0,0,1-1,.3,1.43,1.43,0,0,1-1-.3,1,1,0,0,1-.37-.83v-.1h.6v.1a.65.65,0,0,0,.23.51.79.79,0,0,0,.55.18.77.77,0,0,0,.61-.2.58.58,0,0,0,.18-.49.55.55,0,0,0-.24-.41,2.17,2.17,0,0,0-.68-.34,2.31,2.31,0,0,1-.9-.45A.72.72,0,0,1,94,5.05a1,1,0,0,1,.37-.76,1.52,1.52,0,0,1,.9-.3,1.27,1.27,0,0,1,1,.34,1.17,1.17,0,0,1,.31.75H96a.53.53,0,0,0-.16-.44.69.69,0,0,0-.53-.2.84.84,0,0,0-.49.15.53.53,0,0,0-.18.39.5.5,0,0,0,.14.35,2.31,2.31,0,0,0,.75.34,2.74,2.74,0,0,1,.89.48A.89.89,0,0,1,96.68,6.83Z" transform="translate(-0.09 -0.02)"/><path class="cls-4" d="M100.42,5l-1-.14L99,8.2l-.59-.08.47-3.38-1-.14.06-.42,2.66.36Z" transform="translate(-0.09 -0.02)"/><path class="cls-4" d="M103.36,9.22l-.6-.16-.47-1.85L101.64,7l-.44,1.6-.58-.16,1-3.7,1.26.35a1.88,1.88,0,0,1,.91.51.91.91,0,0,1,.16.92.85.85,0,0,1-.44.6,1.16,1.16,0,0,1-.66.14Zm0-2.83a.59.59,0,0,0-.08-.53,1.19,1.19,0,0,0-.65-.37l-.53-.15-.35,1.28.7.19a.92.92,0,0,0,.57,0,.5.5,0,0,0,.38-.42Z" transform="translate(-0.09 -0.02)"/><path class="cls-4" d="M108,7l-2,1.46L105.31,10l-.48-.2.67-1.59-.33-2.41.55.23.2,1.87h0l1.48-1.16Z" transform="translate(-0.09 -0.02)"/><path class="cls-4" d="M112.63,13.23a1.06,1.06,0,0,1-.78.48,1.47,1.47,0,0,1-1-.38,1.4,1.4,0,0,1-.62-.88,1.16,1.16,0,0,1,.26-.87l1.66-2.15.48.37L111,11.94a.72.72,0,0,0-.18.57.9.9,0,0,0,.87.67.62.62,0,0,0,.5-.31l1.67-2.15.48.37Z" transform="translate(-0.09 -0.02)"/><path class="cls-4" d="M114.32,16.44l-.46-.46,1-3h0l-2,2-.42-.43,2.66-2.72.46.46-1,3h0l2-2,.43.42Z" transform="translate(-0.09 -0.02)"/><path class="cls-4" d="M115.77,18.24l-.36-.47,3-2.35.37.47Z" transform="translate(-0.09 -0.02)"/><path class="cls-4" d="M121.56,20.16l-4,.85-.26-.45,2.67-3.1.32.54-2.06,2.28v0l3-.71Z" transform="translate(-0.09 -0.02)"/><path class="cls-4" d="M119.55,25l-1.06-2.44L122,21.07l1,2.32-.39.17-.8-1.73-1.09.47.7,1.63-.39.17-.7-1.63-1.26.54.82,1.9Z" transform="translate(-0.09 -0.02)"/><path class="cls-4" d="M120.55,28.35l-.17-.6,1.33-1.37-.19-.65-1.59.46-.17-.57,3.68-1.07.39,1.28a1.89,1.89,0,0,1,0,1,.88.88,0,0,1-.7.61.84.84,0,0,1-.74-.05,1.47,1.47,0,0,1-.47-.49ZM123,26.89a.56.56,0,0,0,.41-.35,1.17,1.17,0,0,0,0-.74l-.16-.55-1.27.36.2.71a1,1,0,0,0,.3.48A.54.54,0,0,0,123,26.89Z" transform="translate(-0.09 -0.02)"/><path class="cls-4" d="M122.15,31.38a1,1,0,0,1-.87-.24,1.69,1.69,0,0,1-.46-1,1.56,1.56,0,0,1,.15-1.06,1,1,0,0,1,.72-.48h.16l.09.59h-.13a.67.67,0,0,0-.48.31,1,1,0,0,0-.09.57.86.86,0,0,0,.29.58.59.59,0,0,0,.48.12.51.51,0,0,0,.38-.3,2,2,0,0,0,.23-.72,3,3,0,0,1,.3-1,.81.81,0,0,1,.54-.36.93.93,0,0,1,.81.25,1.4,1.4,0,0,1,.43.84,1.18,1.18,0,0,1-.19,1,1.09,1.09,0,0,1-.7.42l-.09-.6a.51.51,0,0,0,.42-.22.66.66,0,0,0,.12-.55.78.78,0,0,0-.23-.46.47.47,0,0,0-.41-.12.55.55,0,0,0-.32.19,2.47,2.47,0,0,0-.23.79,2.26,2.26,0,0,1-.34.95A.76.76,0,0,1,122.15,31.38Z" transform="translate(-0.09 -0.02)"/><path class="cls-4" d="M121.2,33.83v-.6L125,33.1v.6Z" transform="translate(-0.09 -0.02)"/><path class="cls-4" d="M124.39,38.49l.09-1-3.4-.3v-.6l3.4.3.09-1h.53l-.22,2.64Z" transform="translate(-0.09 -0.02)"/><path class="cls-4" d="M124,42.47l-1.8-1.64-1.69-.36.13-.59,1.69.36,2.31-.75-.12.58-1.79.55h0l1.41,1.21Z" transform="translate(-0.09 -0.02)"/><path class="cls-5" d="M91.66,43.77a2.47,2.47,0,0,1-.58.44v-.38a2.29,2.29,0,0,0,.72-.7H92v3h-.35Z" transform="translate(-0.09 -0.02)"/><path class="cls-5" d="M92.1,46.31h-.58V44a1.86,1.86,0,0,1-.41.28l-.17.1v-.58h0a2.48,2.48,0,0,0,.69-.68h.47Zm-.35-.23h.12V43.29h0a3,3,0,0,1-.67.65V44a2.31,2.31,0,0,0,.39-.31l.19-.2Z" transform="translate(-0.09 -0.02)"/><path class="cls-5" d="M93.49,46.25a8.22,8.22,0,0,0,.61-1.18,1,1,0,0,1-.73-.11.75.75,0,0,1-.35-.5,1.42,1.42,0,0,1,0-.58,1.21,1.21,0,0,1,.22-.42,1.13,1.13,0,0,1,.36-.24,2.32,2.32,0,0,1,.38-.07,1.28,1.28,0,0,1,.34.07,1,1,0,0,1,.32.21,1,1,0,0,1,.19.3.81.81,0,0,1,0,.38,1.39,1.39,0,0,1-.17.61q-.18.39-.87,1.53Zm-.1-2a.66.66,0,0,0,.19.38.53.53,0,0,0,.67,0,.58.58,0,0,0,.22-.29.86.86,0,0,0,0-.45.51.51,0,0,0-.19-.31.6.6,0,0,0-.32-.12.45.45,0,0,0-.28,0,.59.59,0,0,0-.26.28.92.92,0,0,0,0,.52Z" transform="translate(-0.09 -0.02)"/><path class="cls-5" d="M93.94,46.37h-.66l.11-.18a8.72,8.72,0,0,0,.54-1,1,1,0,0,1-.6-.16.82.82,0,0,1-.4-.57,1.34,1.34,0,0,1,0-.63,1.4,1.4,0,0,1,.24-.47,1.14,1.14,0,0,1,1.57,0,1,1,0,0,1,.22.34,1,1,0,0,1,.06.42,1.37,1.37,0,0,1-.19.66c-.12.25-.41.77-.87,1.54Zm-.25-.23h.14c.43-.74.71-1.23.82-1.47a1.22,1.22,0,0,0,.17-.56,1,1,0,0,0,0-.35.63.63,0,0,0-.16-.24,1.07,1.07,0,0,0-.28-.19.91.91,0,0,0-.65,0,.85.85,0,0,0-.31.21,1.44,1.44,0,0,0-.19.37,1.14,1.14,0,0,0,0,.52.64.64,0,0,0,.3.43.82.82,0,0,0,.65.1h.22l-.09.2C94.1,45.45,93.91,45.83,93.69,46.14Zm.21-1.23a.52.52,0,0,1-.39-.17.68.68,0,0,1-.23-.45h0a1,1,0,0,1,.08-.5.63.63,0,0,1,.32-.34,1,1,0,0,1,.34-.06.67.67,0,0,1,.38.15.65.65,0,0,1,.22.37.89.89,0,0,1,0,.51h0a1,1,0,0,1-.26.34.61.61,0,0,1-.36.13Zm-.4-.64a.49.49,0,0,0,.16.3.39.39,0,0,0,.27.11.34.34,0,0,0,.25-.09.58.58,0,0,0,.18-.25.81.81,0,0,0,0-.38.41.41,0,0,0-.15-.24.39.39,0,0,0-.25-.1.33.33,0,0,0-.42.18.43.43,0,0,1,0,.05.83.83,0,0,0-.07.38Z" transform="translate(-0.09 -0.02)"/><path class="cls-5" d="M95.56,45.37c.09.32.23.49.43.53a.64.64,0,0,0,.75-.36.85.85,0,0,0,.07-.42.67.67,0,0,0-.13-.38.51.51,0,0,0-.29-.21.71.71,0,0,0-.75.24h-.3c0-.07.13-.58.33-1.52H97.1v.32H95.93a3.81,3.81,0,0,1-.17.76,1,1,0,0,1,.93,0,.79.79,0,0,1,.31.26,1.43,1.43,0,0,1,.14.34,1.09,1.09,0,0,1,0,.36,1.23,1.23,0,0,1-.08.39.72.72,0,0,1-.22.34.68.68,0,0,1-.34.21.9.9,0,0,1-.46.06.8.8,0,0,1-.51-.19,1,1,0,0,1-.32-.6Z" transform="translate(-0.09 -0.02)"/><path class="cls-5" d="M96.17,46.37H96.1a1.05,1.05,0,0,1-.56-.22,1,1,0,0,1-.37-.67v-.1l.54-.15v.11q.12.42.33.45a.51.51,0,0,0,.4,0,.45.45,0,0,0,.22-.25.56.56,0,0,0,.06-.36.58.58,0,0,0-.1-.33.46.46,0,0,0-.23-.16.65.65,0,0,0-.34,0,.61.61,0,0,0-.29.2v.06l-.54-.07v-.14s.08-.34.33-1.5V43.1h1.6v.55H96a2.11,2.11,0,0,1-.1.45.92.92,0,0,1,.33,0,1.13,1.13,0,0,1,.48.11.86.86,0,0,1,.36.32,1.38,1.38,0,0,1,.15.36.86.86,0,0,1,0,.39,1.22,1.22,0,0,1-.08.43.82.82,0,0,1-.25.38.77.77,0,0,1-.38.24A.94.94,0,0,1,96.17,46.37Zm-.78-.83a.78.78,0,0,0,.25.43.8.8,0,0,0,.44.17.76.76,0,0,0,.42-.06.67.67,0,0,0,.31-.19.53.53,0,0,0,.18-.28.9.9,0,0,0,.07-.37.86.86,0,0,0,0-.32,1.2,1.2,0,0,0-.13-.31.78.78,0,0,0-.26-.22,1.38,1.38,0,0,0-.39-.09,1.34,1.34,0,0,0-.44.1l-.24.11.08-.25a6.42,6.42,0,0,1,.17-.74v-.09H97v-.09H95.77c-.16.78-.24,1.13-.28,1.3h.1a.87.87,0,0,1,.85-.23.64.64,0,0,1,.35.25.82.82,0,0,1,.14.45.9.9,0,0,1-.08.46A.72.72,0,0,1,96,46a.65.65,0,0,1-.48-.5Z" transform="translate(-0.09 -0.02)"/><path class="cls-5" d="M97.64,46.13a.78.78,0,0,1,.25-.48,4.57,4.57,0,0,0,.58-.66,3.19,3.19,0,0,0,.46-.69.79.79,0,0,0,.08-.43.51.51,0,0,0-.17-.29.49.49,0,0,0-.33-.09,1.35,1.35,0,0,0-.35.14.77.77,0,0,0-.25.37l-.34,0a1.57,1.57,0,0,1,.36-.59.89.89,0,0,1,.52-.21h.32a1.08,1.08,0,0,1,.29.13.86.86,0,0,1,.25.29.83.83,0,0,1,.07.46,1.4,1.4,0,0,1-.28.65,9.16,9.16,0,0,1-1,1.15h1.27v.32H97.59Z" transform="translate(-0.09 -0.02)"/><path class="cls-5" d="M99.54,46.31h-2v-.19a.84.84,0,0,1,.28-.55,4.42,4.42,0,0,0,.57-.65,2.36,2.36,0,0,0,.44-.67.56.56,0,0,0,.07-.36.35.35,0,0,0-.12-.22.43.43,0,0,0-.25-.07,1,1,0,0,0-.29.12A1,1,0,0,0,98,44v.09L97.46,44v-.13a1.65,1.65,0,0,1,.4-.64,1,1,0,0,1,.59-.23h.34a1.22,1.22,0,0,1,.33.14,1,1,0,0,1,.29.33.89.89,0,0,1,.08.53,1.4,1.4,0,0,1-.29.71,8.55,8.55,0,0,1-.8,1h1.14Zm-1.78-.23h1.55V46H97.9l.2-.17A10.81,10.81,0,0,0,99,44.65a1.28,1.28,0,0,0,.25-.6.57.57,0,0,0-.06-.4.6.6,0,0,0-.2-.25l-.25-.11h-.29a.83.83,0,0,0-.45.17,1.42,1.42,0,0,0-.28.41h.1a1.64,1.64,0,0,1,.26-.33,1,1,0,0,1,.41-.17.6.6,0,0,1,.41.12.54.54,0,0,1,.16.34.79.79,0,0,1-.09.48,2.88,2.88,0,0,1-.47.72,5.54,5.54,0,0,1-.59.68A.66.66,0,0,0,97.76,46.08Z" transform="translate(-0.09 -0.02)"/><path class="cls-6" d="M77,99.26a2.73,2.73,0,0,1-.3.62c-.87,1-1.79,2-2.63,3a7.71,7.71,0,0,0-1.57,2.79,1.84,1.84,0,0,0,1.79,2.48.59.59,0,0,0,.45-.18,10.26,10.26,0,0,0,1.16-1.53c.76-1.31,1.45-2.65,2.18-4a.58.58,0,0,1,.35-.28.44.44,0,0,1,.29.29A7.76,7.76,0,0,1,78.9,104c0,1-.14,1.91-.14,2.86a2.27,2.27,0,0,0,1,2,1,1,0,0,0,1.27-.1,3.51,3.51,0,0,0,.94-1.5,9.92,9.92,0,0,0,.35-3.39c0-1.54-.09-3.07-.08-4.61a3.76,3.76,0,0,1,1.22-3c1-.85,1.82-1.81,2.71-2.73a31,31,0,0,1,3.62-3.44,13.87,13.87,0,0,1,1.41-.8c.21-.12.33,0,.38.2a4.13,4.13,0,0,1,.13.77c0,1.26-.09,2.52-.13,3.78a2.65,2.65,0,0,1-2.14,2.58c-.45.14-.92.23-1.39.33-.88.18-1.78.32-2.65.53a2.06,2.06,0,0,0-1.35,1.06,3,3,0,0,0,1.35,3.73c.29.13.55.13.71-.15a7.29,7.29,0,0,0,.56-1.2,1.7,1.7,0,0,1,1.16-1.32,2.83,2.83,0,0,0,1.73-1.41,1.35,1.35,0,0,1,.28-.35,2,2,0,0,1,.49-.37c.66-.31,1.1,0,1.12.67v1.63a2,2,0,0,1-1.14,2,.67.67,0,0,0-.19.14,1.5,1.5,0,0,0-.28.47A6.26,6.26,0,0,0,90,105,3,3,0,0,0,91,106.86a.3.3,0,0,0,.43,0,4,4,0,0,0,1.17-1.29,6.77,6.77,0,0,0,.71-2.46c.12-1,.18-2,.33-3A19.82,19.82,0,0,0,94,96.84a2.26,2.26,0,0,1,.29-.91.48.48,0,0,1,.33-.22c.64-.15,1.08.19,1.12.91v1.44a.62.62,0,0,0,0,.27,1,1,0,0,0,1.34.46l.12-.07a2.12,2.12,0,0,0,.55-.39,4.15,4.15,0,0,0,1.14-2.13,1.22,1.22,0,0,0-.57-1.37,2.11,2.11,0,0,0-1-.35,23.3,23.3,0,0,0-2.51.09.8.8,0,0,1-.91-.58,1,1,0,0,1-.08-.38,22.65,22.65,0,0,1,.08-2.6,15.21,15.21,0,0,1,1.18-4.38,2,2,0,0,1,.59-.71A43.06,43.06,0,0,1,100.1,83a2.06,2.06,0,0,0,1.09-1.24.72.72,0,0,0-.59-.83h-.17a5.87,5.87,0,0,0-1.86,1,5.11,5.11,0,0,1-1.09.56.61.61,0,0,1-.81-.3.57.57,0,0,1,0-.14,3.59,3.59,0,0,1-.14-.86A1.61,1.61,0,0,0,96,79.83a1.48,1.48,0,0,1-.25-.25.53.53,0,0,0-.73-.09l-.09.09a5.76,5.76,0,0,0-2.16,5.25,1.79,1.79,0,0,1-.48,1.56,6.71,6.71,0,0,1-1,.85,13.83,13.83,0,0,0-2.18,1.86c-.77.82-1.56,1.62-2.36,2.4a13.82,13.82,0,0,1-2.92,2.24c-.46.25-.82.12-.9-.38a1.48,1.48,0,0,1,0-.42c.12-.76.25-1.52.38-2.28.3-1.74.65-3.48.9-5.23A12.43,12.43,0,0,0,84.24,83c0-.69-.61-1-1.18-1.22s-.63.17-.9.34a1,1,0,0,0-.48.87,20.26,20.26,0,0,1-.58,4.11,5.11,5.11,0,0,1-1.69,3c-.45.37-.86.8-1.31,1.17a28.34,28.34,0,0,1-4.8,3.57,3.78,3.78,0,0,0-.56.4,1.23,1.23,0,0,0-.43,1.54,5.26,5.26,0,0,0,1.79,2.35.8.8,0,0,0,.45.14Z" transform="translate(-0.09 -0.02)"/><path class="cls-6" d="M155.25,89.74c-.31-.47-.61-.93-.93-1.37a4.43,4.43,0,0,0-.64-.66,2.18,2.18,0,0,0-2.36-.21,13.16,13.16,0,0,1-1.35.55,1.18,1.18,0,0,1-1.56-.59,1.22,1.22,0,0,1-.1-.53,8.16,8.16,0,0,0-.07-1.31,13.6,13.6,0,0,0-.3-2,1.48,1.48,0,0,0-1.3-1.12.63.63,0,0,0-.38.09,2.72,2.72,0,0,0-1.16,1.85,31.71,31.71,0,0,0-.44,4.56,1.13,1.13,0,0,1-.18.57,3.09,3.09,0,0,1-1.35,1.1c-.89.38-1.81.71-2.71,1.06s-1.71.63-2.52,1a1.26,1.26,0,0,0-.62,1.91,5.52,5.52,0,0,0,2.7,2.75,1.38,1.38,0,0,0,1.45-.11c.2-.15.41-.3.63-.44s.66-.33,1-.47.29,0,.33.23a2.91,2.91,0,0,1-.33,1.64,9.12,9.12,0,0,1-1.62,2.35,23.74,23.74,0,0,1-3.07,3.11c-.41.31-.88.54-1.32.81a2.78,2.78,0,0,0-1.14,1.06c-.24.47-.2.64.19,1a2.58,2.58,0,0,0,1.59.59,3.8,3.8,0,0,0,3.07-1.32,22.19,22.19,0,0,0,2.72-3.79c.38-.62.69-1.28,1-1.92a2.69,2.69,0,0,1,.89-1.09c.34-.22.55-.22.79.09.53.68,1,1.35,1.53,2.06.73,1,1.39,2.15,2.14,3.19a5.16,5.16,0,0,0,2.58,2,8,8,0,0,0,4.12.24,3.08,3.08,0,0,0,2-1.14,1.15,1.15,0,0,0,.17-1.21,2.59,2.59,0,0,0-2.09-1.74c-.89-.1-1.79-.09-2.68-.13a1.84,1.84,0,0,1-.47-.06,6.52,6.52,0,0,1-3.65-2.49c-.8-1.14-1.5-2.36-2.23-3.55a2.27,2.27,0,0,1-.23-.58,1.43,1.43,0,0,1,.36-1.56,4.59,4.59,0,0,1,.88-.7c.68-.37,1.38-.7,2.08-1,1.09-.52,2.19-1,3.27-1.56A3.49,3.49,0,0,0,155.25,89.74Z" transform="translate(-0.09 -0.02)"/><path class="cls-6" d="M37.83,97.83c.08.55.13,1,.23,1.5A.79.79,0,0,0,39,100a.75.75,0,0,0,.36-.17c.36-.28.71-.59,1.06-.88a5.45,5.45,0,0,1,2.53-1.34.5.5,0,0,1,.38.15,3.26,3.26,0,0,1,0,4.18,9,9,0,0,1-1.78,1.65,7.36,7.36,0,0,1-3.43,1.59,1.39,1.39,0,0,0-.72.44,2.82,2.82,0,0,0,0,3.57,1.88,1.88,0,0,0,2.28.6,4.42,4.42,0,0,0,1.12-.58,24.77,24.77,0,0,0,2.33-1.9,3.11,3.11,0,0,1,2.22-1h.33c1-.08,1.54-.42,1.73-1.43a20,20,0,0,0,.28-3c0-1.07,0-2.13-.06-3.19a10,10,0,0,1,.5-3.64c.43-1.28.77-2.59,1.15-3.89a3.5,3.5,0,0,0-.75-3.72c-.7-.73-1.29-1.54-2-2.3a3.65,3.65,0,0,0-2-1.35.77.77,0,0,0-.86.67.49.49,0,0,0,0,.12c.13.74.27,1.47.39,2.21a18,18,0,0,1,.4,4.39c-.09,1.23-.58,1.87-1.64,2.07a4.8,4.8,0,0,1-.75.09,3.81,3.81,0,0,0-3.83,3A11.65,11.65,0,0,0,37.83,97.83Z" transform="translate(-0.09 -0.02)"/><path class="cls-6" d="M50.58,103.17a5.19,5.19,0,0,0,.11,1,4,4,0,0,0,3.2,3.64,2.19,2.19,0,0,0,2.74-1.23,6.62,6.62,0,0,0,.3-.66,3.51,3.51,0,0,1,2.27-2.22,11.09,11.09,0,0,0,1.65-.74,2.3,2.3,0,0,0,1.25-2.08.87.87,0,0,0-.19-.48,3.09,3.09,0,0,0-2.17-.92c-.64-.06-1.28-.08-1.92-.15a1.92,1.92,0,0,1-1.8-1.5,7.26,7.26,0,0,1,0-4.08c.35-1.15.84-2.26,1.19-3.41q.93-3,1.77-6a3,3,0,0,0,0-1.26,4.92,4.92,0,0,0-3.37-3.62,1.61,1.61,0,0,0-1.92.31.62.62,0,0,0-.23.62c.1.44.2.87.32,1.3a9.45,9.45,0,0,1,.37,1.36,20.19,20.19,0,0,1-.23,5.49c-.07.44-.26.86.08,1.28V90a16.59,16.59,0,0,1-.51,3.14c-.81,2.39-1.55,4.82-2.34,7.22A9.76,9.76,0,0,0,50.58,103.17Z" transform="translate(-0.09 -0.02)"/><path class="cls-6" d="M65.64,97h.1a10,10,0,0,0-.54-1.47,7.47,7.47,0,0,0-3.72-3.2,1.24,1.24,0,0,0-1.32.14c-.76.58-.76.69-.33,1.38a9.07,9.07,0,0,0,1.39,1.75c.87.89,1.82,1.7,2.69,2.59a.84.84,0,0,0,1,.22A1.37,1.37,0,0,0,65.64,97Z" transform="translate(-0.09 -0.02)"/><path class="cls-6" d="M177.94,91.28c-1,.21-2.09.36-3.13.67-1.84.54-3.65,1.17-5.47,1.77a1.28,1.28,0,0,1-.24.11,2.3,2.3,0,0,0-1.68,2,11.67,11.67,0,0,1-.5,1.75,3.75,3.75,0,0,1-.21.5A1.35,1.35,0,0,1,165,99h0a1.52,1.52,0,0,1-1.3-1.55,6.32,6.32,0,0,1,.55-2.6c.33-.82.68-1.64,1.08-2.43a13.62,13.62,0,0,0,1.35-3.55,1.76,1.76,0,0,1,1.23-1.51,6,6,0,0,1,.27,1.17v2.21c0,.74.2.88.56.89s.53-.33.55-.89c.06-2,.15-4,.2-6.07,0-.64-.09-1.28-.14-2-.42.17-.74.28-1,.41a.57.57,0,0,1-.79-.2l0-.06a1.62,1.62,0,0,1,.49-2.23,1.3,1.3,0,0,1,.31-.16,1.36,1.36,0,0,1,1.31.29,5.08,5.08,0,0,1,2.11,3.5,36.05,36.05,0,0,1,0,3.89v2c0,.27.16.33.38.35a.92.92,0,0,0,1.07-.74,1.11,1.11,0,0,0,0-.26c-.19-1.59-.42-3.17-.61-4.75a16.29,16.29,0,0,1,0-5.7,3.82,3.82,0,0,1,1.22-2.18.7.7,0,0,1,.51-.1,1.41,1.41,0,0,1,1.05,1.47c0,.72-.13,1.43-.2,2.15a3.31,3.31,0,0,0,.14,1.87,1.28,1.28,0,0,0,1.08-1.08c.15-.72.18-1.46.28-2.19a7.06,7.06,0,0,1,.25-1.28c.23-.67.65-.79,1.25-.41a1.54,1.54,0,0,1,.7,1.29,11.93,11.93,0,0,0,.09,1.79,8,8,0,0,0,.16.85c.39-.16.73-.29,1-.45.78-.38,1.53-.8,2.31-1.16a4.67,4.67,0,0,1,1.22-.32,1.36,1.36,0,0,1,1.49.88,2.56,2.56,0,0,1,.07,2.21c-.3.7-.65,1.38-1,2.06a6.92,6.92,0,0,0-.93,2.52c-.06.57,0,.8.49,1a.86.86,0,0,0,.55,0c.82-.22,1.62-.49,2.45-.67a6.11,6.11,0,0,1,1.48,0,1.9,1.9,0,0,1,1.29.74,4.59,4.59,0,0,1,.92,4,3.8,3.8,0,0,1-.23.59c-.49.92-.86,1.06-1.71.49a5.18,5.18,0,0,0-3.81-.57,11.33,11.33,0,0,0-2.07.57,2.43,2.43,0,0,0-1.55,1.42c-.16.52-.36,1-.55,1.56a2.33,2.33,0,0,1-1.32,1.41c-.34.19-.68.39-1,.6a2.18,2.18,0,0,0,1.76.8,7,7,0,0,0,1.49-.28c.51-.12,1-.29,1.51-.41a1.84,1.84,0,0,1,1.64.37,4.75,4.75,0,0,1,1.58,2.44,1.41,1.41,0,0,1-1.48,1.66c-.43-.08-.84-.21-1.27-.31a11.45,11.45,0,0,0-1.2-.23,1.22,1.22,0,0,0-1.43.93,19.43,19.43,0,0,0-.6,2.59c-.21,1.25-.28,2.53-.54,3.77a6,6,0,0,1-4.74,4.39,3.66,3.66,0,0,1-3.23-1,29.09,29.09,0,0,1-2.27-2.69,2.39,2.39,0,0,1-.35-.76c-.14-.41,0-.67.44-.7a3,3,0,0,1,1.12.13c.79.26,1.54.62,2.33.88a1.72,1.72,0,0,0,2.36-.69,1,1,0,0,0,.1-.21,6.31,6.31,0,0,0,1-4.34c-.12-.74-.2-.82-.94-.65a14.08,14.08,0,0,0-2.55.75,3.6,3.6,0,0,1-4.37-.85,2,2,0,0,1-.31-.34,1.25,1.25,0,0,1-.13-1.77l.06-.07a4,4,0,0,1,3.46-1.79,7.72,7.72,0,0,0,1.91-.33,1.06,1.06,0,0,0,.62-1.39,1,1,0,0,0-.24-.38.93.93,0,0,0-.48-.17c-.66,0-1.32.1-2,.15a2.16,2.16,0,0,1-2.13-1.19.33.33,0,0,1,0-.47h0a4.37,4.37,0,0,1,2-1.12c1.3-.36,2.63-.66,3.93-1a5.11,5.11,0,0,0,2.63-1.46.6.6,0,0,0,.11-.84Zm.39-8.94c-.55.46-.69.86-.54,1.24a3.42,3.42,0,0,1,0,2.4c-.2.64-.38,1.3-.55,2a.55.55,0,0,0,0,.36,1,1,0,0,0,1.86-.46c-.07-1.27-.13-2.54-.27-3.8A11.27,11.27,0,0,0,178.33,82.34Zm-1.64,15c.11-.27.25-.45.22-.59a12,12,0,0,0-.39-1.15h-.15c-.44,0-.57.36-.76.64s0,.42.17.56.55.27.91.5ZM180.89,84c.36,0,.71-.06.73-.47a1.4,1.4,0,0,0-.19-.63A1.05,1.05,0,0,0,181,83c-.34.24-.26.6-.11,1Zm.88,6.37-.16.1c.08.16.1.41.23.48a.32.32,0,0,0,.51-.24c0-.46-.39-.25-.58-.38Z" transform="translate(-0.09 -0.02)"/><path class="cls-6" d="M114.19,106.07c-.2.59-.36,1.15-.57,1.69a6.94,6.94,0,0,1-1.43,2.43.58.58,0,0,1-.78.13,1.71,1.71,0,0,1-.93-1.49,9.72,9.72,0,0,1,1.37-5.93,1.21,1.21,0,0,1,.2-.26.86.86,0,0,1,.14-.13c.52.1.65.45.7.91a6.62,6.62,0,0,0,.26,1.34,1,1,0,0,0,.8.73v-.42a2.31,2.31,0,0,1,1-2,9.73,9.73,0,0,0,.92-.78c.25-.24.22-.5-.1-.61a1.18,1.18,0,0,1-.86-1.43v0a1.46,1.46,0,0,0-.82-1.52,2.56,2.56,0,0,1-.48-.33,1.08,1.08,0,0,1-.21-1.52l0,0c.27-.38.58-.74.86-1.13a3.77,3.77,0,0,0,.37-.65c.24-.53,0-.82-.55-.75a2.48,2.48,0,0,0-.71.24,1.71,1.71,0,0,0-.54.38,5.23,5.23,0,0,1-2.42,1.49,2,2,0,0,0-1.09,1.16,12.36,12.36,0,0,1-3.17,3.8c-.17.15-.35.28-.52.42a1.78,1.78,0,0,1-1-2,5.31,5.31,0,0,1,.34-1.07,1.48,1.48,0,0,1,.81-.8c1.13-.5,2.26-1,3.37-1.56a4.86,4.86,0,0,0,1.24-.82,33.15,33.15,0,0,1,6.2-5,3.79,3.79,0,0,0,.4-.3l.67-.57c.18-.16.41-.36.21-.58s-.39-.09-.59-.08a3.71,3.71,0,0,0-.47.16,1,1,0,0,1-1.31-.54,1,1,0,0,1-.07-.46,4.74,4.74,0,0,1,.06-.92c.06-.31-.22-.58-.52-.31a6.63,6.63,0,0,0-1,1.12c-.28.4-.49.84-.76,1.25a.48.48,0,0,1-.62.17A1.14,1.14,0,0,1,112,88a.52.52,0,0,1,.06-.13,4.68,4.68,0,0,1,2-1.94c.58-.32,1.17-.65,1.73-1a8.38,8.38,0,0,0,1.15-.83,1.76,1.76,0,0,0,.51-2.33A17,17,0,0,0,116,79.56a.75.75,0,0,1,0-1.06l0,0a4.78,4.78,0,0,1,.42-.34.9.9,0,0,1,1.12,0c.43.31.9.56,1.32.87a2,2,0,0,1,.89,1.84,6.46,6.46,0,0,0,.06,1.08,2.37,2.37,0,0,0,.18.53c.18-.21.35-.33.39-.49a16.43,16.43,0,0,0,.52-2.31c.1-.92,0-1.87.11-2.79A4.35,4.35,0,0,1,122.59,74a.78.78,0,0,1,1,.15A1.64,1.64,0,0,1,123.9,76c-.32.88-.66,1.74-1,2.62a4.91,4.91,0,0,0-.35,2.48,1.19,1.19,0,0,0,1.08-.3,6.63,6.63,0,0,0,1.12-1,.92.92,0,0,1,1-.28,1.15,1.15,0,0,1,.76,1,3.6,3.6,0,0,1-2,3.28c-.55.25-1.08.53-1.6.83a8,8,0,0,0-1.29,1.1c-.29.31-.06.72.38.75.71,0,1.42.14,2.13.13a3.83,3.83,0,0,0,1.24-.27c.68-.25,1.34-.57,2-.81a2.38,2.38,0,0,1,1.87,0,1.06,1.06,0,0,1,.36.37c.26.41.09.69-.27,1a10.41,10.41,0,0,1-3.29,1.4c-.93.28-1.88.53-2.79.86a3,3,0,0,0-1.08.75c-.34.36-.25.74.12,1.07a1.62,1.62,0,0,1,.49,2.23c-.11.29-.23.57-.33.86a1.63,1.63,0,0,0,.31,1.75,2,2,0,0,1,.69,1.83c-.06.24.09.39.34.48a2.12,2.12,0,0,1,1.49,1.61.58.58,0,0,1-.14.46c-.43.3-.89.58-1.34.84l-1.84,1a.72.72,0,0,0-.37.84,6.37,6.37,0,0,1,.07.74,17.17,17.17,0,0,1,2.12.62,6.24,6.24,0,0,1,3.78,4,1.53,1.53,0,0,1-.47,1.79c-.69.59-1.17.7-1.89.14a4.82,4.82,0,0,1-1.12-1.22c-.41-.61-.72-1.29-1.1-1.93-.21-.37-.47-.72-.7-1.08a.46.46,0,0,0-.57-.2.43.43,0,0,0-.35.44c-.07,1-.12,2-.23,3a8.23,8.23,0,0,1-.35,1.92,3.36,3.36,0,0,1-.84,1.26,1.56,1.56,0,0,1-2.2.16l-.06-.06a4.28,4.28,0,0,1-1.63-3.64.59.59,0,0,1,.59-.59.85.85,0,0,1,.22,0c1.7.47,1.42.21,1.57-1a11.74,11.74,0,0,0-.06-2.37c0-.53-.27-.63-.75-.42a2.69,2.69,0,0,0-.91.57A2.68,2.68,0,0,1,114.19,106.07Zm5.24-14.35c-.28,0-.62,0-.73.15a18.87,18.87,0,0,0-1.12,1.73.49.49,0,0,0,0,.41.43.43,0,0,0,.55.25c.34-.1.68-.21.78-.6C119.1,93,119.26,92.42,119.43,91.72ZM123.21,83a2.08,2.08,0,0,0-.38-.55c-.28-.2-.5,0-.69.24a1.12,1.12,0,0,0-.12,1.29c.11.16.33.34.48.32a.74.74,0,0,0,.45-.4A5.47,5.47,0,0,0,123.21,83Z" transform="translate(-0.09 -0.02)"/><path class="cls-6" d="M16.31,74.9c.38.15.76.28,1.14.44a3,3,0,0,1,2,2.09,4.77,4.77,0,0,1-.06,1.51c-.09.66-.31,1.3-.36,2s.25,1,1,.87a8.22,8.22,0,0,0,1.09-.17,1,1,0,0,1,1.2.69c.11.3-.06.47-.22.63-.61.57-1.27,1.1-1.88,1.68a19.27,19.27,0,0,0-1.53,1.6,2,2,0,0,0-.35,1.86c.08.25.21.33.44.25L20,87.9a10.42,10.42,0,0,1,1.89-.61,3.63,3.63,0,0,1,3.77,2,9.22,9.22,0,0,1,.78,2A1.66,1.66,0,0,1,26.1,93a20.89,20.89,0,0,1-2.21,2c-1.05.78-2.18,1.46-3.29,2.16a6.33,6.33,0,0,1-1,.44.73.73,0,0,0-.53.82v.64a1.29,1.29,0,0,1-.84,1.43,10.29,10.29,0,0,1-1.36.61.59.59,0,0,0-.43.56c-.05.66-.11,1.32-.15,2a.33.33,0,0,0,.28.37.14.14,0,0,0,.09,0,22.08,22.08,0,0,0,2.44-.19,5.47,5.47,0,0,1,6.18,4,3.66,3.66,0,0,1-1.58,4,.49.49,0,0,1-.41,0A5.73,5.73,0,0,1,22.1,111c-.74-.71-1.41-1.5-2.16-2.2a9.77,9.77,0,0,0-1.6-1.19,2.25,2.25,0,0,0-1.86-.16.48.48,0,0,0-.39.55c0,1.61.09,3.22.08,4.83a5.38,5.38,0,0,1-.67,2.67,2,2,0,0,1-2.63,1.06,2.39,2.39,0,0,1-.22-.12,7.28,7.28,0,0,1-3.45-3.62c-.11-.25-.06-.44.2-.49q.64-.11,1.29-.15h.6a1.16,1.16,0,0,0,1.31-1,.17.17,0,0,0,0-.07,12.8,12.8,0,0,0,.36-3.9,10.52,10.52,0,0,0-.3-1.1,2.76,2.76,0,0,1-.07-.86,4.06,4.06,0,0,1,.35-.87,3,3,0,0,0,.13-2,.42.42,0,0,0-.31-.31,14.52,14.52,0,0,0-1.48.1,6,6,0,0,0-.92.18A1.3,1.3,0,0,1,9.22,102a3.12,3.12,0,0,1,1.06-1.25c.57-.42,1.17-.81,1.75-1.23A3.24,3.24,0,0,0,13.47,96a1.6,1.6,0,0,0-1.53.28c-.49.37-.94.82-1.4,1.24a.65.65,0,0,1-.91.11l0,0c-.44-.37-.56-.76-.22-1.1A15.15,15.15,0,0,1,11.1,95c.62-.46,1.3-.82,1.93-1.26a3.6,3.6,0,0,0,.79-.77,2.87,2.87,0,0,0,.26-.71c-.94-.06-1.73.46-2.66,0,.31-.32.57-.61.86-.87a12,12,0,0,0,1.14-1,2.7,2.7,0,0,0,.48-.94c.12-.39-.12-.61-.52-.54-1.2.22-2.4.47-3.61.64a3.39,3.39,0,0,1-2.34-.48.56.56,0,0,1-.17-.91A11.88,11.88,0,0,1,9,86.73c1.16-.76,2.38-1.44,3.58-2.16.24-.15.47-.32.72-.46a3.76,3.76,0,0,0,1.85-3.28,11.41,11.41,0,0,0-.33-4.19c-.27-.85.08-1.39,1-1.76Zm2.26,19.57c.19-.06.37-.06.46-.16A4.3,4.3,0,0,0,20.5,90.9a.59.59,0,0,0-.09-.31A1.43,1.43,0,0,0,19,90.1a1.43,1.43,0,0,0-1.32,1.54,1.35,1.35,0,0,0,.32.79,2.8,2.8,0,0,1,.5,1.42A4.23,4.23,0,0,0,18.57,94.47Z" transform="translate(-0.09 -0.02)"/><path class="cls-6" d="M5.77,93.46a3.24,3.24,0,0,1,1,2.14,19.27,19.27,0,0,0,1.52,4.87,21,21,0,0,1,1,3.06,3,3,0,0,1-.46,2.57.84.84,0,0,1-1.18.13l0,0a5.62,5.62,0,0,1-1.76-3.46,24.77,24.77,0,0,1-.76-5.43A7.71,7.71,0,0,1,5.56,94,2.21,2.21,0,0,1,5.77,93.46Z" transform="translate(-0.09 -0.02)"/><path class="cls-6" d="M.1,113.32a5,5,0,0,1,1.49-3.06.5.5,0,0,1,.43-.08,2.22,2.22,0,0,1,.64.69,1.48,1.48,0,0,0,1.44,1h.38c.54.13.73.4.56.91a4.32,4.32,0,0,1-3,3.13,1,1,0,0,1-.94-.14A2.75,2.75,0,0,1,.1,113.32Z" transform="translate(-0.09 -0.02)"/><path d="M1.59,122.89H2.68l3,5.25.92,1.69h.06c-.06-.84-.14-1.77-.14-2.63v-4.33h1v8.33H6.44l-3-5.26-.9-1.72h0c0,.84.12,1.73.12,2.6v4.38h-1Z" transform="translate(-0.09 -0.02)"/><path d="M9.32,127c0-2.67,1.46-4.29,3.55-4.29s3.56,1.62,3.56,4.29-1.47,4.34-3.56,4.34S9.32,129.69,9.32,127Zm6,0c0-2.09-1-3.37-2.48-3.37s-2.47,1.28-2.47,3.37,1,3.42,2.47,3.42,2.51-1.34,2.51-3.42Z" transform="translate(-0.09 -0.02)"/><path d="M22.8,131.22l-2-3.54H19.3v3.54H18.22v-8.33h2.62c1.69,0,2.9.6,2.9,2.34a2.25,2.25,0,0,1-1.88,2.34L24,131.22Zm-3.52-4.39h1.4c1.3,0,2-.52,2-1.6s-.72-1.49-2-1.49h-1.4Z" transform="translate(-0.09 -0.02)"/><path d="M27,123.77H24.48v-.88h6.1v.88H28.1v7.45H27Z" transform="translate(-0.09 -0.02)"/><path d="M32.1,122.89h1v3.49H37v-3.49H38.1v8.33H37v-3.94H33.1v3.94h-1Z" transform="translate(-0.09 -0.02)"/><path d="M40.34,122.89h4.81v.88H41.4v2.62h3.16v.89H41.4v3h3.87v.9H40.34Z" transform="translate(-0.09 -0.02)"/><path d="M50.84,128.67h-3L47,131.22H45.92l2.83-8.33h1.17l2.83,8.33H51.64Zm-.26-.84-.4-1.27c-.31-1-.57-1.85-.84-2.82h0c-.27,1-.54,1.87-.83,2.82l-.41,1.27Z" transform="translate(-0.09 -0.02)"/><path d="M53.32,130.12l.62-.71a3.27,3.27,0,0,0,2.31,1c1.09,0,1.75-.54,1.75-1.36s-.6-1.13-1.39-1.48l-1.2-.52a2.23,2.23,0,0,1,.93-4.35,3.41,3.41,0,0,1,2.45,1l-.55.67a2.8,2.8,0,0,0-1.9-.78c-.94,0-1.56.48-1.56,1.23s.73,1.11,1.38,1.38l1.19.51A2.33,2.33,0,0,1,59.1,129c0,1.32-1.09,2.36-2.83,2.36A3.87,3.87,0,0,1,53.32,130.12Z" transform="translate(-0.09 -0.02)"/><path d="M62.19,123.77H59.67v-.88h6.1v.88H63.25v7.45H62.19Z" transform="translate(-0.09 -0.02)"/><path d="M69.8,122.89h4.81v.88H70.86v2.82H74v.89H70.86v3.74H69.8Z" transform="translate(-0.09 -0.02)"/><path d="M75.47,127c0-2.67,1.47-4.29,3.56-4.29s3.55,1.62,3.55,4.29-1.46,4.34-3.55,4.34S75.47,129.69,75.47,127Zm6,0c0-2.09-1-3.37-2.47-3.37s-2.48,1.28-2.48,3.37,1,3.42,2.48,3.42,2.5-1.34,2.5-3.42Z" transform="translate(-0.09 -0.02)"/><path d="M89,131.22l-2-3.54H85.44v3.54H84.38v-8.33H87c1.69,0,2.91.6,2.91,2.34A2.25,2.25,0,0,1,88,127.57l2.14,3.65Zm-3.52-4.39h1.39c1.31,0,2-.52,2-1.6s-.71-1.49-2-1.49H85.44Z" transform="translate(-0.09 -0.02)"/><path d="M91.59,122.89H96.4v.88H92.65v2.62h3.16v.89H92.65v3h3.87v.9H91.59Z" transform="translate(-0.09 -0.02)"/><path d="M97.67,130.12l.63-.71a3.23,3.23,0,0,0,2.3,1c1.09,0,1.75-.54,1.75-1.36s-.6-1.13-1.38-1.48l-1.21-.52a2.23,2.23,0,0,1,.93-4.35,3.43,3.43,0,0,1,2.46,1l-.56.67a2.8,2.8,0,0,0-1.9-.78c-.94,0-1.55.48-1.55,1.23s.72,1.11,1.37,1.38l1.19.51a2.33,2.33,0,0,1,1.72,2.23c0,1.32-1.09,2.36-2.83,2.36A4,4,0,0,1,97.67,130.12Z" transform="translate(-0.09 -0.02)"/><path d="M106.54,123.77H104v-.88h6.08v.88h-2.5v7.45h-1.06Z" transform="translate(-0.09 -0.02)"/><path d="M116.19,131.22l-2-3.54h-1.5v3.54h-1.06v-8.33h2.61c1.7,0,2.91.6,2.91,2.34a2.25,2.25,0,0,1-1.88,2.34l2.13,3.65Zm-3.52-4.39h1.43c1.31,0,2-.52,2-1.6s-.72-1.49-2-1.49h-1.39Z" transform="translate(-0.09 -0.02)"/><path d="M120.18,128l-2.5-5.09h1.12l1.07,2.35c.27.61.52,1.19.82,1.82h0c.3-.63.58-1.21.83-1.82l1.08-2.35h1.09l-2.5,5.09v3.24h-1Z" transform="translate(-0.09 -0.02)"/><path d="M127.37,127.77v-4.88h1.06v4.94c0,2,.85,2.63,1.93,2.63s2-.62,2-2.63v-4.92h1v4.88c0,2.68-1.3,3.59-3,3.59S127.37,130.45,127.37,127.77Z" transform="translate(-0.09 -0.02)"/><path d="M135.59,122.89h1.09l3,5.25.88,1.71h.06c-.06-.84-.14-1.77-.14-2.63v-4.33h1v8.33H140.4l-3-5.26-.9-1.72h0c0,.84.12,1.73.12,2.6v4.38h-1Z" transform="translate(-0.09 -0.02)"/><path d="M143.8,122.89h1v8.33h-1Z" transform="translate(-0.09 -0.02)"/><path d="M146,122.89h1.1l1.36,4.51c.29,1,.48,1.77.8,2.75h.05c.3-1,.51-1.77.8-2.75l1.34-4.51h1.07l-2.64,8.33h-1.22Z" transform="translate(-0.09 -0.02)"/><path d="M153.66,122.89h4.8v.88h-3.75v2.62h3.16v.89h-3.16v3h3.88v.9h-4.93Z" transform="translate(-0.09 -0.02)"/><path d="M164.92,131.22l-2-3.54H161.4v3.54h-1.06v-8.33H163c1.69,0,2.91.6,2.91,2.34a2.25,2.25,0,0,1-1.89,2.34l2.14,3.65Zm-3.52-4.39h1.39c1.31,0,2-.52,2-1.6s-.71-1.49-2-1.49H161.4Z" transform="translate(-0.09 -0.02)"/><path d="M166.78,130.12l.63-.71a3.23,3.23,0,0,0,2.3,1c1.09,0,1.75-.54,1.75-1.36s-.6-1.13-1.39-1.48l-1.2-.52a2.23,2.23,0,0,1,.93-4.35,3.43,3.43,0,0,1,2.46,1l-.56.67a2.8,2.8,0,0,0-1.9-.78c-.94,0-1.55.48-1.55,1.23s.72,1.11,1.37,1.38l1.19.51a2.33,2.33,0,0,1,1.72,2.23c0,1.32-1.09,2.36-2.83,2.36A4,4,0,0,1,166.78,130.12Z" transform="translate(-0.09 -0.02)"/><path d="M174.17,122.89h1.05v8.33h-1.05Z" transform="translate(-0.09 -0.02)"/><path d="M179.23,123.77h-2.52v-.88h6.1v.88h-2.52v7.45h-1.06Z" transform="translate(-0.09 -0.02)"/><path d="M185.48,128l-2.5-5.09h1.12l1.06,2.35c.28.61.53,1.19.82,1.82H186c.29-.63.58-1.21.83-1.82l1.08-2.35H189l-2.5,5.09v3.24h-1.06Z" transform="translate(-0.09 -0.02)"/></g></g></svg>