<svg xmlns="http://www.w3.org/2000/svg" viewBox="0 0 131.89 148.46"><defs><style>.cls-1{fill:#9f0810;}.cls-2{fill:#006b38;}.cls-3{fill:#231815;}</style></defs><g id="图层_2" data-name="图层 2"><g id="图层_1-2" data-name="图层 1"><path class="cls-1" d="M30.55,77.12c-.13.23-1.48,2.27-1.67,2.54a.44.44,0,0,1-.61.16c-.16-.09-.2-.32-.1-.56a4.9,4.9,0,0,1,2.32-2.21C30.54,77.05,30.56,77.08,30.55,77.12Z"/><path class="cls-1" d="M25.35,80.3a.63.63,0,0,1,.27-1,2.76,2.76,0,0,1,.81-.15c.2,0,.29.11.21.3a.52.52,0,0,0,.06.64.18.18,0,0,1-.1.31A2.74,2.74,0,0,1,25.35,80.3Z"/><path class="cls-1" d="M34.88,81.14a1.17,1.17,0,0,0-.31-1.27,6.74,6.74,0,0,0-.62-.42c-.22-.14-.24-.29,0-.42a.77.77,0,0,1,.71-.1,6.29,6.29,0,0,0,1,.24c.09,0,.59,0,.21-.41l-.29-.27c-.16-.15-.15-.29,0-.39s.13,0,.32-.1c.64-.29.55-1.85,0-1.67a.29.29,0,0,0-.15.12,1.9,1.9,0,0,1-1.76.84c-.28-.13-1.6-.61-2-.72s-.38.66-.05.79c.64.26,1.17,1.13.64,1.06a4.43,4.43,0,0,0-1.08-.2c-.06,0-.08.08,0,.11.29.15.8.44.66.53a12.36,12.36,0,0,1-1.56-.35c-.16-.06-.34-.06-.4.14s.13.3.28.31a1.38,1.38,0,0,1,.79.37,1.25,1.25,0,0,1-.23.23,1.46,1.46,0,0,1-1.36-.08.57.57,0,0,0-.58,0,1.68,1.68,0,0,0,.56.63c.15.08.29.13.15.28a1,1,0,0,1-.59.36.39.39,0,0,0-.26.11c-.28.41-.34.35-.75.59s-.61.13-.69-.21-.58,0-.63,1a.6.6,0,0,0,.71.65,2.34,2.34,0,0,0,.88-.36,4.34,4.34,0,0,0,.54-.44c.21-.17.28-.14.41.12a2.1,2.1,0,0,1,.07,1.7.5.5,0,0,0,.38.7.9.9,0,0,0,.61-.12A1.52,1.52,0,0,0,31,83.18a2,2,0,0,0-.75-1.5c-.43-.39-.41-.32-.07-.54l0,0a.41.41,0,0,1,.56,0c.37.26.46.25.81,0a.26.26,0,0,1,.35,0c.16.1.37.13.53.23C32.87,81.59,34.73,81.82,34.88,81.14Zm-2.47-.84c.1,0,.38-.3.39-.4,0-.29.18-.44.45-.32a.7.7,0,0,1,.35.37C33.7,80.2,32.81,80.59,32.41,80.3Z"/><path class="cls-1" d="M38.69,88.27a1.33,1.33,0,0,1,1.93-.52.61.61,0,0,0,.94-.27,5.38,5.38,0,0,0,.81-1.71c0-.3.87-.06.85,1.69,0,.46-.3.66-.55.92s-.68.63-1,1a7.4,7.4,0,0,0-.53.72c-.29.42-.57.85-.85,1.28a.59.59,0,0,1-.94.21.75.75,0,0,0-.6-.1,3,3,0,0,1-1.47,0,.65.65,0,0,1-.42-.86.7.7,0,0,1,.84-.47c.63.26,2,.22,2.16-.14a7.12,7.12,0,0,0,.35-.74q.13-.34-.24-.36c-.31,0-.61,0-.92,0-.15,0-.4,0-.44-.08S38.69,88.29,38.69,88.27Z"/><path class="cls-1" d="M44.17,92.42l.27.17c.28.18.4.43.3.65a.69.69,0,0,1-.77.37,3.25,3.25,0,0,0-.87-.08,1.32,1.32,0,0,0-.58.22.7.7,0,0,1-1.06-.1,1.25,1.25,0,0,1-.14-1.59c.49-1.07,3.55-2.62,4.33-5.34.05-.26.27-.31.51-.18a1,1,0,0,1,.56.72,1.54,1.54,0,0,1-.57,1.57c-.56.48-1.12,1-1.72,1.41-1,.74-.94,1.77-.58,2A3.37,3.37,0,0,0,44.17,92.42Z"/><path class="cls-1" d="M45.68,92.8c-.14-.54-.27-1.08-.37-1.62s.41-.35.51-.28a2.06,2.06,0,0,1,.55,1.84C46.33,92.83,45.86,93.51,45.68,92.8Z"/><path class="cls-1" d="M56.14,100.85a.35.35,0,0,1-.46.21.64.64,0,0,1-.37-.35,4.12,4.12,0,0,1,.12-1.62c0-.1,0-.28-.1-.32-.27-.09-.84.94-1.13,1.34-.05.07-.29.55-.62.43-.17-.06-.71-.42-.26-1.14a5.34,5.34,0,0,1,1.35-1.33s.09,0,.11-.08.11-.15.09-.2a.26.26,0,0,0-.2-.1,1.08,1.08,0,0,1-1.25-.94.37.37,0,0,1,.21-.48c.86-.49,1.73-1,2.58-1.47a1.46,1.46,0,0,0,.65-.92c.08-.4.13-.81.24-1.21s.27-.44.5-.39a.49.49,0,0,1,.33.61c-.11.51-.24,1-.38,1.51s-.29,1-.42,1.53c0,.1,0,.27.06.33s.23,0,.33-.08c.59-.36,1.19-.72,1.77-1.1a12.87,12.87,0,0,0,1.28-.91,1,1,0,0,0,.3-.5c.09-.3.14-.62.22-.93a1.15,1.15,0,0,1,.6-.68.36.36,0,0,1,.43,0c.11.16.13.88.3.94a7.65,7.65,0,0,0,1-.34c.11,0,.31,0,.37.08a.31.31,0,0,1-.09.33,4.64,4.64,0,0,1-.66.36,9,9,0,0,0-1.63,1.08,2.35,2.35,0,0,0-.57,1.91c0,.67.92.5,1.17.53.45,0,.64.35.42.73a1.89,1.89,0,0,1-.61.65c-.1.07-.53.08-.42-.8,0-.46-.61-.29-.64,0-.07.93-.69,3.39-1.33,3.18-.27-.09-.28-1-.26-1.42a.4.4,0,0,1,.18-.27c.54-.23.64-1.25.55-1.54a.07.07,0,0,0-.1,0,6.82,6.82,0,0,0-1.74,1.33.32.32,0,0,1-.59.07,1.12,1.12,0,0,1-.16-1,.93.93,0,0,1,.85-.4,2,2,0,0,1,.34,0,1.67,1.67,0,0,0,1.27-.36.79.79,0,0,0,.32-.51c.08-.45.15-.9.21-1.36,0-.27-.09-.35-.35-.23a9,9,0,0,0-1.84,1.27,8.47,8.47,0,0,1-.84.64,1.36,1.36,0,0,0-.64,1.08A11.84,11.84,0,0,1,56.14,100.85Z"/><path class="cls-1" d="M77.31,92.36a2.32,2.32,0,0,1-1.55.68c-.08,0-.21,0-.24,0a.28.28,0,0,1,0-.25.69.69,0,0,1,.46-.48c.52-.18.56-.7.68-1.14.06-.21,0-.45-.21-.54s-.39.08-.51.25-.18.3-.29.43-.26.13-.33-.06a.49.49,0,0,1,0-.21c0-.52.06-1,.08-1.56,0-.24-.52-.35-.71,0a1.54,1.54,0,0,0-.07,1.08c.1.41.15.82.21,1.23,0,0,0,.18-.12.18s-.2-.33-.23-.42c-.44-1.13-1.79-.52-1.18,0s1.06,1.13.23,1.73c-.25.18-.9.73-.92,1.22a.27.27,0,0,0,.27.32c.19,0,.27-.12.3-.28a1.53,1.53,0,0,1,.1-.49c.06-.12.22-.18.33-.27a1.39,1.39,0,0,1,.1.33.33.33,0,0,0,.53.29c.06,0,.1-.09.16-.11a.26.26,0,0,1,.17,0,.17.17,0,0,1,0,.16,1,1,0,0,1-.16.29L73.1,96.22c-.33.39-.65.79-1,1.19s-.46.27-.68.44A.84.84,0,0,0,71.23,99c.42.63.94-.64,1.21-1.07a5.22,5.22,0,0,1,1.35-1.67.11.11,0,0,1,.18.09.21.21,0,0,1,0,.11c-.06.16-.15.31-.2.46-.15.38-.06.58.33.69a.45.45,0,0,1,.36.38.4.4,0,0,0,.35.35c.22,0,.26.15.09.32s-.51.61-.28,1a.33.33,0,0,1-.42-.2c-.06-.12-.08-.25-.15-.37s-.12-.2-.22-.19-.14.14-.15.22a3.47,3.47,0,0,0,.21,2,.41.41,0,0,0,.34.18c.1,0,.23-.17.26-.29.08-.36.12-.73.19-1.09a.24.24,0,0,1,.17-.17.55.55,0,0,0,.5-.3c.39-.58.64-.54.65-.52a5.08,5.08,0,0,1,.29,1c0,.3,0,.34-.35.34-.1,0-.28,0-.3.1-.09.32.42.82.66,1a.49.49,0,0,0,.76-.11,1.4,1.4,0,0,0,.23-.73,11,11,0,0,0-.19-1.26c0-.08,0-.22.05-.26a.28.28,0,0,1,.26,0,2.53,2.53,0,0,1,.42.31,9.6,9.6,0,0,0,.74.69.47.47,0,0,0,.67-.12.45.45,0,0,0,0-.66c-.15-.16-.31-.3-.47-.44a1.6,1.6,0,0,0-1.65-.44.36.36,0,0,1-.1-.65c.17-.16.37-.28.54-.43s.3-.27.28-.37a.53.53,0,0,0-.34-.37c-.32-.06-.51-.17-.55-.5a.14.14,0,0,0-.1-.12c-.35-.15-.34-.43-.31-.73s0-.67-.4-.84c-.17-.08-.2-.27,0-.43a2,2,0,0,1,.35-.28l1.32-.77C78.08,92.77,78,91.61,77.31,92.36Zm-1.64-.21c-.1.35-.26.15-.24-.11C75.46,91.44,75.74,91.87,75.67,92.15Zm-.4,3.41a.45.45,0,0,1-.28.29c-.19,0-.22-.15-.19-.32.06-.41.19-.57.48-.59A3.2,3.2,0,0,1,75.27,95.56Z"/><path class="cls-1" d="M91.77,91.07a12.41,12.41,0,0,0-1.5-.46c-.34-.09-.46,0-.44.37a14,14,0,0,1-.06,3.5,1.52,1.52,0,0,1-.82.65c-.24.07-.5,0-.48-.25s1-3.44.42-4.25c0-.06-.12-.12-.16-.14s-.24.27-.22.35c-.16.88-.82.9-1.54.72a1.14,1.14,0,0,1-.34-.19.36.36,0,0,1-.12-.53c.31-.53.64-1.17.94-1.7a2.87,2.87,0,0,0,.15-.37c.19-.47-.24-.9-.44-1.24a3,3,0,0,1-.58-1.32.39.39,0,0,1,.54-.29,1.85,1.85,0,0,1,.84.72c.26.38.63.53.94.17a4.07,4.07,0,0,0,.38-.6c.24-.42,1.94-.64,1.41.32-.21.38-.51.91-.71,1.29a8.33,8.33,0,0,0-.44,1,.55.55,0,0,0,.21.66,4.15,4.15,0,0,0,4.28,0,.71.71,0,0,1,1,.1C95.48,90.18,93.52,91.68,91.77,91.07Z"/><path class="cls-1" d="M101.72,75.74a6.48,6.48,0,0,0-.61.93c-.13.21-.29.27-.46.13a.74.74,0,0,1-.23-.33c-.08-.45-.54-1.6-1.15-1.37a.82.82,0,0,0-.53.68c0,.19,0,1-.43.66a5,5,0,0,0-.65-.4.26.26,0,0,0-.36.17.35.35,0,0,0,.1.31,2.56,2.56,0,0,1,.64.92c.06.11-.08.32-.27.14S97.3,77,97,76.82a.48.48,0,0,0-.42,0c-.21.16.37,1,.6,1.18a5.63,5.63,0,0,0,1.49,1.17,2.3,2.3,0,0,1,.54.33.26.26,0,0,1,0,.41.29.29,0,0,1-.27,0,6.39,6.39,0,0,1-.68-.59c-.45-.46-2.09-2.16-2-.07,0,.22.42.25.52-.06s.15-.24.29-.1l1,1a6.77,6.77,0,0,1,.56.51c.06.06.14.21.07.3a.24.24,0,0,1-.28,0,2.34,2.34,0,0,1-.45-.44c-.11-.13-.33-.31-.44-.12s0,.25.1.35c.3.66.95,2.35,1.39,2.5s.92-.42.45-1a1,1,0,0,1-.1-1.23c.32-.65,1-2.48,1.25-2.33s0,.87-.09,1.12c-.21.48-.46,1-.71,1.41-.08.15-.17.28,0,.42a.35.35,0,0,0,.49.06,2.75,2.75,0,0,0,.46-.56c.15-.22.32-.3.51-.2s.23.27.1.5-.34.51-.49.78a.78.78,0,0,0-.05.93c.24.29,1.17.15,1.45-.47.12-.28.23-.57.36-.84s.36-.37.57-.1a7.89,7.89,0,0,1,.65,1c.08.16.21.56-.89,1-.1,0-.4.17-.4.34s.57.26.79.24c2.29-.16,2-1.78,1.43-2.5-.37-.45-.71-.92-1.07-1.38-.22-.29-.18-.45.13-.67.16-.12.33-.22.49-.35a.41.41,0,0,0-.07-.73,1.79,1.79,0,0,0-.39-.13.71.71,0,0,0-.82.39c-.1.17-.18.35-.29.51s-.32.47-.62.51c0,0-.07,0,0-.07a1.68,1.68,0,0,0-.19-1.27.79.79,0,0,1-.11-.41,2,2,0,0,1,1.27-1.68c.25-.09.32-.24.18-.47a2,2,0,0,0-.3-.41A.84.84,0,0,0,101.72,75.74Zm-.1,4.49c-.17.16-.35.26-.49.1S101.48,79.89,101.62,80.23ZM100,78.34a.22.22,0,0,1-.36,0,1.67,1.67,0,0,1-.25-.38,1,1,0,0,0-.59-.6c-.2-.07-.24-.19-.16-.44l.87.56c.14.09.28.2.41.3A.34.34,0,0,1,100,78.34Zm-.24-1.77a.16.16,0,0,1-.19.13.5.5,0,0,1-.19,0,.14.14,0,0,1,0-.23l.22,0a.16.16,0,0,1,.19.17Z"/><path class="cls-2" d="M119.41,53.25A53.49,53.49,0,1,1,65.75,0,53.46,53.46,0,0,1,119.41,53.25ZM65.76,2.56a50.85,50.85,0,1,0,51.08,50.69A50.9,50.9,0,0,0,65.76,2.56Z"/><path class="cls-2" d="M101.92,53.3A36,36,0,1,1,65.81,17.46,36,36,0,0,1,101.92,53.3ZM65.81,18.73A34.68,34.68,0,1,0,100.64,53.3,34.7,34.7,0,0,0,65.81,18.73Z"/><path class="cls-2" d="M66,89.36a36,36,0,0,0,34.14-24.87h-.34A36,36,0,0,0,66,88.34,36,36,0,0,0,32,64.69H31.7A36,36,0,0,0,66,89.36Z"/><path class="cls-2" d="M65.08,67.38h0a1.81,1.81,0,1,0-1.8,1.81,1.75,1.75,0,0,0,1-.3v.44a1,1,0,0,1-1,1,.94.94,0,0,1-1-.79l-.82.22a1.81,1.81,0,0,0,3.58-.41v-2Zm-1.8,1a1,1,0,1,1,1-1A1,1,0,0,1,63.28,68.37Z"/><path class="cls-2" d="M67.66,67.54a1.74,1.74,0,0,0-.78.2l.33-1.44H69v-.72H66.55l-.68,3,1,.26a1,1,0,0,1,.81-.45,1,1,0,0,1,1,1,1,1,0,0,1-1,1,1,1,0,0,1-1-.81l-.81.22a1.82,1.82,0,1,0,1.79-2.2Z"/><path class="cls-2" d="M73.87,70.31H71.08a1,1,0,0,1,1-1h0a1.87,1.87,0,1,0-1.81-1.86,1.24,1.24,0,0,0,0,.27l.81-.22v0a1,1,0,1,1,1,1h0a1.83,1.83,0,0,0-1.8,1.87h0v.83h3.62Z"/><polygon class="cls-2" points="59.66 70.32 59.64 65.57 58.82 65.57 58.04 65.81 58.05 66.62 58.82 66.38 58.83 70.32 57.96 70.32 57.96 71.15 60.87 71.14 60.86 70.31 59.66 70.32"/><path class="cls-1" d="M21.07,62.4l-.28-1.22,6.06-1.39L27.13,61l-3.56,3.7,4.19-1L28,65,22,66.36l-.28-1.22,3.56-3.7Z"/><path class="cls-1" d="M26.58,55.9a3.13,3.13,0,0,1-.76,2.31,3,3,0,0,1-2.22,1,3,3,0,0,1-2.33-.78A3.28,3.28,0,0,1,21,54a3.29,3.29,0,0,1,4.55-.27A3.08,3.08,0,0,1,26.58,55.9ZM24.8,54.63a2.36,2.36,0,0,0-2.95.18A2,2,0,0,0,22,57.55,2.31,2.31,0,0,0,25,57.37a1.81,1.81,0,0,0,.48-1.4A1.83,1.83,0,0,0,24.8,54.63Z"/><path class="cls-1" d="M24.07,50.5l2.46.23L26.41,52l-6.17-.58.21-2.27a2.36,2.36,0,0,1,.69-1.6,1.71,1.71,0,0,1,1.38-.46,1.85,1.85,0,0,1,1.05.46,1.83,1.83,0,0,1,.59,1.18l2.69-1.34-.14,1.48-2.6,1.25Zm-2.76-.26,1.8.17.1-1a1,1,0,0,0-.18-.74.84.84,0,0,0-.63-.31.85.85,0,0,0-.68.18.94.94,0,0,0-.31.7Z"/><path class="cls-1" d="M21.84,45.62l-.94-.22,1-4.47.93.21-.37,1.64L27.61,44l-.29,1.22L22.21,44Z"/><path class="cls-1" d="M23.82,35.71l.46-1.17,5.78,2.25L29.61,38l-2.48-1-1,2.48,2.48,1-.46,1.17L22.4,39.37l.45-1.17,2.42.94,1-2.49Z"/><path class="cls-1" d="M26.91,29.63l.84.47-1.14,2,1.42.8,1-1.8.84.47-1,1.8,1.5.84,1.14-2,.83.47L30.59,35.8l-5.43-3Z"/><path class="cls-1" d="M35.34,28.5l-1.17-.38-1.46,1.93.69,1-.79,1.06L29,26.63l.89-1.18,6.29,2Zm-3.19.71,1.06-1.41L30.61,27Z"/><path class="cls-1" d="M34.31,21.82a1,1,0,0,0-.3.56.66.66,0,0,0,.21.55.75.75,0,0,0,.5.25,1.07,1.07,0,0,0,.53-.12,5.3,5.3,0,0,0,.57-.3,4.53,4.53,0,0,1,.61-.34,3.42,3.42,0,0,1,.65-.24,1.29,1.29,0,0,1,.67,0,1.76,1.76,0,0,1,.68.43A1.73,1.73,0,0,1,38.92,24a2.31,2.31,0,0,1-.76,1.53,2.65,2.65,0,0,1-1.49.81,1.59,1.59,0,0,1-1.39-.51l.95-.94a.82.82,0,0,0,1.24-.08,1,1,0,0,0,.32-.63.73.73,0,0,0-.24-.6.67.67,0,0,0-.64-.18,2.55,2.55,0,0,0-.79.34c-.27.17-.56.32-.85.47a1.7,1.7,0,0,1-.94.19,1.46,1.46,0,0,1-.94-.47,1.67,1.67,0,0,1-.51-1.4,2.4,2.4,0,0,1,.76-1.47,2.51,2.51,0,0,1,1.41-.78,1.71,1.71,0,0,1,1.4.5l-1,1a.83.83,0,0,0-.58-.21A.86.86,0,0,0,34.31,21.82Z"/><path class="cls-1" d="M37,19.33l-.59-.76,3.66-2.79.58.76-1.33,1,3.18,4.17-1,.76-3.18-4.17Z"/><path class="cls-1" d="M46.69,19l-2.78-5.55,3.44-1.72.43.86-2.31,1.16.72,1.45L48,14.31l.43.85-1.77.89,1.2,2.38Z"/><path class="cls-1" d="M53.52,16.1A3.1,3.1,0,0,1,51.09,16a3,3,0,0,1-1.58-1.87,3.08,3.08,0,0,1,.15-2.46A3.3,3.3,0,0,1,54,10.2a3.1,3.1,0,0,1,1.58,1.88,3.05,3.05,0,0,1-.15,2.45A3.13,3.13,0,0,1,53.52,16.1Zm.76-2.05a2.06,2.06,0,0,0,0-1.57,2.07,2.07,0,0,0-1-1.24,1.78,1.78,0,0,0-1.47-.09,1.85,1.85,0,0,0-1.13,1,2.06,2.06,0,0,0,0,1.57,2.08,2.08,0,0,0,1,1.23,1.84,1.84,0,0,0,1.48.1A1.8,1.8,0,0,0,54.28,14.05Z"/><path class="cls-1" d="M58.09,12.29l.4,2.44-1.23.2-1-6.12,2.25-.37a2.33,2.33,0,0,1,1.72.26A1.72,1.72,0,0,1,61,9.92a1.82,1.82,0,0,1-1.17,2l2,2.26-1.47.24-1.87-2.2Zm-.45-2.74.29,1.79,1-.17a1,1,0,0,0,.67-.35.87.87,0,0,0,.14-.7.86.86,0,0,0-.35-.61,1,1,0,0,0-.75-.13Z"/><path class="cls-1" d="M66.13,7.78l0,1-2.33.08.06,1.63L66,10.38l0,1-2.06.07L64,13.12,66.32,13l0,1-3.58.13-.22-6.22Z"/><path class="cls-1" d="M69.94,8.93a1,1,0,0,0-.63.13.66.66,0,0,0-.28.51.78.78,0,0,0,.12.54,1.23,1.23,0,0,0,.43.34c.19.08.39.16.61.23s.43.16.65.26a3.47,3.47,0,0,1,.6.34,1.37,1.37,0,0,1,.41.53,1.7,1.7,0,0,1,.1.8,1.73,1.73,0,0,1-.73,1.26,2.32,2.32,0,0,1-1.66.4A2.61,2.61,0,0,1,68,13.65a1.62,1.62,0,0,1-.5-1.39l1.33.12a.82.82,0,0,0,.85.9,1,1,0,0,0,.7-.16.74.74,0,0,0,.3-.57.66.66,0,0,0-.28-.61,2.36,2.36,0,0,0-.76-.39c-.3-.1-.61-.21-.91-.34a1.82,1.82,0,0,1-.75-.6,1.54,1.54,0,0,1-.24-1,1.69,1.69,0,0,1,.74-1.29,2.39,2.39,0,0,1,1.62-.36,2.5,2.5,0,0,1,1.5.58A1.71,1.71,0,0,1,72.1,9.9l-1.37-.12a.84.84,0,0,0-.21-.59A.87.87,0,0,0,69.94,8.93Z"/><path class="cls-1" d="M73.56,9.39l.21-.94,4.48,1L78,10.4,76.4,10l-1.15,5.12L74,14.87l1.16-5.12Z"/><path class="cls-1" d="M79.65,13.86l-.86,2.31-1.17-.43,2.16-5.82,2.14.8a2.35,2.35,0,0,1,1.37,1.08,1.71,1.71,0,0,1,.08,1.45,1.79,1.79,0,0,1-2,1.16L82,17.35l-1.39-.51L80,14Zm1-2.6L80,13l1,.36a1,1,0,0,0,.76,0,1,1,0,0,0,.46-1.24,1,1,0,0,0-.59-.48Z"/><path class="cls-1" d="M85.26,19.09l-1.1-.6,1-1.87.1-4.58,1.23.67-.23,3.2L88.83,14l1.23.67-3.78,2.58Z"/><path class="cls-1" d="M91.23,20.08l2.48-2.9,1,.81-2.49,2.9a1.3,1.3,0,0,0-.38.95,1.25,1.25,0,0,0,.49.86,1.22,1.22,0,0,0,.92.35,1.28,1.28,0,0,0,.88-.52l2.49-2.9.94.81L95,23.34a2.28,2.28,0,0,1-1.74.9,2.68,2.68,0,0,1-1.78-.69,2.56,2.56,0,0,1-.93-1.63A2.29,2.29,0,0,1,91.23,20.08Z"/><path class="cls-1" d="M101.62,25l.82.95L97.7,30l-.81-1,1.45-4.93-3.27,2.79-.82-1,4.74-4,.81,1-1.45,4.93Z"/><path class="cls-1" d="M98.32,31l5.14-3.48.7,1L99,32Z"/><path class="cls-1" d="M100.5,34.45l4.43-4.9.62,1.17L102,34.53l5.17-.81.63,1.18-6.55.88Z"/><path class="cls-1" d="M109.5,39.62l-.9.33-.79-2.19-1.53.55.7,1.94-.9.33-.71-1.94-1.61.59.8,2.19-.91.32-1.22-3.36,5.85-2.13Z"/><path class="cls-1" d="M106.66,43.46l-2.41.53L104,42.77,110,41.42l.49,2.23a2.37,2.37,0,0,1-.16,1.74,1.76,1.76,0,0,1-1.18.86,2,2,0,0,1-1.14-.11,1.86,1.86,0,0,1-.92-1L105,47.29l-.32-1.45,2.09-2Zm2.71-.6-1.77.39.22,1a1,1,0,0,0,.4.64.83.83,0,0,0,.7.1.86.86,0,0,0,.59-.38,1,1,0,0,0,.08-.76Z"/><path class="cls-1" d="M110.53,49.81a1,1,0,0,0-.24-.6.65.65,0,0,0-.54-.19.76.76,0,0,0-.52.22,1.1,1.1,0,0,0-.25.48,3.68,3.68,0,0,0-.13.63q-.06.34-.15.69a2.55,2.55,0,0,1-.23.64,1.27,1.27,0,0,1-.45.5,1.79,1.79,0,0,1-.78.24,1.72,1.72,0,0,1-1.36-.51,2.31,2.31,0,0,1-.67-1.57,2.58,2.58,0,0,1,.34-1.66,1.59,1.59,0,0,1,1.28-.73l.11,1.33a.82.82,0,0,0-.74,1,.91.91,0,0,0,.28.65.76.76,0,0,0,.6.21.68.68,0,0,0,.56-.38,2.4,2.4,0,0,0,.25-.82c0-.31.11-.63.19-.95a1.74,1.74,0,0,1,.46-.84,1.45,1.45,0,0,1,1-.41,1.66,1.66,0,0,1,1.4.5,2.38,2.38,0,0,1,.63,1.54,2.55,2.55,0,0,1-.32,1.58,1.7,1.7,0,0,1-1.28.74l-.11-1.36a.86.86,0,0,0,.54-.31A.87.87,0,0,0,110.53,49.81Z"/><path class="cls-1" d="M105.4,53.6l6.2.11,0,1.25-6.2-.11Z"/><path class="cls-1" d="M110.62,56.26l.95.1-.51,4.57-1-.11.18-1.67-5.21-.58.14-1.24,5.21.59Z"/><path class="cls-1" d="M104.06,63.74l.31-1.22,2.07.52,4.46-1-.34,1.36-3.16.58,2.52,2-.35,1.36-3.44-3Z"/><path class="cls-3" d="M54.81,135.85a.71.71,0,0,1-.86.54,1.26,1.26,0,0,1-.8-.62C52.69,135,53,133,53,132.54c0-.21,0-.56-.26-.61-.56-.12-1.46,2.06-1.93,2.91-.08.15-.46,1.15-1.12,1a1.42,1.42,0,0,1-.79-2.19,10.66,10.66,0,0,1,2.36-2.95c.07-.06.17-.1.21-.17s.18-.33.13-.43a.51.51,0,0,0-.42-.14c-1.51.14-2.13-.22-2.68-1.58a.75.75,0,0,1,.3-1c1.59-1.17,3.2-2.3,4.75-3.51a2.8,2.8,0,0,0,1.08-2c.08-.81.07-1.64.2-2.45s.42-.94.91-.89a1,1,0,0,1,.79,1.14c-.11,1-.26,2.05-.41,3.07s-.35,2.07-.48,3.11c0,.21,0,.55.19.65s.46-.11.63-.24c1.09-.85,2.19-1.69,3.25-2.57a31.09,31.09,0,0,0,2.33-2.1,2.26,2.26,0,0,0,.46-1.06c.12-.62.13-1.26.24-1.89a2.15,2.15,0,0,1,1-1.48.66.66,0,0,1,.84,0c.27.28.46,1.7.82,1.79a15.22,15.22,0,0,0,2-.92c.2-.09.59-.13.75.07a.61.61,0,0,1-.12.68,9.34,9.34,0,0,1-1.2.86,17.32,17.32,0,0,0-3,2.52c-1,1.55-.86,2.46-.69,3.9s1.94.78,2.43.78c.9,0,1.34.55,1,1.35a3.75,3.75,0,0,1-1.06,1.43c-.2.16-1,.28-1-1.48-.09-.92-1.28-.44-1.27.25.08,1.84-.57,6.85-1.89,6.58-.55-.12-.8-2-.83-2.74a.71.71,0,0,1,.29-.58c1-.58,1-2.62.73-3.18a.13.13,0,0,0-.2,0c-.58.43-2.89,2.27-3.14,3s-.68.71-1.16.28a2.17,2.17,0,0,1-.54-2,1.79,1.79,0,0,1,1.58-1,3.19,3.19,0,0,1,.69,0,3.28,3.28,0,0,0,2.41-1,1.59,1.59,0,0,0,.52-1.07c.05-.91.09-1.83.11-2.74,0-.54-.27-.68-.75-.37a17.32,17.32,0,0,0-3.35,2.93,20.67,20.67,0,0,1-1.5,1.46,2.72,2.72,0,0,0-1,2.27C55.32,130.64,55.18,135.4,54.81,135.85Z"/><path class="cls-3" d="M102.77,133.24a28,28,0,0,0-1.91-2.7c-.46-.59-.78-.56-1.21.05-.77,1.1-3.59,5.35-4.59,5.76a3.15,3.15,0,0,1-2.2,0c-.48-.19-.83-.65-.47-1s6.11-4.42,6.15-6.56a.73.73,0,0,0-.09-.42c-.1-.19-.74.14-.82.29-1.4,1.27-2.52.44-3.48-.77a2.38,2.38,0,0,1-.34-.74.77.77,0,0,1,.49-1c1.2-.47,2.56-1.13,3.75-1.63a5.86,5.86,0,0,0,.72-.42c.91-.54.75-1.81.86-2.64a6.25,6.25,0,0,1,.73-2.94.8.8,0,0,1,1.26.22,3.77,3.77,0,0,1,.48,2.27c-.06,1,.37,1.68,1.35,1.49a9.49,9.49,0,0,0,1.4-.52c1-.4,4.05,1.41,1.94,2.33-.83.37-2,.87-2.85,1.25a20.22,20.22,0,0,0-2,1,1.13,1.13,0,0,0-.5,1.37,8.7,8.7,0,0,0,7.18,5.41c1,.08,1.6.71,1.57,1.46C110.09,136.5,104.9,136.49,102.77,133.24Z"/><path class="cls-3" d="M24.26,129.51a2.79,2.79,0,0,1,2.87-3.07c1-.07,1.4-.5,1.41-1.52a11,11,0,0,0-.43-4c-.3-.56,1.51-1.07,3.39,2.1a2.72,2.72,0,0,1,0,2.28c-.21,1-.53,1.88-.73,2.83a12,12,0,0,0-.17,1.9c-.06,1.07-.1,2.15-.12,3.22s-.46,1.46-1.46,1.43a1.59,1.59,0,0,0-1.18.49,6.51,6.51,0,0,1-2.63,1.67,1.38,1.38,0,0,1-1.71-1.09,1.47,1.47,0,0,1,1-1.76c1.44-.25,3.79-1.79,3.75-2.65a14.3,14.3,0,0,0-.19-1.73c-.09-.51-.36-.64-.83-.38s-1.09.7-1.65,1c-.29.16-.74.44-.9.34S24.26,129.55,24.26,129.51Z"/><path class="cls-3" d="M38.34,130.36c.22,0,.44,0,.67,0,.71,0,1.19.33,1.26.83a1.45,1.45,0,0,1-1,1.52,7.16,7.16,0,0,0-1.66.83,2.58,2.58,0,0,0-.8,1,1.5,1.5,0,0,1-2,1,2.67,2.67,0,0,1-2-2.73c-.32-2.47,3.5-8.66,1.89-14.41-.19-.52.14-.86.72-.89a2.2,2.2,0,0,1,1.81.69,3.25,3.25,0,0,1,.71,3.44c-.47,1.5-.94,3-1.54,4.46-1,2.43.26,4.23,1.15,4.23C37.81,130.38,38.07,130.36,38.34,130.36Z"/><path class="cls-3" d="M3.34,125c.25.57,2.13,5.9,2.38,6.63A1,1,0,0,1,5.18,133c-.41.18-.89-.06-1.19-.58-1.5-2.55-1.18-7-.85-7.37C3.22,125,3.29,125,3.34,125Z"/><path class="cls-3" d="M2,139A1.46,1.46,0,0,1,.6,137.22a7.12,7.12,0,0,1,.85-1.7c.25-.4.62-.39.84,0a1.2,1.2,0,0,0,1.27.78A.42.42,0,0,1,4,137,6,6,0,0,1,2,139Z"/><path class="cls-3" d="M41.48,129.37c-.85-.82-1.68-1.65-2.47-2.52s.35-1.09.62-1.08a4.33,4.33,0,0,1,3,2.73C42.69,128.7,42.58,130.44,41.48,129.37Z"/><path class="cls-3" d="M16.8,122.66a2.7,2.7,0,0,0-2.78-1.2,12.07,12.07,0,0,0-1.63.56c-.56.22-.87,0-.81-.56a1.78,1.78,0,0,1,.81-1.43,16,16,0,0,0,1.77-1.42c.16-.14.78-1.13-.47-1l-.9.15c-.51.09-.75-.13-.67-.62s.16-.27.27-.74c.34-1.59-2.65-3.6-3.15-2.24a.77.77,0,0,0,0,.45c.62,1.94-.19,4-.9,4.41S5,121.18,4.26,121.74c-.8.77.67,1.61,1.36,1.19,1.38-.83,3.73-.57,2.86.31a9.86,9.86,0,0,0-1.87,1.7.13.13,0,0,0,.15.2c.7-.31,1.93-.85,1.91-.46a25.3,25.3,0,0,1-2.82,2.37c-.33.23-.59.55-.29,1s.73.17,1-.09A3.18,3.18,0,0,1,8.28,127a2.48,2.48,0,0,1,.11.75,3.32,3.32,0,0,1-2,2.4c-.41.21-.79.42-.87,1A3.87,3.87,0,0,0,7.41,131c.38-.17.65-.36.74.11A2.2,2.2,0,0,1,8,132.67a.87.87,0,0,0-.14.63c.35,1.09.16,1.13,0,2.21-.09.77-.61,1.31-1.35,1s-.86,1,1,2.55a1.41,1.41,0,0,0,2.2-.4,5.75,5.75,0,0,0,.56-2.12,9.53,9.53,0,0,0-.07-1.6c0-.64.14-.72.8-.59a4.89,4.89,0,0,1,3.24,2.23,1.16,1.16,0,0,0,1.82.28,2.23,2.23,0,0,0,.62-1.3,3.55,3.55,0,0,0-1.48-2.88,4.62,4.62,0,0,0-3.81-.7c-1.32.23-1.16.31-1.1-.62a.37.37,0,0,0,0-.11.93.93,0,0,1,.75-1c1-.32,1.1-.49,1.11-1.49a.61.61,0,0,1,.46-.67c.42-.15.76-.5,1.18-.65C14.83,127,17.84,123.89,16.8,122.66Zm-5,3.38a2.6,2.6,0,0,0-.21-1.27c-.49-.47-.55-1,.05-1.29a1.63,1.63,0,0,1,1.15-.12C13.42,123.52,12.9,125.71,11.82,126Z"/><path class="cls-3" d="M130.16,121.76a15.79,15.79,0,0,0-2.45.38c-.54.1-.88-.06-.91-.57a1.44,1.44,0,0,1,.22-.87c.62-.8,1.85-3.3.55-4a1.85,1.85,0,0,0-1.93.16c-.35.24-1.61,1.53-1.74.27a10.68,10.68,0,0,0-.3-1.69.57.57,0,0,0-.82-.34.81.81,0,0,0-.38.63,5.53,5.53,0,0,1-.56,2.45c-.11.25-.66.34-.65-.24a7.61,7.61,0,0,0,.1-2.46,1.12,1.12,0,0,0-.71-.63c-.56-.11-1,2-1,2.76a12.07,12.07,0,0,0,.28,4.23,5.4,5.4,0,0,1,.24,1.38.59.59,0,0,1-.68.63c-.17,0-.45-.24-.46-.39a15.13,15.13,0,0,1,0-2c.09-1.43.47-6.7-2.89-3.43-.3.41.2,1.07.89.78.41-.18.61-.12.59.34,0,1.07-.07,2.15-.1,3.22,0,.56,0,1.13,0,1.69,0,.2-.16.55-.39.57s-.43-.31-.44-.48a5.89,5.89,0,0,1,.06-1.39c.06-.4,0-1-.45-.91-.28.07-.33.45-.44.69-.64,1.48-2.49,5.08-2.08,6s2.08.91,2.28-.69a2.2,2.2,0,0,1,1.9-2c1.58-.44,5.58-2.12,5.75-1.41s-1.42,1.33-2,1.53c-1.11.38-2.26.65-3.41.93-.35.09-.73.14-.76.57a.77.77,0,0,0,.64.89,6,6,0,0,0,1.63-.06c.58-.08,1,.07,1.1.55s-.11.79-.71.91-1.35.21-2,.34-1.51.53-1.63,1.32,1.52,2.17,3,1.71c.64-.21,1.28-.47,1.93-.65s1.14,0,1,.78a16.35,16.35,0,0,1-.76,2.65c-.14.37-.62,1.18-3.07.09-.22-.1-.89-.41-1.16-.15s.42,1.33.77,1.67c3.69,3.57,6,.72,6.31-1.37.19-1.28.46-2.56.7-3.84.14-.79.48-1,1.31-.79.43.1.86.21,1.29.29a.93.93,0,0,0,1.13-1.21,4.2,4.2,0,0,0-.37-.84,1.6,1.6,0,0,0-1.87-.79c-.43.09-.86.23-1.29.29a2.1,2.1,0,0,1-1.76-.27.11.11,0,0,1,0-.19,3.77,3.77,0,0,0,1.83-2.21,1.87,1.87,0,0,1,.51-.81,4.51,4.51,0,0,1,4.71-.4c.51.29.88.17,1-.39a4.3,4.3,0,0,0,.23-1.11A1.9,1.9,0,0,0,130.16,121.76Zm-7.63,6.57c-.51-.05-.94-.21-.9-.68C121.72,126.76,122.89,127.59,122.53,128.33Zm.79-5.48c-.4,0-.63-.17-.59-.54a3.35,3.35,0,0,1,.25-1,2.25,2.25,0,0,0,.12-1.88c-.18-.45,0-.68.49-.93.13.78.26,1.53.38,2.29,0,.37.07.75.11,1.13A.77.77,0,0,1,123.32,122.85Zm2.57-3a.37.37,0,0,1-.5-.12,1.41,1.41,0,0,1-.2-.39c0-.21.07-.4.35-.39a4.1,4.1,0,0,1,.4.3.36.36,0,0,1,0,.57Z"/><path class="cls-3" d="M86.69,121.32a4.72,4.72,0,0,1-3.43.56c-.17,0-.41-.09-.46-.21a.62.62,0,0,1,.15-.48,1.49,1.49,0,0,1,1.18-.73c1.11-.08,1.46-1.1,1.93-1.91.22-.4.32-.87-.14-1.18s-.81-.06-1.15.23-.5.49-.79.69-.59.13-.64-.27a1,1,0,0,1,0-.45c.32-1,.64-2,1-3.06.14-.48-.86-1-1.41-.35a3.15,3.15,0,0,0-.7,2.13c0,.85-.12,1.7-.22,2.55,0,.11-.17.34-.32.3-.36-.1-.23-.76-.25-1-.29-2.47-3.29-2-2.33-.66s1.52,2.79-.44,3.57c-.58.22-2.17,1-2.46,1.94a.57.57,0,0,0,.39.78c.37.12.59-.1.74-.41a3.4,3.4,0,0,1,.44-.92c.18-.2.53-.25.8-.37a2.84,2.84,0,0,1,0,.71c-.13.65.26,1,.91.85a2.67,2.67,0,0,1,.36-.14c.12,0,.29,0,.35,0a.37.37,0,0,1,0,.34,2.52,2.52,0,0,1-.48.5l-3.41,2.43-2.58,1.85c-.75.54-1.06.32-1.58.55a1.71,1.71,0,0,0-1,2.09c.52,1.47,2.21-.78,3-1.5a10.85,10.85,0,0,1,3.57-2.64.25.25,0,0,1,.31.28.76.76,0,0,1-.08.21c-.18.29-.43.54-.63.82-.48.68-.41,1.11.31,1.54a.89.89,0,0,1,.51.93.86.86,0,0,0,.52.89c.42.21.45.44,0,.69-.74.44-1.34.94-1.1,1.92-.51,0-.64-.29-.72-.61s0-.55-.12-.81-.13-.48-.33-.5-.35.21-.42.37c-.23.53-1.11,2.81-.63,4.17a.92.92,0,0,0,.59.54.91.91,0,0,0,.65-.46c.36-.67.62-1.39,1-2.07.06-.13.31-.28.42-.24a1.13,1.13,0,0,0,1.15-.36c1.09-.95,1.57-.75,1.57-.69a11.6,11.6,0,0,1,.07,2.12c-.06.61-.26.65-.87.49-.21-.06-.58-.08-.66,0-.35.59.43,1.85.8,2.35a1,1,0,0,0,1.56.17,2.83,2.83,0,0,0,.85-1.34,22.22,22.22,0,0,0,.26-2.6.64.64,0,0,1,.23-.49c.11-.06.39.06.51.18a6.11,6.11,0,0,1,.67.85,20.67,20.67,0,0,0,1.12,1.74,1,1,0,0,0,1.39.12.92.92,0,0,0,.28-1.34,12.91,12.91,0,0,0-.7-1.11,3.36,3.36,0,0,0-3-1.74c-.28,0-.78-.88.13-1.34.42-.22.88-.35,1.3-.57s.73-.38.74-.59a1.19,1.19,0,0,0-.49-.93c-.6-.28-.93-.6-.83-1.27a.34.34,0,0,0-.13-.29c-.63-.47-.46-1-.25-1.62a1.47,1.47,0,0,0-.36-1.88.5.5,0,0,1,.13-.87,4,4,0,0,1,.85-.37c1-.3,2-.56,3-.86C88,122.53,88.51,120.19,86.69,121.32Zm-3.15-1.25c-.37.64-.58.15-.42-.34C83.5,118.54,83.83,119.54,83.54,120.07ZM81,126.65a.91.91,0,0,1-.69.44c-.39-.07-.36-.42-.22-.74.34-.78.68-1,1.26-.93A6,6,0,0,1,81,126.65Z"/><path class="cls-3" d="M3.47,142.91H4.54v5.49H3.47l-2.4-3.8v3.8H0v-5.49H1.07l2.4,3.8Z"/><path class="cls-3" d="M8.09,148.46a2.58,2.58,0,0,1-1.92-.79,2.73,2.73,0,0,1-.79-2,2.76,2.76,0,0,1,.79-2,2.61,2.61,0,0,1,1.93-.8,2.59,2.59,0,0,1,1.92.8,3,3,0,0,1,0,4A2.59,2.59,0,0,1,8.09,148.46ZM9.26,147a2.13,2.13,0,0,0,0-2.62,1.53,1.53,0,0,0-1.17-.48,1.5,1.5,0,0,0-1.17.49,1.84,1.84,0,0,0-.45,1.3A1.88,1.88,0,0,0,6.92,147a1.54,1.54,0,0,0,1.17.49A1.54,1.54,0,0,0,9.26,147Z"/><path class="cls-3" d="M12.72,146.22v2.18H11.65v-5.48H13.6a2,2,0,0,1,1.42.48,1.53,1.53,0,0,1,.49,1.17,1.71,1.71,0,0,1-.3,1,1.54,1.54,0,0,1-1,.61l1.35,2.25H14.34l-1.27-2.18Zm0-2.45v1.6h.88a.82.82,0,0,0,.61-.21.78.78,0,0,0,.22-.59.75.75,0,0,0-.22-.58.79.79,0,0,0-.61-.22Z"/><path class="cls-3" d="M16.26,143.77v-.85h3.93v.85H18.75v4.63H17.69v-4.63Z"/><path class="cls-3" d="M24.36,142.92h1.07v5.48H24.36v-2.34H22.08v2.34H21v-5.48h1.07v2.29h2.28Z"/><path class="cls-3" d="M29.63,142.91v.84h-2v1.44H29.4V146H27.64v1.52h2v.84H26.57v-5.49Z"/><path class="cls-3" d="M34.2,148.4l-.34-1H31.79l-.34,1H30.32l1.87-5.49h1.27l1.87,5.49Zm-2.13-1.87h1.51l-.76-2.29Z"/><path class="cls-3" d="M37.79,143.73a.79.79,0,0,0-.52.17.59.59,0,0,0-.2.47.65.65,0,0,0,.15.46.9.9,0,0,0,.39.26,3.67,3.67,0,0,0,.53.16l.58.18a2.87,2.87,0,0,1,.53.25,1.09,1.09,0,0,1,.39.43,1.6,1.6,0,0,1-.37,1.86,1.94,1.94,0,0,1-1.39.49,2.19,2.19,0,0,1-1.39-.42,1.44,1.44,0,0,1-.53-1.18H37.1a.71.71,0,0,0,.8.72.81.81,0,0,0,.57-.2.68.68,0,0,0,.22-.52.57.57,0,0,0-.29-.51,2.06,2.06,0,0,0-.67-.29c-.27-.06-.54-.14-.81-.22a1.58,1.58,0,0,1-.68-.47,1.32,1.32,0,0,1-.28-.89,1.49,1.49,0,0,1,.52-1.19,2,2,0,0,1,1.35-.45,2.12,2.12,0,0,1,1.33.39,1.54,1.54,0,0,1,.54,1.18H38.53a.7.7,0,0,0-.74-.68Z"/><path class="cls-3" d="M40.5,143.77v-.85h3.93v.85H43v4.63H41.93v-4.63Z"/><path class="cls-3" d="M47.52,148.4v-5.48H50.8v.85H48.59v1.44h1.69v.85H48.59v2.34Z"/><path class="cls-3" d="M54.06,148.46a2.6,2.6,0,0,1-1.93-.79,2.76,2.76,0,0,1-.78-2,2.72,2.72,0,0,1,.79-2,2.72,2.72,0,0,1,3.85,0,3,3,0,0,1,0,4A2.59,2.59,0,0,1,54.06,148.46Zm1.17-1.5a2.13,2.13,0,0,0,0-2.62,1.53,1.53,0,0,0-1.17-.48,1.5,1.5,0,0,0-1.17.49,1.84,1.84,0,0,0-.45,1.3,1.88,1.88,0,0,0,.45,1.31,1.64,1.64,0,0,0,2.34,0Z"/><path class="cls-3" d="M58.69,146.22v2.18H57.62v-5.48h2a1.94,1.94,0,0,1,1.41.48,1.54,1.54,0,0,1,.5,1.17,1.71,1.71,0,0,1-.3,1,1.6,1.6,0,0,1-1,.61l1.35,2.25H60.3L59,146.22Zm0-2.45v1.6h.88a.73.73,0,0,0,.82-.8.78.78,0,0,0-.21-.58.79.79,0,0,0-.61-.22Z"/><path class="cls-3" d="M65.6,142.91v.84h-2v1.44h1.77V146H63.61v1.52h2v.84H62.54v-5.49Z"/><path class="cls-3" d="M68.41,143.73a.81.81,0,0,0-.52.17.59.59,0,0,0-.2.47.65.65,0,0,0,.15.46.9.9,0,0,0,.39.26,3.67,3.67,0,0,0,.53.16c.19.05.39.11.58.18a2.87,2.87,0,0,1,.53.25,1.09,1.09,0,0,1,.39.43,1.54,1.54,0,0,1,.15.7,1.52,1.52,0,0,1-.52,1.16,1.93,1.93,0,0,1-1.38.49,2.2,2.2,0,0,1-1.4-.42,1.44,1.44,0,0,1-.53-1.18h1.14a.71.71,0,0,0,.8.72.85.85,0,0,0,.58-.2.67.67,0,0,0,.21-.52.59.59,0,0,0-.28-.51,2.22,2.22,0,0,0-.68-.29c-.27-.06-.53-.14-.8-.22a1.55,1.55,0,0,1-.69-.47,1.37,1.37,0,0,1-.28-.89,1.5,1.5,0,0,1,.53-1.19,2,2,0,0,1,1.34-.45,2.12,2.12,0,0,1,1.33.39,1.55,1.55,0,0,1,.55,1.18H69.16a.73.73,0,0,0-.23-.49A.71.71,0,0,0,68.41,143.73Z"/><path class="cls-3" d="M71.12,143.77v-.85h3.93v.85H73.61v4.63H72.55v-4.63Z"/><path class="cls-3" d="M76.94,146.22v2.18H75.87v-5.48h1.95a2,2,0,0,1,1.42.48,1.53,1.53,0,0,1,.49,1.17,1.71,1.71,0,0,1-.3,1,1.54,1.54,0,0,1-1,.61l1.35,2.25H78.56l-1.27-2.18Zm0-2.45v1.6h.88a.86.86,0,0,0,.62-.21.82.82,0,0,0,.21-.59.78.78,0,0,0-.21-.58.83.83,0,0,0-.62-.22Z"/><path class="cls-3" d="M83.2,148.4H82.13v-1.88l-1.79-3.6h1.2l1.13,2.59,1.13-2.59H85l-1.8,3.6Z"/><path class="cls-3" d="M87.94,146.3v-3.38H89v3.38a1.19,1.19,0,0,0,.28.86,1,1,0,0,0,.79.29,1.07,1.07,0,0,0,.8-.29,1.19,1.19,0,0,0,.28-.86v-3.38h1.06v3.38a2,2,0,0,1-.63,1.6,2.24,2.24,0,0,1-1.53.56,2.15,2.15,0,0,1-1.51-.56A2,2,0,0,1,87.94,146.3Z"/><path class="cls-3" d="M96.81,142.91h1.07v5.49H96.81l-2.4-3.8v3.8H93.34v-5.49h1.07l2.4,3.8Z"/><path class="cls-3" d="M99,148.4v-5.48h1.07v5.48Z"/><path class="cls-3" d="M102.7,148.4l-1.93-5.48h1.13l1.45,4.38,1.45-4.38h1.14l-2,5.48Z"/><path class="cls-3" d="M109.67,142.91v.84h-2v1.44h1.76V146h-1.76v1.52h2v.84h-3.06v-5.49Z"/><path class="cls-3" d="M111.84,146.22v2.18h-1.07v-5.48h2a1.94,1.94,0,0,1,1.41.48,1.54,1.54,0,0,1,.5,1.17,1.71,1.71,0,0,1-.3,1,1.57,1.57,0,0,1-1,.61l1.35,2.25h-1.27l-1.26-2.18Zm0-2.45v1.6h.88a.73.73,0,0,0,.82-.8.78.78,0,0,0-.21-.58.79.79,0,0,0-.61-.22Z"/><path class="cls-3" d="M117.41,143.73a.79.79,0,0,0-.52.17.59.59,0,0,0-.2.47.65.65,0,0,0,.15.46.84.84,0,0,0,.39.26,3.67,3.67,0,0,0,.53.16l.58.18a3.22,3.22,0,0,1,.53.25,1.09,1.09,0,0,1,.39.43,1.6,1.6,0,0,1-.37,1.86,1.94,1.94,0,0,1-1.39.49,2.17,2.17,0,0,1-1.39-.42,1.44,1.44,0,0,1-.53-1.18h1.14a.71.71,0,0,0,.8.72.81.81,0,0,0,.57-.2.68.68,0,0,0,.22-.52.57.57,0,0,0-.29-.51,2,2,0,0,0-.68-.29c-.26-.06-.53-.14-.8-.22a1.58,1.58,0,0,1-.68-.47,1.32,1.32,0,0,1-.28-.89,1.49,1.49,0,0,1,.52-1.19,2,2,0,0,1,1.35-.45,2.12,2.12,0,0,1,1.33.39,1.54,1.54,0,0,1,.54,1.18h-1.17a.7.7,0,0,0-.74-.68Z"/><path class="cls-3" d="M120.43,148.4v-5.48h1.07v5.48Z"/><path class="cls-3" d="M122.33,143.77v-.85h3.93v.85h-1.44v4.63h-1.06v-4.63Z"/><path class="cls-3" d="M129.48,148.4h-1.07v-1.88l-1.79-3.6h1.2l1.13,2.59,1.12-2.59h1.2l-1.79,3.6Z"/><polygon class="cls-2" points="79 59.8 93.63 59.8 65.73 25.45 37.83 59.8 52.47 59.8 57.27 53.88 62.08 59.8 70.88 59.8 61.67 48.47 65.73 43.47 79 59.8"/></g></g></svg>