<svg xmlns="http://www.w3.org/2000/svg" viewBox="0 0 206.78 54.4"><defs><style>.cls-1{fill:#fff;}</style></defs><g id="图层_2" data-name="图层 2"><g id="图层_1-2" data-name="图层 1"><path class="cls-1" d="M85.93,34.64a1.1,1.1,0,0,1-1.35.83,1.94,1.94,0,0,1-1.25-1c-.73-1.24-.22-4.36-.24-5.07,0-.32-.07-.87-.4-.94-.89-.2-2.29,3.22-3,4.55-.14.25-.72,1.8-1.77,1.57-.54-.13-2.36-1.07-1.23-3.45a16.64,16.64,0,0,1,3.7-4.62c.1-.1.27-.16.33-.27s.28-.51.21-.66-.44-.26-.66-.24C77.88,25.6,76.9,25,76,22.91a1.18,1.18,0,0,1,.47-1.56c2.5-1.83,5-3.6,7.46-5.51a4.42,4.42,0,0,0,1.69-3.07c.12-1.27.1-2.57.32-3.83.19-1.1.66-1.48,1.41-1.4a1.54,1.54,0,0,1,1.25,1.78c-.17,1.61-.41,3.21-.65,4.81s-.54,3.25-.75,4.88c0,.33,0,.87.3,1s.72-.18,1-.39c1.71-1.32,3.43-2.64,5.1-4a47.5,47.5,0,0,0,3.64-3.3A3.35,3.35,0,0,0,98,10.67c.19-1,.21-2,.37-2.95A3.46,3.46,0,0,1,100,5.38a1.07,1.07,0,0,1,1.33,0c.41.45.72,2.66,1.29,2.8a24.07,24.07,0,0,0,3.09-1.43c.31-.14.94-.21,1.18.11a.93.93,0,0,1-.19,1,14.3,14.3,0,0,1-1.88,1.36,27.42,27.42,0,0,0-4.67,4c-1.65,2.42-1.35,3.86-1.08,6.12.27,2.09,3,1.22,3.82,1.22,1.39,0,2.09.86,1.57,2.12a6,6,0,0,1-1.65,2.23c-.32.26-1.63.44-1.59-2.31-.14-1.45-2-.69-2,.38.12,2.9-.9,10.75-3,10.32-.86-.18-1.24-3.16-1.31-4.29a1.15,1.15,0,0,1,.46-.91c1.59-.91,1.52-4.11,1.15-5a.21.21,0,0,0-.32-.08c-.9.68-4.53,3.56-4.92,4.74-.37.95-1.06,1.11-1.81.44a3.42,3.42,0,0,1-.85-3.16,2.8,2.8,0,0,1,2.48-1.54,5.45,5.45,0,0,1,1.07,0A5.12,5.12,0,0,0,96,21.89a2.43,2.43,0,0,0,.81-1.67c.09-1.43.15-2.86.18-4.3,0-.85-.43-1.06-1.18-.58a27.73,27.73,0,0,0-5.25,4.6,31.88,31.88,0,0,1-2.36,2.29,4.28,4.28,0,0,0-1.6,3.55C86.72,26.47,86.5,33.92,85.93,34.64Z"/><path class="cls-1" d="M161.13,30.53a47.63,47.63,0,0,0-3-4.23c-.72-.92-1.22-.88-1.9.09-1.2,1.72-5.62,8.38-7.19,9a4.89,4.89,0,0,1-3.45.07c-.76-.3-1.3-1-.74-1.62.38-.4,9.58-6.93,9.64-10.28a1,1,0,0,0-.14-.66c-.16-.3-1.17.22-1.28.45-2.21,2-3.95.7-5.46-1.21a3.32,3.32,0,0,1-.53-1.16,1.2,1.2,0,0,1,.76-1.64c1.88-.74,4-1.78,5.88-2.56a9.73,9.73,0,0,0,1.13-.65c1.44-.86,1.18-2.85,1.34-4.15,0-.95.45-3.92,1.16-4.6a1.25,1.25,0,0,1,2,.35,6,6,0,0,1,.74,3.56c-.09,1.51.59,2.63,2.11,2.33a17,17,0,0,0,2.2-.81c1.49-.63,6.35,2.21,3.05,3.65-1.31.57-3.17,1.35-4.48,1.95-1,.49-2.06,1-3,1.63a1.78,1.78,0,0,0-.78,2.15,13.63,13.63,0,0,0,11.25,8.49c1.57.13,2.52,1.11,2.46,2.29C172.6,35.65,164.47,35.63,161.13,30.53Z"/><path class="cls-1" d="M38,24.69c0-2.68,1.37-4.61,4.51-4.82,1.6-.1,2.19-.78,2.2-2.37a17.6,17.6,0,0,0-.66-6.25c-.48-.88,2.36-1.68,5.31,3.3.78,1.32.33,2.39.07,3.57-.34,1.49-.85,2.94-1.16,4.43a19.89,19.89,0,0,0-.27,3c-.08,1.69-.14,3.37-.18,5.06s-.72,2.28-2.29,2.24a2.47,2.47,0,0,0-1.85.76,10.33,10.33,0,0,1-4.13,2.63,2.17,2.17,0,0,1-2.67-1.71,2.32,2.32,0,0,1,1.56-2.77c2.24-.38,5.94-2.81,5.87-4.15a22.69,22.69,0,0,0-.3-2.71c-.14-.8-.56-1-1.31-.59s-1.7,1.08-2.58,1.58c-.45.26-1.16.7-1.4.54S38,24.74,38,24.69Z"/><path class="cls-1" d="M60.1,26h1.06c1.12,0,1.87.52,2,1.3a2.28,2.28,0,0,1-1.55,2.39A11.6,11.6,0,0,0,59,31a4,4,0,0,0-1.26,1.64,2.33,2.33,0,0,1-3.16,1.54c-2.1-.66-3-2-3.14-4.26-.5-3.89,5.48-13.58,3-22.6-.31-.82.22-1.36,1.13-1.4A3.43,3.43,0,0,1,58.36,7a5.07,5.07,0,0,1,1.12,5.4c-.74,2.35-1.47,4.71-2.4,7-1.57,3.81.4,6.62,1.79,6.63C59.28,26.05,59.69,26,60.1,26Z"/><path class="cls-1" d="M5.24,17.67c.39.89,3.34,9.24,3.73,10.39a1.6,1.6,0,0,1-.86,2.09c-.64.27-1.38-.1-1.86-.92-2.35-4-1.84-11-1.32-11.55C5.05,17.54,5.16,17.56,5.24,17.67Z"/><path class="cls-1" d="M3.09,39.63A2.29,2.29,0,0,1,.94,36.77a11.61,11.61,0,0,1,1.33-2.66c.39-.63,1-.6,1.33.07a1.86,1.86,0,0,0,2,1.21.66.66,0,0,1,.69,1A9.3,9.3,0,0,1,3.09,39.63Z"/><path class="cls-1" d="M65,24.47c-1.33-1.28-2.62-2.59-3.87-3.95s.56-1.71,1-1.7c1.72.07,4.3,2.53,4.72,4.28C66.93,23.42,66.76,26.15,65,24.47Z"/><path class="cls-1" d="M26.35,14c-1.18-1.41-2.53-2.31-4.37-1.89a19.76,19.76,0,0,0-2.55.89c-.89.33-1.36,0-1.28-.88a2.81,2.81,0,0,1,1.27-2.24,24.71,24.71,0,0,0,2.77-2.22c.26-.24,1.24-1.78-.72-1.5-.47.06-.95.16-1.43.24-.78.13-1.16-.21-1-1s.26-.42.42-1.15C20,1.73,15.27-1.43,14.48.7a1.12,1.12,0,0,0,0,.7c1,3-.3,6.29-1.42,6.93s-5.26,3.3-6.4,4.18C5.42,13.71,7.73,15,8.81,14.38c2.17-1.3,5.86-.9,4.48.47a16.3,16.3,0,0,0-2.92,2.67.2.2,0,0,0,.23.32c1.09-.48,3-1.33,3-.73a40.27,40.27,0,0,1-4.42,3.72c-.52.37-.93.87-.45,1.48s1.13.27,1.49-.14S12.16,20.62,13,20.7a4.17,4.17,0,0,1,.17,1.19A5.26,5.26,0,0,1,10,25.64c-.65.34-1.24.66-1.37,1.57a5.81,5.81,0,0,0,3-.24c.6-.25,1-.55,1.16.18a3.37,3.37,0,0,1-.26,2.49,1.48,1.48,0,0,0-.23,1c.55,1.7.26,1.76.06,3.45-.15,1.21-.95,2.07-2.12,1.53-1.35-.62-1.35,1.62,1.5,4A2.2,2.2,0,0,0,15.16,39,9.29,9.29,0,0,0,16,35.66a15.12,15.12,0,0,0-.11-2.51c0-1,.22-1.12,1.26-.93a7.74,7.74,0,0,1,5.08,3.5,1.8,1.8,0,0,0,2.85.44,3.49,3.49,0,0,0,1-2,5.58,5.58,0,0,0-2.34-4.51c-1.75-1.41-3.91-1.44-6-1.09s-1.82.48-1.72-1v-.17a1.49,1.49,0,0,1,1.18-1.61C18.81,25.27,19,25,19,23.44a1,1,0,0,1,.72-1.05c.66-.25,1.2-.78,1.86-1C23.25,20.73,28,15.88,26.35,14Zm-7.81,5.3a4.28,4.28,0,0,0-.33-2c-.78-.72-.86-1.48.06-2a2.66,2.66,0,0,1,1.82-.2C21,15.3,20.22,18.73,18.54,19.25Z"/><path class="cls-1" d="M204.07,12.55a22,22,0,0,0-3.84.58c-.85.16-1.39-.09-1.42-.89a2.2,2.2,0,0,1,.34-1.36c1-1.25,2.89-5.18.86-6.24a2.9,2.9,0,0,0-3,.25c-.56.37-2.53,2.4-2.73.42a18.17,18.17,0,0,0-.48-2.65.91.91,0,0,0-1.29-.54,1.25,1.25,0,0,0-.59,1A8.46,8.46,0,0,1,191,7c-.16.4-1,.54-1-.37,0-.36.53-2.68.16-3.85a1.76,1.76,0,0,0-1.11-1c-.88-.17-1.6,3.21-1.65,4.33a19,19,0,0,0,.44,6.63,8.45,8.45,0,0,1,.38,2.17.93.93,0,0,1-1.07,1,1,1,0,0,1-.72-.6,21,21,0,0,1-.05-3.17c.15-2.25.74-10.51-4.53-5.37-.47.63.32,1.68,1.39,1.21.64-.28,1-.18.94.54-.05,1.68-.13,3.36-.17,5,0,.89.06,1.78,0,2.66,0,.31-.25.86-.61.89s-.67-.48-.69-.75a8.94,8.94,0,0,1,.09-2.19c.1-.62,0-1.6-.7-1.42-.44.1-.53.71-.69,1.08-1,2.32-3.91,8-3.27,9.48s3.26,1.42,3.58-1.1c.24-1.88,1.23-2.67,3-3.15,2.48-.69,8.75-3.33,9-2.22s-2.23,2.09-3.14,2.4c-1.75.59-3.55,1-5.34,1.46-.56.14-1.15.21-1.21.89a1.22,1.22,0,0,0,1,1.4,9.41,9.41,0,0,0,2.54-.09c.91-.14,1.54.11,1.73.85s-.17,1.24-1.11,1.43-2.12.32-3.16.54c-1.21.25-2.38.83-2.56,2.06s2.38,3.41,4.65,2.68c1-.33,2-.73,3-1,1.19-.34,1.79.07,1.58,1.24a26.07,26.07,0,0,1-1.19,4.14c-.21.58-1,1.85-4.82.14-.34-.15-1.39-.63-1.81-.23s.66,2.09,1.21,2.62c5.78,5.59,9.42,1.13,9.9-2.15.29-2,.71-4,1.08-6,.23-1.24.76-1.53,2.06-1.24.67.16,1.35.34,2,.45A1.44,1.44,0,0,0,202,26.43a6.17,6.17,0,0,0-.58-1.32,2.5,2.5,0,0,0-2.93-1.24c-.67.15-1.34.37-2,.46a3.35,3.35,0,0,1-2.76-.42.18.18,0,0,1,.05-.31,5.88,5.88,0,0,0,2.87-3.45,3,3,0,0,1,.8-1.28,7,7,0,0,1,7.37-.62c.82.45,1.39.26,1.65-.61a6.67,6.67,0,0,0,.37-1.75C206.82,14.47,206,12.52,204.07,12.55Zm-12,10.29c-.8-.09-1.48-.32-1.41-1.06C190.84,20.38,192.67,21.68,192.11,22.84Zm1.23-8.6c-.62,0-1-.26-.93-.84a5.21,5.21,0,0,1,.4-1.55A3.54,3.54,0,0,0,193,8.9c-.29-.7-.07-1.07.76-1.46.2,1.22.42,2.4.6,3.59.09.59.11,1.18.18,1.77A1.2,1.2,0,0,1,193.34,14.24Zm4-4.78a.57.57,0,0,1-.79-.18,3,3,0,0,1-.32-.61c0-.33.12-.63.55-.62a5.3,5.3,0,0,1,.63.47.57.57,0,0,1,0,.89Z"/><path class="cls-1" d="M135.92,11.85a7.44,7.44,0,0,1-5.38.88c-.27-.05-.65-.15-.72-.33a1,1,0,0,1,.22-.76,2.35,2.35,0,0,1,1.86-1.14c1.74-.13,2.29-1.73,3-3,.36-.63.51-1.36-.21-1.84s-1.28-.09-1.81.35-.79.78-1.23,1.1-.93.19-1-.43a1.71,1.71,0,0,1,.07-.71c.5-1.6,1-3.19,1.49-4.79.23-.76-1.35-1.54-2.21-.56A5,5,0,0,0,128.92,4c0,1.33-.19,2.67-.34,4,0,.17-.28.53-.5.47-.57-.15-.36-1.2-.4-1.51-.45-3.87-5.15-3.07-3.65-1s2.39,4.38-.68,5.59c-.91.36-3.41,1.53-3.86,3a.88.88,0,0,0,.6,1.22c.59.18.93-.15,1.16-.64a5.5,5.5,0,0,1,.7-1.44,3.57,3.57,0,0,1,1.26-.58,4.53,4.53,0,0,1,0,1.1c-.2,1,.41,1.63,1.43,1.34.2,0,.38-.18.57-.21s.45,0,.54.07a.53.53,0,0,1,0,.53,3.35,3.35,0,0,1-.76.79c-1.77,1.28-3.57,2.53-5.34,3.81-1.35,1-2.7,1.94-4,2.91-1.18.84-1.67.49-2.48.85a2.69,2.69,0,0,0-1.55,3.28c.81,2.3,3.47-1.23,4.63-2.35,3.08-3,4.78-3.88,5.59-4.14a.38.38,0,0,1,.48.43.86.86,0,0,1-.11.33c-.29.46-.69.85-1,1.29-.75,1.07-.63,1.74.49,2.42a1.39,1.39,0,0,1,.8,1.46,1.31,1.31,0,0,0,.81,1.38c.67.33.7.7,0,1.09-1.17.7-2.1,1.48-1.73,3-.8,0-1-.46-1.12-1s-.08-.86-.2-1.27-.2-.74-.51-.78-.56.34-.66.58c-.37.83-1.75,4.41-1,6.53a1.38,1.38,0,0,0,.92.85,1.39,1.39,0,0,0,1-.71c.55-1.06,1-2.18,1.49-3.26a.81.81,0,0,1,.66-.37,1.77,1.77,0,0,0,1.8-.56c1.7-1.49,2.45-1.17,2.46-1.08a18.36,18.36,0,0,1,.11,3.31c-.1,1-.41,1-1.37.77-.33-.08-.9-.12-1,.09-.55.92.67,2.89,1.25,3.69a1.56,1.56,0,0,0,2.45.25,4.42,4.42,0,0,0,1.33-2.09,36.42,36.42,0,0,0,.4-4.07c0-.29.16-.69.36-.78s.61.1.8.29a9.1,9.1,0,0,1,1.06,1.33A31,31,0,0,0,133.63,37a1.49,1.49,0,0,0,2.17.18,1.45,1.45,0,0,0,.45-2.1c-.34-.6-.72-1.17-1.11-1.74a5.23,5.23,0,0,0-4.78-2.72,1.14,1.14,0,0,1,.2-2.11c.66-.34,1.39-.55,2-.89.45-.24,1.15-.6,1.16-.92a1.8,1.8,0,0,0-.77-1.46c-.94-.44-1.45-.95-1.29-2a.58.58,0,0,0-.21-.45c-1-.73-.72-1.61-.39-2.53.38-1.07.53-2.08-.56-2.95a.79.79,0,0,1,.19-1.37,6.1,6.1,0,0,1,1.34-.58c1.58-.47,3.17-.88,4.75-1.34C138,13.74,138.76,10.08,135.92,11.85Zm-4.95-2c-.57,1-.9.23-.66-.54C130.91,7.48,131.44,9.05,131,9.89Zm-4,10.32a1.39,1.39,0,0,1-1.09.68c-.6-.1-.55-.65-.33-1.16.53-1.22,1.06-1.64,2-1.45A9.35,9.35,0,0,1,127,20.21Z"/><path class="cls-1" d="M5.44,45.69H7.12v8.62H5.44l-3.76-6v6H0V45.69H1.68l3.76,6Z"/><path class="cls-1" d="M12.69,54.4a4.06,4.06,0,0,1-3-1.25,4.66,4.66,0,0,1,0-6.31,4.1,4.1,0,0,1,3-1.25,4.05,4.05,0,0,1,3,1.25,4.66,4.66,0,0,1,0,6.31A4.06,4.06,0,0,1,12.69,54.4ZM14.52,52a3.31,3.31,0,0,0,0-4.1,2.4,2.4,0,0,0-1.83-.76,2.4,2.4,0,0,0-1.84.77,3.3,3.3,0,0,0,0,4.09,2.4,2.4,0,0,0,1.84.77A2.38,2.38,0,0,0,14.52,52Z"/><path class="cls-1" d="M19.94,50.89v3.42H18.26V45.72h3.06a3.07,3.07,0,0,1,2.22.74,2.45,2.45,0,0,1,.78,1.84,2.66,2.66,0,0,1-.48,1.52,2.47,2.47,0,0,1-1.5,1l2.12,3.53h-2l-2-3.42Zm0-3.84v2.51h1.38a1.3,1.3,0,0,0,1-.34,1.26,1.26,0,0,0,.33-.92,1.28,1.28,0,0,0-.33-.92,1.34,1.34,0,0,0-1-.33Z"/><path class="cls-1" d="M25.5,47.05V45.72h6.15v1.33H29.4v7.26H27.74V47.05Z"/><path class="cls-1" d="M38.19,45.72h1.68v8.59H38.19V50.63H34.62v3.68H32.94V45.72h1.68V49.3h3.57Z"/><path class="cls-1" d="M46.45,45.69V47H43.33v2.26h2.76V50.6H43.33V53h3.12v1.33h-4.8V45.69Z"/><path class="cls-1" d="M53.62,54.31l-.54-1.61H49.84l-.53,1.61H47.53l2.94-8.62h2l2.93,8.62Zm-3.34-2.94h2.37l-1.19-3.59Z"/><path class="cls-1" d="M59.25,47a1.21,1.21,0,0,0-.82.27.9.9,0,0,0-.31.73,1,1,0,0,0,.23.73,1.4,1.4,0,0,0,.61.41,6,6,0,0,0,.84.25l.9.27a4.25,4.25,0,0,1,.83.4,1.64,1.64,0,0,1,.62.68,2.44,2.44,0,0,1,.23,1.09,2.37,2.37,0,0,1-.82,1.82,3,3,0,0,1-2.16.77,3.44,3.44,0,0,1-2.19-.66,2.24,2.24,0,0,1-.83-1.85h1.78A1.11,1.11,0,0,0,59.41,53a1.26,1.26,0,0,0,.91-.31,1.06,1.06,0,0,0,.33-.82.89.89,0,0,0-.44-.8,3.2,3.2,0,0,0-1.06-.45q-.63-.15-1.26-.36a2.24,2.24,0,0,1-1.07-.73,2.09,2.09,0,0,1-.44-1.38,2.35,2.35,0,0,1,.82-1.88,3.18,3.18,0,0,1,2.11-.7,3.34,3.34,0,0,1,2.08.61,2.43,2.43,0,0,1,.86,1.86H60.41a1.23,1.23,0,0,0-.35-.79A1.16,1.16,0,0,0,59.25,47Z"/><path class="cls-1" d="M63.5,47.05V45.72h6.15v1.33H67.4v7.26H65.74V47.05Z"/><path class="cls-1" d="M74.51,54.31V45.72h5.14v1.33H76.19V49.3h2.64v1.33H76.19v3.68Z"/><path class="cls-1" d="M84.76,54.4a4.1,4.1,0,0,1-3-1.25,4.68,4.68,0,0,1,0-6.31,4.27,4.27,0,0,1,6,0,4.66,4.66,0,0,1,0,6.31A4.07,4.07,0,0,1,84.76,54.4ZM86.59,52a3.35,3.35,0,0,0,0-4.1,2.58,2.58,0,0,0-3.67,0,3.3,3.3,0,0,0,0,4.09,2.57,2.57,0,0,0,3.67,0Z"/><path class="cls-1" d="M92,50.89v3.42H90.33V45.72h3.06a3.07,3.07,0,0,1,2.22.74,2.45,2.45,0,0,1,.78,1.84,2.66,2.66,0,0,1-.48,1.52,2.47,2.47,0,0,1-1.5,1l2.12,3.53h-2l-2-3.42Zm0-3.84v2.51h1.38a1.26,1.26,0,0,0,1-.34,1.23,1.23,0,0,0,.34-.92,1.25,1.25,0,0,0-.34-.92,1.3,1.3,0,0,0-1-.33Z"/><path class="cls-1" d="M102.85,45.69V47H99.73v2.26h2.77V50.6H99.73V53h3.12v1.33H98.06V45.69Z"/><path class="cls-1" d="M107.26,47a1.21,1.21,0,0,0-.82.27.9.9,0,0,0-.31.73,1,1,0,0,0,.23.73,1.4,1.4,0,0,0,.61.41,6,6,0,0,0,.84.25l.9.27a4.25,4.25,0,0,1,.83.4,1.64,1.64,0,0,1,.62.68,2.44,2.44,0,0,1,.23,1.09,2.37,2.37,0,0,1-.82,1.82,3,3,0,0,1-2.16.77,3.44,3.44,0,0,1-2.19-.66,2.24,2.24,0,0,1-.83-1.85h1.78A1.11,1.11,0,0,0,107.42,53a1.26,1.26,0,0,0,.91-.31,1.06,1.06,0,0,0,.33-.82.89.89,0,0,0-.44-.8,3.2,3.2,0,0,0-1.06-.45q-.63-.15-1.26-.36a2.24,2.24,0,0,1-1.07-.73,2.09,2.09,0,0,1-.44-1.38,2.35,2.35,0,0,1,.82-1.88,3.18,3.18,0,0,1,2.11-.7,3.34,3.34,0,0,1,2.08.61,2.43,2.43,0,0,1,.86,1.86h-1.84a1.23,1.23,0,0,0-.35-.79A1.16,1.16,0,0,0,107.26,47Z"/><path class="cls-1" d="M111.51,47.05V45.72h6.15v1.33h-2.25v7.26h-1.66V47.05Z"/><path class="cls-1" d="M120.63,50.89v3.42H119V45.72H122a3.07,3.07,0,0,1,2.22.74A2.45,2.45,0,0,1,125,48.3a2.66,2.66,0,0,1-.48,1.52,2.53,2.53,0,0,1-1.5,1l2.12,3.53h-2l-2-3.42Zm0-3.84v2.51H122a1.18,1.18,0,0,0,1.3-1.26,1.29,1.29,0,0,0-.34-.92,1.3,1.3,0,0,0-1-.33Z"/><path class="cls-1" d="M130.45,54.31h-1.68v-3L126,45.72h1.88l1.77,4.05,1.77-4.05h1.88l-2.81,5.64Z"/><path class="cls-1" d="M137.88,51V45.72h1.67V51a1.86,1.86,0,0,0,.44,1.34,1.61,1.61,0,0,0,1.24.46,1.63,1.63,0,0,0,1.25-.46,1.82,1.82,0,0,0,.44-1.34V45.72h1.67V51a3.18,3.18,0,0,1-1,2.51,3.52,3.52,0,0,1-2.4.88,3.33,3.33,0,0,1-2.37-.88A3.21,3.21,0,0,1,137.88,51Z"/><path class="cls-1" d="M151.78,45.69h1.68v8.62h-1.68l-3.76-6v6h-1.68V45.69H148l3.76,6Z"/><path class="cls-1" d="M155.24,54.31V45.72h1.68v8.59Z"/><path class="cls-1" d="M161,54.31l-3-8.59h1.78L162,52.58l2.27-6.86h1.79L163,54.31Z"/><path class="cls-1" d="M172,45.69V47h-3.12v2.26h2.76V50.6h-2.76V53H172v1.33h-4.8V45.69Z"/><path class="cls-1" d="M175.34,50.89v3.42h-1.68V45.72h3.06a3.07,3.07,0,0,1,2.22.74,2.45,2.45,0,0,1,.78,1.84,2.66,2.66,0,0,1-.48,1.52,2.47,2.47,0,0,1-1.5,1l2.12,3.53h-2l-2-3.42Zm0-3.84v2.51h1.38a1.26,1.26,0,0,0,1-.34,1.23,1.23,0,0,0,.34-.92,1.25,1.25,0,0,0-.34-.92,1.3,1.3,0,0,0-1-.33Z"/><path class="cls-1" d="M184.08,47a1.21,1.21,0,0,0-.82.27A.9.9,0,0,0,183,48a1,1,0,0,0,.23.73,1.4,1.4,0,0,0,.61.41,5.81,5.81,0,0,0,.83.25c.31.08.61.17.91.27a4.25,4.25,0,0,1,.83.4,1.56,1.56,0,0,1,.61.68,2.31,2.31,0,0,1,.24,1.09,2.37,2.37,0,0,1-.82,1.82,3,3,0,0,1-2.17.77,3.41,3.41,0,0,1-2.18-.66,2.22,2.22,0,0,1-.83-1.85H183A1.11,1.11,0,0,0,184.24,53a1.27,1.27,0,0,0,.91-.31,1.06,1.06,0,0,0,.33-.82.91.91,0,0,0-.44-.8,3.17,3.17,0,0,0-1.07-.45c-.41-.1-.83-.22-1.25-.36a2.24,2.24,0,0,1-1.07-.73,2,2,0,0,1-.44-1.38,2.35,2.35,0,0,1,.82-1.88,3.18,3.18,0,0,1,2.11-.7,3.36,3.36,0,0,1,2.08.61,2.43,2.43,0,0,1,.86,1.86h-1.84a1.23,1.23,0,0,0-.35-.79A1.16,1.16,0,0,0,184.08,47Z"/><path class="cls-1" d="M188.81,54.31V45.72h1.68v8.59Z"/><path class="cls-1" d="M191.79,47.05V45.72h6.15v1.33h-2.25v7.26H194V47.05Z"/><path class="cls-1" d="M203,54.31h-1.67v-3l-2.81-5.64h1.88l1.77,4.05,1.76-4.05h1.88L203,51.36Z"/></g></g></svg>