<svg id="图层_1" data-name="图层 1" xmlns="http://www.w3.org/2000/svg" viewBox="0 0 190.51 57.48"><defs><style>.cls-1{fill-rule:evenodd;}</style></defs><g id="图层_2" data-name="图层 2"><g id="图层_1-2" data-name="图层 1-2"><path class="cls-1" d="M76.92,25.36a2.37,2.37,0,0,1-.3.62c-.87,1-1.79,2-2.63,3a7.86,7.86,0,0,0-1.57,2.79,1.86,1.86,0,0,0,1.14,2.37,1.62,1.62,0,0,0,.65.11.63.63,0,0,0,.45-.18,11.4,11.4,0,0,0,1.16-1.53c.76-1.31,1.45-2.65,2.18-4a.57.57,0,0,1,.35-.28.44.44,0,0,1,.29.29,7,7,0,0,1,.17,1.51c0,1-.14,1.91-.14,2.86a2.27,2.27,0,0,0,1,2,1,1,0,0,0,1.27-.1,3.48,3.48,0,0,0,.94-1.5,9.48,9.48,0,0,0,.35-3.39c0-1.54-.09-3.07-.08-4.61a3.82,3.82,0,0,1,1.22-3c1-.85,1.82-1.81,2.71-2.73a29.41,29.41,0,0,1,3.62-3.44,14.13,14.13,0,0,1,1.41-.8c.21-.12.33,0,.38.2a3.35,3.35,0,0,1,.13.77c0,1.26-.09,2.52-.13,3.78a2.64,2.64,0,0,1-2.14,2.58c-.45.14-.92.23-1.39.33-.88.18-1.78.32-2.65.53A2.09,2.09,0,0,0,84,24.6a3,3,0,0,0,1.35,3.73c.29.13.55.13.71-.15a6,6,0,0,0,.56-1.2,1.72,1.72,0,0,1,1.16-1.32,2.8,2.8,0,0,0,1.73-1.41,1.6,1.6,0,0,1,.28-.35,2.18,2.18,0,0,1,.49-.37c.66-.31,1.1,0,1.12.67v1.63a2,2,0,0,1-1.14,2A.62.62,0,0,0,90,28a1.72,1.72,0,0,0-.28.47,6.42,6.42,0,0,0,.13,2.69A3.11,3.11,0,0,0,90.94,33a.3.3,0,0,0,.43,0,4,4,0,0,0,1.17-1.29,6.45,6.45,0,0,0,.71-2.46c.12-1,.18-2,.33-3a18.91,18.91,0,0,0,.35-3.27,2.26,2.26,0,0,1,.29-.91.49.49,0,0,1,.33-.22c.64-.15,1.08.19,1.12.91v1.44a.61.61,0,0,0,0,.27,1,1,0,0,0,1.34.46l.12-.07a2.12,2.12,0,0,0,.55-.39,4.08,4.08,0,0,0,1.14-2.13,1.2,1.2,0,0,0-.57-1.37,2.07,2.07,0,0,0-1-.35,23.3,23.3,0,0,0-2.51.09.81.81,0,0,1-.91-.58,1.23,1.23,0,0,1-.08-.38,25.09,25.09,0,0,1,.08-2.6A15.12,15.12,0,0,1,95,12.73,2,2,0,0,1,95.6,12,43.06,43.06,0,0,1,100,9.11a2,2,0,0,0,1.09-1.24.71.71,0,0,0-.58-.83h-.18a5.69,5.69,0,0,0-1.86,1,5.9,5.9,0,0,1-1.09.56.61.61,0,0,1-.8-.3.78.78,0,0,1,0-.14,5,5,0,0,1-.14-.86,1.6,1.6,0,0,0-.54-1.36,3,3,0,0,1-.25-.25.51.51,0,0,0-.73-.09l-.09.09a5.77,5.77,0,0,0-2.16,5.25,1.79,1.79,0,0,1-.48,1.56,6.8,6.8,0,0,1-1,.85A13.32,13.32,0,0,0,89,15.2c-.77.82-1.56,1.62-2.36,2.4a14.16,14.16,0,0,1-2.92,2.24c-.46.25-.82.12-.9-.38a1.48,1.48,0,0,1,0-.42c.12-.76.25-1.52.38-2.28.3-1.74.65-3.48.9-5.23a11.72,11.72,0,0,0,.08-2.44c0-.69-.61-1-1.18-1.22-.42-.19-.63.17-.9.34a1,1,0,0,0-.48.87A19.67,19.67,0,0,1,81,13.19a5.16,5.16,0,0,1-1.69,3c-.45.37-.86.8-1.31,1.17a28.34,28.34,0,0,1-4.8,3.57,3.58,3.58,0,0,0-.56.4,1.24,1.24,0,0,0-.43,1.54A5.41,5.41,0,0,0,74,25.22a.82.82,0,0,0,.45.14Z"/><path class="cls-1" d="M155.16,15.84c-.31-.47-.61-.93-.93-1.37a4,4,0,0,0-.64-.66,2.18,2.18,0,0,0-2.36-.21,13.16,13.16,0,0,1-1.35.55A1.2,1.2,0,0,1,148.22,13a8.16,8.16,0,0,0-.07-1.31,12.38,12.38,0,0,0-.3-2,1.47,1.47,0,0,0-1.3-1.12.65.65,0,0,0-.38.09A2.75,2.75,0,0,0,145,10.54a33.2,33.2,0,0,0-.44,4.56,1,1,0,0,1-.18.57,3,3,0,0,1-1.35,1.1c-.89.38-1.81.71-2.71,1.06s-1.71.63-2.52,1a1.28,1.28,0,0,0-.75,1.65,1.26,1.26,0,0,0,.13.26,5.56,5.56,0,0,0,2.7,2.75,1.38,1.38,0,0,0,1.45-.11c.21-.16.42-.3.63-.44a10.07,10.07,0,0,1,1-.47c.22-.1.29,0,.33.23a2.83,2.83,0,0,1-.33,1.64,9,9,0,0,1-1.62,2.35,23.13,23.13,0,0,1-3.07,3.11c-.41.31-.88.54-1.32.81a2.71,2.71,0,0,0-1.14,1.06c-.24.47-.2.64.19,1a2.58,2.58,0,0,0,1.59.59,3.78,3.78,0,0,0,3.07-1.32,22.43,22.43,0,0,0,2.72-3.79c.38-.62.69-1.28,1-1.92a2.7,2.7,0,0,1,.89-1.09c.34-.22.55-.22.79.09.53.68,1,1.35,1.53,2.06.73,1.05,1.39,2.15,2.14,3.19a5.16,5.16,0,0,0,2.58,2,8.12,8.12,0,0,0,4.12.24,3.1,3.1,0,0,0,2-1.14,1.14,1.14,0,0,0,.17-1.21,2.54,2.54,0,0,0-2.09-1.74c-.89-.1-1.79-.09-2.68-.13a2,2,0,0,1-.47-.06A6.58,6.58,0,0,1,149.72,26c-.8-1.14-1.5-2.36-2.23-3.55a2.42,2.42,0,0,1-.23-.58,1.43,1.43,0,0,1,.36-1.56,4.24,4.24,0,0,1,.88-.7c.68-.37,1.38-.7,2.08-1,1.09-.52,2.19-1,3.27-1.56A3.49,3.49,0,0,0,155.16,15.84Z"/><path class="cls-1" d="M37.74,23.93c.08.55.13,1,.23,1.5a.79.79,0,0,0,1.28.47c.36-.28.71-.59,1.06-.88a5.36,5.36,0,0,1,2.53-1.34.44.44,0,0,1,.38.15,3.26,3.26,0,0,1,0,4.18,8.73,8.73,0,0,1-1.78,1.65A7.42,7.42,0,0,1,38,31.25a1.39,1.39,0,0,0-.72.44,2.84,2.84,0,0,0,0,3.57,1.89,1.89,0,0,0,2.28.6,4.58,4.58,0,0,0,1.12-.58A23.82,23.82,0,0,0,43,33.38a3.14,3.14,0,0,1,2.22-1h.33c1-.08,1.54-.42,1.73-1.43a18.81,18.81,0,0,0,.28-3c0-1.07,0-2.13-.06-3.19a10.45,10.45,0,0,1,.5-3.64c.43-1.28.77-2.59,1.15-3.89a3.5,3.5,0,0,0-.75-3.72c-.7-.73-1.29-1.54-2-2.3a3.57,3.57,0,0,0-2-1.35.77.77,0,0,0-.86.66.62.62,0,0,0,0,.13c.13.74.27,1.47.39,2.21a17.52,17.52,0,0,1,.4,4.39c-.09,1.23-.58,1.87-1.64,2.07a4.52,4.52,0,0,1-.75.09,3.81,3.81,0,0,0-3.83,3C38,22.91,37.84,23.42,37.74,23.93Z"/><path class="cls-1" d="M50.49,29.27a5.19,5.19,0,0,0,.11,1,4,4,0,0,0,3.2,3.64,2.19,2.19,0,0,0,2.74-1.23,3.93,3.93,0,0,0,.3-.66,3.53,3.53,0,0,1,2.27-2.22,10.65,10.65,0,0,0,1.65-.74A2.31,2.31,0,0,0,62,27a.73.73,0,0,0-.19-.48,3.05,3.05,0,0,0-2.17-.92c-.64-.06-1.28-.08-1.92-.15a1.92,1.92,0,0,1-1.8-1.5,7.44,7.44,0,0,1,0-4.08c.35-1.15.84-2.26,1.19-3.41q.93-3,1.77-6a2.68,2.68,0,0,0,0-1.26,4.87,4.87,0,0,0-3.37-3.62,1.61,1.61,0,0,0-1.92.31.67.67,0,0,0-.23.62c.1.44.2.87.32,1.3a9.11,9.11,0,0,1,.37,1.36,19.81,19.81,0,0,1-.23,5.49c-.07.44-.26.86.08,1.28v.17a15.24,15.24,0,0,1-.51,3.14c-.81,2.39-1.55,4.82-2.34,7.22A10.47,10.47,0,0,0,50.49,29.27Z"/><path class="cls-1" d="M65.55,23.11h.1a7.86,7.86,0,0,0-.54-1.47,7.37,7.37,0,0,0-3.72-3.2,1.22,1.22,0,0,0-1.32.14c-.76.58-.76.69-.33,1.38a9.81,9.81,0,0,0,1.39,1.75c.87.89,1.82,1.7,2.69,2.59a.85.85,0,0,0,1,.22A1.37,1.37,0,0,0,65.55,23.11Z"/><path class="cls-1" d="M177.85,17.38c-1,.21-2.09.36-3.13.67-1.84.54-3.65,1.17-5.47,1.77a1.33,1.33,0,0,1-.24.11,2.3,2.3,0,0,0-1.68,2,11.67,11.67,0,0,1-.5,1.75,2.41,2.41,0,0,1-.21.5,1.34,1.34,0,0,1-1.7.86h0a1.53,1.53,0,0,1-1.3-1.55,6.45,6.45,0,0,1,.55-2.6c.33-.82.68-1.64,1.08-2.43a13.28,13.28,0,0,0,1.35-3.55,1.77,1.77,0,0,1,1.23-1.51,5.84,5.84,0,0,1,.27,1.17v2.21c0,.74.2.88.56.89s.53-.33.55-.89c.06-2,.15-4,.2-6.07,0-.64-.09-1.28-.14-2-.42.17-.74.28-1,.41a.58.58,0,0,1-.79-.21l0-.05a1.62,1.62,0,0,1,.5-2.24,1.68,1.68,0,0,1,.3-.15,1.31,1.31,0,0,1,1.31.29,5,5,0,0,1,2.11,3.5,31.56,31.56,0,0,1,0,3.89v2c0,.27.16.33.38.35a.92.92,0,0,0,1.07-.74.76.76,0,0,0,0-.26c-.19-1.59-.42-3.17-.61-4.75a16.53,16.53,0,0,1,0-5.7,3.82,3.82,0,0,1,1.22-2.18.66.66,0,0,1,.51-.1,1.39,1.39,0,0,1,1.05,1.47c0,.72-.13,1.43-.2,2.15a3.41,3.41,0,0,0,.14,1.87,1.27,1.27,0,0,0,1.08-1.08c.15-.72.18-1.46.28-2.19a8,8,0,0,1,.25-1.28c.23-.67.65-.79,1.25-.41a1.53,1.53,0,0,1,.7,1.29,11.93,11.93,0,0,0,.09,1.79,8,8,0,0,0,.16.85c.39-.16.73-.29,1-.45.78-.38,1.53-.8,2.31-1.16a4.31,4.31,0,0,1,1.22-.32,1.36,1.36,0,0,1,1.49.88,2.52,2.52,0,0,1,.07,2.21c-.3.7-.65,1.38-1,2.06A7.1,7.1,0,0,0,183.2,13c-.06.57,0,.8.49,1a.86.86,0,0,0,.55,0c.82-.22,1.62-.49,2.45-.67a6.11,6.11,0,0,1,1.48,0,1.83,1.83,0,0,1,1.29.74,4.55,4.55,0,0,1,.92,4,2.67,2.67,0,0,1-.23.59c-.49.92-.86,1.06-1.71.49a5.12,5.12,0,0,0-3.81-.57,10.78,10.78,0,0,0-2.07.57A2.46,2.46,0,0,0,181,20.54c-.16.52-.36,1-.55,1.56a2.3,2.3,0,0,1-1.32,1.41,11.5,11.5,0,0,0-1,.6,2.19,2.19,0,0,0,1.76.8,7.4,7.4,0,0,0,1.49-.28c.51-.12,1-.29,1.51-.41a1.83,1.83,0,0,1,1.64.37A4.69,4.69,0,0,1,186.12,27,1.4,1.4,0,0,1,185,28.67a1.35,1.35,0,0,1-.35,0c-.43-.08-.84-.21-1.27-.31a11.45,11.45,0,0,0-1.2-.23,1.22,1.22,0,0,0-1.43.93,19.07,19.07,0,0,0-.6,2.59c-.21,1.25-.28,2.53-.54,3.77a6,6,0,0,1-4.74,4.39,3.73,3.73,0,0,1-3.23-1,32.59,32.59,0,0,1-2.27-2.69,2.92,2.92,0,0,1-.35-.76c-.14-.41,0-.67.44-.7a2.83,2.83,0,0,1,1.12.13c.79.26,1.54.62,2.33.88a1.75,1.75,0,0,0,2.37-.69,1.89,1.89,0,0,0,.09-.21,6.27,6.27,0,0,0,.95-4.34c-.12-.74-.2-.82-.94-.65a14.32,14.32,0,0,0-2.55.75,3.6,3.6,0,0,1-4.37-.85,3.39,3.39,0,0,1-.31-.34,1.26,1.26,0,0,1-.12-1.78l0-.06a4,4,0,0,1,3.46-1.79,7.72,7.72,0,0,0,1.91-.33,1.08,1.08,0,0,0,.63-1.39,1.19,1.19,0,0,0-.25-.38.9.9,0,0,0-.48-.17c-.66,0-1.32.1-2,.15a2.18,2.18,0,0,1-2.13-1.19.36.36,0,0,1,0-.48h0a4.38,4.38,0,0,1,2-1.12c1.3-.36,2.63-.66,3.93-1a5.07,5.07,0,0,0,2.63-1.46.6.6,0,0,0,.12-.84Zm.39-8.94c-.55.46-.69.86-.54,1.24a3.42,3.42,0,0,1,0,2.4c-.2.64-.38,1.3-.55,1.95a.56.56,0,0,0,0,.36.93.93,0,0,0,1,.42.92.92,0,0,0,.86-.88c-.07-1.27-.13-2.54-.27-3.8A9.1,9.1,0,0,0,178.24,8.44Zm-1.64,15c.11-.27.25-.45.22-.59a7.78,7.78,0,0,0-.39-1.15h-.15c-.44,0-.57.36-.76.64s0,.42.17.56.55.27.91.5Zm4.2-13.34c.36,0,.71-.06.73-.47a1.29,1.29,0,0,0-.19-.63,1.05,1.05,0,0,0-.43.08c-.34.24-.26.6-.11,1Zm.88,6.37-.16.1c.08.16.1.41.23.48a.33.33,0,0,0,.46-.09.3.3,0,0,0,0-.15c0-.46-.39-.25-.58-.38Z"/><path class="cls-1" d="M114.1,32.17c-.2.59-.36,1.15-.57,1.69a6.79,6.79,0,0,1-1.43,2.43.58.58,0,0,1-.78.13,1.73,1.73,0,0,1-.93-1.49A9.86,9.86,0,0,1,111.76,29a2.56,2.56,0,0,1,.2-.26l.14-.13c.52.1.65.45.7.91a7.74,7.74,0,0,0,.26,1.34,1,1,0,0,0,.8.73v-.42a2.33,2.33,0,0,1,1-2,8.61,8.61,0,0,0,.92-.78c.25-.24.22-.5-.1-.61a1.18,1.18,0,0,1-.85-1.43v0A1.45,1.45,0,0,0,114,24.8q-.24-.15-.48-.33a1.09,1.09,0,0,1-.2-1.53v0c.27-.38.58-.74.86-1.13a3.21,3.21,0,0,0,.37-.65c.24-.53,0-.82-.55-.75a2.38,2.38,0,0,0-.71.24,1.83,1.83,0,0,0-.54.38,5.26,5.26,0,0,1-2.42,1.49,2,2,0,0,0-1.09,1.16,12.22,12.22,0,0,1-3.17,3.8c-.17.15-.35.28-.52.42a1.78,1.78,0,0,1-1-2,5.56,5.56,0,0,1,.34-1.07,1.48,1.48,0,0,1,.81-.8c1.13-.5,2.26-1,3.37-1.56a5.13,5.13,0,0,0,1.24-.82,33.15,33.15,0,0,1,6.2-5,3,3,0,0,0,.4-.3l.67-.57c.18-.16.41-.36.21-.58s-.39-.09-.59-.08a2.9,2.9,0,0,0-.47.16,1,1,0,0,1-1.3-.54,1,1,0,0,1-.08-.46,4.74,4.74,0,0,1,.06-.92c.06-.31-.22-.58-.52-.31a6.67,6.67,0,0,0-1,1.12c-.28.4-.49.84-.76,1.25a.48.48,0,0,1-.62.17,1.15,1.15,0,0,1-.58-1.52l.06-.12A4.57,4.57,0,0,1,114,12c.58-.32,1.17-.65,1.73-1a7.81,7.81,0,0,0,1.15-.83,1.75,1.75,0,0,0,.51-2.33,16.33,16.33,0,0,0-1.53-2.17.75.75,0,0,1,0-1.06l0,0a4.46,4.46,0,0,1,.42-.34.9.9,0,0,1,1.12,0c.43.31.9.56,1.32.87a2,2,0,0,1,.89,1.84A6.52,6.52,0,0,0,119.68,8a2.55,2.55,0,0,0,.18.53c.18-.21.35-.33.39-.49a15.41,15.41,0,0,0,.52-2.31c.1-.92,0-1.87.11-2.79A4.39,4.39,0,0,1,122.5.12a.77.77,0,0,1,1,.15,1.64,1.64,0,0,1,.31,1.82c-.32.88-.66,1.74-1,2.62a4.9,4.9,0,0,0-.35,2.48,1.22,1.22,0,0,0,1.08-.3,6.26,6.26,0,0,0,1.12-1,.91.91,0,0,1,1-.28,1.11,1.11,0,0,1,.76,1,3.56,3.56,0,0,1-2,3.28,17.35,17.35,0,0,0-1.6.83,8,8,0,0,0-1.29,1.1c-.29.31-.06.72.38.75.71,0,1.42.14,2.13.13a3.72,3.72,0,0,0,1.24-.27c.68-.25,1.34-.57,2-.81a2.34,2.34,0,0,1,1.87.05,1,1,0,0,1,.36.37c.26.41.09.69-.27,1a10.32,10.32,0,0,1-3.29,1.4c-.93.28-1.88.53-2.79.86a2.89,2.89,0,0,0-1.08.75c-.34.36-.25.74.12,1.07a1.62,1.62,0,0,1,.49,2.23c-.11.29-.23.57-.33.86a1.65,1.65,0,0,0,.31,1.75,2,2,0,0,1,.69,1.83c-.06.24.09.39.34.48a2.11,2.11,0,0,1,1.49,1.61.52.52,0,0,1-.14.46c-.43.3-.89.58-1.34.84l-1.84,1a.72.72,0,0,0-.37.84,6.17,6.17,0,0,1,.07.74,17.17,17.17,0,0,1,2.12.62,6.17,6.17,0,0,1,3.78,4,1.52,1.52,0,0,1-.47,1.79c-.69.59-1.17.7-1.89.14A5.42,5.42,0,0,1,124,35.09c-.41-.61-.72-1.29-1.1-1.93-.21-.37-.47-.72-.7-1.08a.46.46,0,0,0-.57-.2.43.43,0,0,0-.35.44c-.07,1-.12,2-.23,3a7.83,7.83,0,0,1-.35,1.92,3.25,3.25,0,0,1-.84,1.26,1.55,1.55,0,0,1-2.2.15l-.06,0A4.33,4.33,0,0,1,116,35a.59.59,0,0,1,.59-.59.54.54,0,0,1,.22,0c1.7.47,1.42.21,1.57-1a10.45,10.45,0,0,0-.06-2.37c0-.53-.27-.63-.75-.42a2.55,2.55,0,0,0-.91.57A2.67,2.67,0,0,1,114.1,32.17Zm5.24-14.35c-.28,0-.62,0-.73.15a18.27,18.27,0,0,0-1.12,1.73.58.58,0,0,0,0,.41.43.43,0,0,0,.55.25c.34-.1.68-.21.78-.6C119,19.14,119.17,18.52,119.34,17.82Zm3.78-8.77a1.87,1.87,0,0,0-.38-.55c-.28-.2-.5,0-.69.24a1.13,1.13,0,0,0-.12,1.29c.11.16.33.34.48.32a.74.74,0,0,0,.45-.4A4.64,4.64,0,0,0,123.12,9.05Z"/><path class="cls-1" d="M16.22,1c.38.15.76.28,1.14.44a3,3,0,0,1,2,2.09A4.27,4.27,0,0,1,19.3,5c-.09.66-.31,1.3-.36,2s.25,1,1,.87A8.22,8.22,0,0,0,21,7.74a1,1,0,0,1,1.2.69c.11.3-.06.47-.22.63-.61.57-1.27,1.1-1.88,1.68a19.27,19.27,0,0,0-1.53,1.6,2,2,0,0,0-.35,1.86c.08.25.21.33.44.25.41-.14.82-.31,1.23-.45a9.69,9.69,0,0,1,1.89-.61,3.62,3.62,0,0,1,3.77,2,9,9,0,0,1,.78,2,1.63,1.63,0,0,1-.35,1.7,21,21,0,0,1-2.21,2c-1.05.78-2.18,1.46-3.29,2.16a6.89,6.89,0,0,1-1,.44.72.72,0,0,0-.53.82v.64a1.29,1.29,0,0,1-.84,1.43,11.06,11.06,0,0,1-1.36.61.6.6,0,0,0-.43.56c-.05.66-.11,1.32-.15,2a.34.34,0,0,0,.29.37h.08A22.08,22.08,0,0,0,19,29.93a5.46,5.46,0,0,1,6.18,4,3.64,3.64,0,0,1-1.58,4,.49.49,0,0,1-.41,0A6.81,6.81,0,0,1,22,37.11c-.74-.71-1.41-1.5-2.16-2.2a9.36,9.36,0,0,0-1.6-1.19,2.24,2.24,0,0,0-1.86-.16.49.49,0,0,0-.39.55c0,1.61.09,3.22.08,4.83a5.43,5.43,0,0,1-.67,2.67,2,2,0,0,1-2.62,1l-.23-.11a7.32,7.32,0,0,1-3.45-3.62c-.11-.25-.06-.44.2-.49q.64-.11,1.29-.15h.6a1.18,1.18,0,0,0,1.32-1v-.06a12.2,12.2,0,0,0,.36-3.9,10.52,10.52,0,0,0-.3-1.1,3.1,3.1,0,0,1-.07-.86,4.06,4.06,0,0,1,.35-.87,3,3,0,0,0,.13-2,.42.42,0,0,0-.31-.31,12.26,12.26,0,0,0-1.48.1,6,6,0,0,0-.92.18,1.33,1.33,0,0,1-1.15-.37,3.13,3.13,0,0,1,1.06-1.25c.57-.42,1.17-.81,1.75-1.23a3.22,3.22,0,0,0,1.44-3.5,1.58,1.58,0,0,0-1.53.28c-.49.37-.94.82-1.4,1.24a.64.64,0,0,1-.91.1l0,0c-.44-.37-.56-.76-.22-1.1A15,15,0,0,1,11,21.14c.62-.46,1.3-.82,1.93-1.26a3.85,3.85,0,0,0,.79-.77A2.52,2.52,0,0,0,14,18.4c-.94-.06-1.73.46-2.66,0,.31-.32.57-.61.86-.87a13.59,13.59,0,0,0,1.14-1,2.62,2.62,0,0,0,.48-.94c.12-.39-.12-.61-.52-.54-1.2.22-2.4.47-3.61.64a3.5,3.5,0,0,1-2.34-.48.55.55,0,0,1-.3-.72.64.64,0,0,1,.13-.19,13.09,13.09,0,0,1,1.69-1.47c1.16-.76,2.38-1.44,3.58-2.16.24-.15.47-.32.72-.46A3.74,3.74,0,0,0,15,6.93a11.39,11.39,0,0,0-.33-4.19c-.27-.85.08-1.39,1-1.76Zm2.26,19.57c.19-.06.37-.06.46-.16A4.24,4.24,0,0,0,20.41,17a.56.56,0,0,0-.09-.31,1.41,1.41,0,0,0-1.45-.49,1.44,1.44,0,0,0-1,2.33,2.71,2.71,0,0,1,.5,1.42C18.4,20.16,18.44,20.37,18.48,20.57Z"/><path class="cls-1" d="M5.68,19.56a3.15,3.15,0,0,1,1,2.14A20.25,20.25,0,0,0,8.2,26.57a19.54,19.54,0,0,1,1,3.06,3,3,0,0,1-.46,2.57.83.83,0,0,1-1.18.12l0,0a5.76,5.76,0,0,1-1.76-3.46A25.56,25.56,0,0,1,5,23.41a7.84,7.84,0,0,1,.46-3.36A2.21,2.21,0,0,1,5.68,19.56Z"/><path class="cls-1" d="M0,39.42A5.05,5.05,0,0,1,1.5,36.36a.45.45,0,0,1,.43-.08,1.92,1.92,0,0,1,.64.69,1.49,1.49,0,0,0,1.44,1h.38c.54.13.73.4.56.91A4.3,4.3,0,0,1,2,42,1,1,0,0,1,1,41.83,2.77,2.77,0,0,1,0,39.42Z"/><path d="M1.5,49H2.59l3,5.25.92,1.69h.06c-.06-.84-.14-1.77-.14-2.63V49h1V57.3H6.35L3.35,52l-.9-1.72h0c0,.84.12,1.73.12,2.6V57.3h-1Z"/><path d="M9.23,53.12c0-2.67,1.46-4.29,3.55-4.29s3.56,1.62,3.56,4.29-1.47,4.34-3.56,4.34S9.23,55.79,9.23,53.12Zm6,0c0-2.09-1-3.37-2.48-3.37S10.28,51,10.28,53.12s1,3.42,2.47,3.42,2.51-1.34,2.51-3.42Z"/><path d="M22.71,57.32l-2-3.54h-1.5v3.54H18.13V49h2.62c1.69,0,2.9.6,2.9,2.34a2.26,2.26,0,0,1-1.88,2.34l2.13,3.65Zm-3.52-4.39h1.4c1.3,0,2-.52,2-1.6s-.72-1.49-2-1.49h-1.4Z"/><path d="M26.91,49.87H24.39V49h6.1v.88H28v7.45h-1.1Z"/><path d="M32,49h1v3.49h3.88V49H38v8.33H36.92V53.38H33v3.94H32Z"/><path d="M40.25,49h4.81v.88H41.31v2.62h3.16v.89H41.31v3h3.87v.9H40.25Z"/><path d="M50.75,54.77h-3l-.81,2.55H45.83L48.66,49h1.17l2.83,8.33H51.55Zm-.26-.84-.4-1.27c-.31-1-.57-1.85-.84-2.82h0c-.27,1-.54,1.87-.83,2.82L48,53.93Z"/><path d="M53.23,56.22l.62-.71a3.27,3.27,0,0,0,2.31,1c1.09,0,1.75-.54,1.75-1.36s-.6-1.13-1.39-1.48l-1.2-.52a2.23,2.23,0,0,1,.93-4.35,3.39,3.39,0,0,1,2.45,1l-.55.67a2.69,2.69,0,0,0-1.9-.78c-.94,0-1.56.48-1.56,1.23s.73,1.11,1.38,1.38l1.19.51A2.31,2.31,0,0,1,59,55.1c0,1.32-1.09,2.36-2.83,2.36A4,4,0,0,1,53.23,56.22Z"/><path d="M62.1,49.87H59.58V49h6.1v.88H63.16v7.45H62.1Z"/><path d="M69.71,49h4.81v.88H70.77v2.82H74v.89H70.77v3.74H69.71Z"/><path d="M75.38,53.12c0-2.67,1.47-4.29,3.56-4.29s3.55,1.62,3.55,4.29S81,57.46,78.94,57.46,75.38,55.79,75.38,53.12Zm6,0c0-2.09-1-3.37-2.47-3.37S76.43,51,76.43,53.12s1,3.42,2.48,3.42,2.5-1.34,2.5-3.42Z"/><path d="M88.87,57.32l-2-3.54H85.35v3.54H84.29V49H86.9c1.69,0,2.91.6,2.91,2.34a2.25,2.25,0,0,1-1.89,2.34l2.14,3.65Zm-3.52-4.39h1.39c1.31,0,2-.52,2-1.6s-.71-1.49-2-1.49H85.35Z"/><path d="M91.5,49h4.81v.88H92.56v2.62h3.16v.89H92.56v3h3.87v.9H91.5Z"/><path d="M97.58,56.22l.63-.71a3.26,3.26,0,0,0,2.3,1c1.09,0,1.75-.54,1.75-1.36s-.6-1.13-1.38-1.48l-1.21-.52a2.23,2.23,0,0,1,.93-4.35,3.43,3.43,0,0,1,2.46,1l-.56.67a2.69,2.69,0,0,0-1.9-.78c-.94,0-1.55.48-1.55,1.23s.72,1.11,1.37,1.38l1.19.51A2.31,2.31,0,0,1,103.33,55c0,1.32-1.09,2.36-2.83,2.36A4,4,0,0,1,97.58,56.22Z"/><path d="M106.45,49.87h-2.52V49H110v.88h-2.5v7.45h-1.06Z"/><path d="M116.1,57.32l-2-3.54h-1.5v3.54h-1.06V49h2.61c1.7,0,2.91.6,2.91,2.34a2.26,2.26,0,0,1-1.88,2.34l2.13,3.65Zm-3.52-4.39H114c1.31,0,2-.52,2-1.6s-.72-1.49-2-1.49h-1.39Z"/><path d="M120.09,54.08,117.59,49h1.12l1.07,2.35c.27.61.52,1.19.82,1.82h0c.3-.63.58-1.21.83-1.82L122.51,49h1.09l-2.5,5.09v3.24h-1Z"/><path d="M127.28,53.87V49h1.06v4.94c0,2,.85,2.63,1.93,2.63s2-.62,2-2.63V49h1v4.88c0,2.68-1.3,3.59-3,3.59S127.28,56.55,127.28,53.87Z"/><path d="M135.5,49h1.09l3,5.25.88,1.71h.06c-.06-.84-.14-1.77-.14-2.63V49h1v8.33h-1.08l-3-5.26-.9-1.72h0c0,.84.12,1.73.12,2.6v4.38h-1Z"/><path d="M143.71,49h1v8.33h-1Z"/><path d="M145.91,49H147l1.36,4.51c.29,1,.48,1.77.8,2.75h.05c.3-1,.51-1.77.8-2.75L151.36,49h1.07l-2.64,8.33h-1.22Z"/><path d="M153.57,49h4.8v.88h-3.75v2.62h3.16v.89h-3.16v3h3.88v.9h-4.93Z"/><path d="M164.83,57.32l-2-3.54h-1.52v3.54h-1.06V49h2.61c1.69,0,2.91.6,2.91,2.34a2.25,2.25,0,0,1-1.89,2.34L166,57.32Zm-3.52-4.39h1.39c1.31,0,2-.52,2-1.6s-.71-1.49-2-1.49h-1.39Z"/><path d="M166.69,56.22l.63-.71a3.26,3.26,0,0,0,2.3,1c1.09,0,1.75-.54,1.75-1.36s-.6-1.13-1.39-1.48l-1.2-.52a2.23,2.23,0,0,1,.93-4.35,3.43,3.43,0,0,1,2.46,1l-.56.67a2.69,2.69,0,0,0-1.9-.78c-.94,0-1.55.48-1.55,1.23s.72,1.11,1.37,1.38l1.19.51A2.31,2.31,0,0,1,172.44,55c0,1.32-1.09,2.36-2.83,2.36A4,4,0,0,1,166.69,56.22Z"/><path d="M174.08,49h1v8.33h-1Z"/><path d="M179.14,49.87h-2.52V49h6.1v.88H180.2v7.45h-1.06Z"/><path d="M185.39,54.08,182.89,49H184l1.06,2.35c.28.61.53,1.19.82,1.82h.05c.29-.63.58-1.21.83-1.82L187.85,49h1.09l-2.5,5.09v3.24h-1.06Z"/></g></g></svg>