<svg xmlns="http://www.w3.org/2000/svg" viewBox="0 0 122.98 122.79"><defs><style>.cls-1{fill:#9f0810;}.cls-2{fill:#006b38;}</style></defs><g id="图层_2" data-name="图层 2"><g id="图层_1-2" data-name="图层 1"><path class="cls-1" d="M20.83,88.65c-.15.27-1.7,2.61-1.92,2.93a.51.51,0,0,1-.69.18.5.5,0,0,1-.13-.65,5.73,5.73,0,0,1,2.68-2.54C20.83,88.58,20.84,88.6,20.83,88.65Z"/><path class="cls-1" d="M14.86,92.3a.72.72,0,0,1,.31-1.09A3.56,3.56,0,0,1,16.1,91c.23,0,.34.13.23.35a.59.59,0,0,0,.08.73.21.21,0,0,1-.12.36A2.9,2.9,0,0,1,14.86,92.3Z"/><path class="cls-1" d="M25.81,93.27a1.34,1.34,0,0,0-.36-1.46,7.34,7.34,0,0,0-.71-.48c-.25-.16-.27-.33,0-.49a.92.92,0,0,1,.81-.11,7,7,0,0,0,1.09.28c.11,0,.69,0,.24-.47l-.33-.31c-.18-.18-.17-.34,0-.45s.16,0,.37-.12c.74-.34.63-2.13-.05-1.92a.28.28,0,0,0-.18.14,2.19,2.19,0,0,1-2,1c-.32-.14-1.84-.7-2.28-.82s-.44.75-.06.9c.74.3,1.35,1.31.73,1.22a5.62,5.62,0,0,0-1.23-.23.07.07,0,0,0,0,.13c.33.18.92.51.76.61a11.44,11.44,0,0,1-1.79-.41c-.19-.06-.4-.06-.46.17s.15.34.32.35.77.2.9.43a1.34,1.34,0,0,1-.26.27,1.71,1.71,0,0,1-1.57-.09.65.65,0,0,0-.66-.05,2,2,0,0,0,.64.72c.18.1.34.15.18.32a1.06,1.06,0,0,1-.68.41.5.5,0,0,0-.3.14c-.32.46-.39.4-.86.67s-.71.16-.79-.24-.67,0-.73,1.14a.7.7,0,0,0,.82.75,3,3,0,0,0,1-.41,5,5,0,0,0,.61-.51c.25-.2.33-.16.48.14a2.46,2.46,0,0,1,.09,2,.57.57,0,0,0,.43.81,1.18,1.18,0,0,0,.7-.14,1.78,1.78,0,0,0,.7-1.46,2.27,2.27,0,0,0-.86-1.71c-.49-.46-.47-.37-.09-.62a.07.07,0,0,0,0,0,.48.48,0,0,1,.65,0c.42.29.52.29.92,0a.32.32,0,0,1,.41,0c.18.12.42.15.61.27C23.5,93.79,25.63,94.05,25.81,93.27Zm-2.83-1c.11-.07.43-.35.44-.46,0-.34.21-.5.52-.37a.86.86,0,0,1,.4.42C24.45,92.19,23.43,92.64,23,92.31Z"/><path class="cls-1" d="M30.2,101.47a1.52,1.52,0,0,1,2.2-.61.69.69,0,0,0,1.08-.3,6,6,0,0,0,.94-2c0-.34,1-.06,1,1.94,0,.53-.34.77-.63,1.07s-.79.71-1.15,1.1a7.47,7.47,0,0,0-.62.83c-.33.48-.65,1-1,1.46a.68.68,0,0,1-1.08.25.84.84,0,0,0-.69-.11,3.58,3.58,0,0,1-1.69,0,.77.77,0,0,1-.49-1,.82.82,0,0,1,1-.54c.73.3,2.26.25,2.49-.16a9.37,9.37,0,0,0,.4-.85c.11-.27,0-.4-.28-.42s-.7,0-1.05,0c-.18,0-.47,0-.51-.09S30.19,101.49,30.2,101.47Z"/><path class="cls-1" d="M36.49,106.24l.31.19c.33.21.46.5.35.75a.79.79,0,0,1-.89.42,3.76,3.76,0,0,0-1-.08,1.37,1.37,0,0,0-.67.25.82.82,0,0,1-1.22-.11,1.45,1.45,0,0,1-.15-1.83c.55-1.24,4.08-3,5-6.14.06-.3.31-.36.59-.21a1.18,1.18,0,0,1,.64.83,1.77,1.77,0,0,1-.65,1.8c-.64.56-1.29,1.12-2,1.63-1.15.84-1.08,2-.67,2.28Z"/><path class="cls-1" d="M38.22,106.68c-.16-.62-.3-1.24-.42-1.87s.47-.4.59-.32A2.3,2.3,0,0,1,39,106.6C39,106.71,38.43,107.49,38.22,106.68Z"/><path class="cls-1" d="M50.25,115.93a.4.4,0,0,1-.53.24.71.71,0,0,1-.42-.41,4.75,4.75,0,0,1,.13-1.86c0-.11,0-.32-.11-.36-.31-.11-1,1.08-1.3,1.54-.06.08-.34.63-.71.49-.19-.06-.82-.48-.3-1.31a6.1,6.1,0,0,1,1.55-1.53s.1,0,.13-.09.12-.17.1-.23-.15-.11-.23-.11c-.88,0-1.21-.27-1.44-1.08a.43.43,0,0,1,.24-.55c1-.57,2-1.11,3-1.7a1.65,1.65,0,0,0,.75-1c.09-.46.14-.94.27-1.39s.31-.51.58-.45a.56.56,0,0,1,.38.7c-.13.58-.28,1.16-.44,1.74s-.33,1.16-.48,1.75c0,.12,0,.31.06.39s.28,0,.38-.1c.69-.41,1.37-.82,2-1.26a17.18,17.18,0,0,0,1.48-1,1.3,1.3,0,0,0,.33-.57c.12-.35.16-.72.27-1.07a1.24,1.24,0,0,1,.68-.79.42.42,0,0,1,.49.06c.13.18.15,1,.35,1.08a8.51,8.51,0,0,0,1.2-.39c.12,0,.35,0,.42.09A.34.34,0,0,1,59,107a4.19,4.19,0,0,1-.75.41,10.12,10.12,0,0,0-1.87,1.25,2.66,2.66,0,0,0-.66,2.19c0,.78,1.06.58,1.35.61.51.06.72.41.48.84a2.1,2.1,0,0,1-.7.75c-.12.08-.61.09-.48-.91,0-.54-.71-.34-.75,0-.08,1.07-.78,3.89-1.53,3.65-.3-.1-.32-1.21-.29-1.63a.41.41,0,0,1,.21-.31c.62-.26.73-1.44.63-1.77a.08.08,0,0,0-.11,0,8.11,8.11,0,0,0-2,1.53c-.17.33-.43.36-.68.08a1.26,1.26,0,0,1-.18-1.19,1.07,1.07,0,0,1,1-.46,2.56,2.56,0,0,1,.39,0,1.9,1.9,0,0,0,1.46-.42.87.87,0,0,0,.36-.57c.1-.52.18-1.05.25-1.57.05-.31-.11-.41-.4-.26a9.74,9.74,0,0,0-2.12,1.46,11,11,0,0,1-1,.73,1.59,1.59,0,0,0-.74,1.24A13.37,13.37,0,0,1,50.25,115.93Z"/><path class="cls-1" d="M74.58,106.17a2.63,2.63,0,0,1-1.78.78c-.09,0-.24,0-.28,0a.39.39,0,0,1,0-.28.86.86,0,0,1,.54-.56c.59-.2.64-.8.78-1.3.07-.25.05-.52-.24-.62s-.45.08-.59.28-.2.34-.33.49-.3.15-.39-.06a.52.52,0,0,1,0-.25c0-.59.06-1.19.08-1.78,0-.29-.6-.42-.81,0a1.73,1.73,0,0,0-.08,1.25c.11.46.17.94.24,1.41,0,.06,0,.21-.13.21s-.23-.38-.27-.49c-.51-1.29-2.06-.6-1.36,0s1.22,1.3.27,2c-.29.21-1,.83-1.07,1.4a.33.33,0,0,0,.32.37c.22,0,.31-.14.35-.33a1.69,1.69,0,0,1,.11-.56c.07-.13.25-.21.38-.31a1.36,1.36,0,0,1,.11.38c0,.37.29.52.62.33.06,0,.11-.09.17-.12a.24.24,0,0,1,.2,0,.19.19,0,0,1,0,.18,1.19,1.19,0,0,1-.19.33c-.5.61-1,1.2-1.51,1.8L68.62,112c-.33.4-.53.32-.79.51a1,1,0,0,0-.24,1.28c.49.72,1.09-.74,1.39-1.23a6.08,6.08,0,0,1,1.56-1.92.13.13,0,0,1,.21.1.45.45,0,0,1,0,.12c-.06.19-.16.36-.23.54-.16.43-.06.66.39.79a.49.49,0,0,1,.4.43.48.48,0,0,0,.41.41c.26,0,.3.17.11.37s-.6.7-.33,1.19a.37.37,0,0,1-.48-.23c-.07-.13-.1-.29-.18-.42s-.13-.24-.24-.23-.17.17-.18.26a4.05,4.05,0,0,0,.24,2.35.5.5,0,0,0,.4.21.53.53,0,0,0,.29-.34c.1-.41.14-.84.22-1.26,0-.07.13-.19.2-.18a.66.66,0,0,0,.57-.36c.45-.66.74-.62.75-.59a6.65,6.65,0,0,1,.34,1.13c0,.35,0,.39-.41.39-.12,0-.32,0-.35.12-.1.37.49.94.77,1.16a.54.54,0,0,0,.86-.13,1.53,1.53,0,0,0,.28-.84,14.37,14.37,0,0,0-.23-1.44c0-.1,0-.25.06-.3s.22,0,.3,0a2.8,2.8,0,0,1,.48.37c.29.25.55.55.85.78a.53.53,0,0,0,.77-.13.52.52,0,0,0,0-.77c-.17-.17-.35-.34-.54-.5a1.85,1.85,0,0,0-1.89-.51c-.16,0-.55-.37-.12-.75.2-.17.43-.31.62-.49s.35-.31.32-.42a.65.65,0,0,0-.39-.43c-.37-.07-.59-.2-.63-.58a.2.2,0,0,0-.11-.13c-.41-.17-.39-.49-.36-.84s0-.77-.46-1a.29.29,0,0,1-.06-.49,3,3,0,0,1,.41-.32l1.52-.89C75.47,106.64,75.41,105.3,74.58,106.17Zm-1.88-.24c-.11.4-.29.16-.28-.12C72.46,105.11,72.78,105.6,72.7,105.93Zm-.47,3.92c0,.13-.19.32-.31.33s-.25-.17-.22-.37c.07-.47.22-.66.55-.67A2.8,2.8,0,0,1,72.23,109.85Z"/><path class="cls-1" d="M91.21,104.68a16.51,16.51,0,0,0-1.73-.53c-.39-.1-.52,0-.5.43,0,.73.22,3.51-.07,4a1.67,1.67,0,0,1-1,.75c-.27.08-.57,0-.55-.29s1.18-4,.49-4.88a.44.44,0,0,0-.18-.16c-.11,0-.28.31-.26.4-.19,1-.95,1-1.77.82a1.06,1.06,0,0,1-.39-.21.41.41,0,0,1-.14-.61c.36-.61.73-1.34,1.08-2a2.65,2.65,0,0,0,.18-.42c.21-.54-.28-1-.52-1.43a3.23,3.23,0,0,1-.65-1.51.43.43,0,0,1,.62-.33,2.15,2.15,0,0,1,1,.83c.3.44.72.6,1.08.19a5.4,5.4,0,0,0,.44-.69c.27-.49,2.22-.74,1.62.36L89.14,101c-.18.36-.35.73-.5,1.1a.62.62,0,0,0,.25.76,4.76,4.76,0,0,0,4.92,0,.8.8,0,0,1,1.16.11C95.48,103.66,93.22,105.38,91.21,104.68Z"/><path class="cls-1" d="M102.64,87.06a7.57,7.57,0,0,0-.7,1.07c-.15.24-.33.32-.53.15a.73.73,0,0,1-.25-.38c-.1-.51-.63-1.84-1.34-1.58a1,1,0,0,0-.6.79c0,.22,0,1.14-.49.76a5.3,5.3,0,0,0-.76-.46.29.29,0,0,0-.41.19.41.41,0,0,0,.11.36A2.9,2.9,0,0,1,98.42,89c.06.13-.1.37-.32.16a4,4,0,0,0-.9-.88.61.61,0,0,0-.49,0c-.23.18.43,1.1.7,1.35a6.23,6.23,0,0,0,1.71,1.35,2.72,2.72,0,0,1,.61.38.31.31,0,0,1,0,.48.35.35,0,0,1-.31,0,8.44,8.44,0,0,1-.78-.68c-.52-.53-2.4-2.48-2.31-.08.06.26.48.29.6-.07s.17-.27.34-.11c.4.38.79.77,1.19,1.14.22.2.45.38.65.59s.15.25.08.34-.26.06-.33,0a3,3,0,0,1-.51-.5c-.13-.16-.39-.36-.5-.15s0,.29.11.41c.34.75,1.08,2.7,1.59,2.87s1.06-.48.52-1.11a1.13,1.13,0,0,1-.12-1.42c.38-.75,1.11-2.85,1.44-2.68s0,1-.1,1.29c-.24.56-.53,1.09-.82,1.62-.09.17-.2.33,0,.49A.4.4,0,0,0,101,94a3,3,0,0,0,.53-.64c.17-.25.37-.35.59-.23s.27.31.11.58-.39.58-.57.89a.92.92,0,0,0,0,1.07c.27.34,1.35.17,1.67-.54.14-.32.26-.65.42-1s.4-.42.64-.11a7.79,7.79,0,0,1,.75,1.2c.1.18.24.64-1,1.2-.11,0-.46.2-.45.39s.65.3.9.28c2.63-.18,2.34-2,1.65-2.88-.43-.51-.83-1-1.23-1.58-.26-.33-.21-.52.14-.77.19-.13.38-.26.56-.4a.47.47,0,0,0-.07-.84,2,2,0,0,0-.45-.15.82.82,0,0,0-1,.44,5.6,5.6,0,0,1-.33.59c-.18.27-.36.54-.71.59,0,0-.08,0-.06-.08a1.92,1.92,0,0,0-.21-1.46.86.86,0,0,1-.14-.48,2.33,2.33,0,0,1,1.46-1.93c.29-.1.37-.27.22-.53a2.06,2.06,0,0,0-.35-.47A1,1,0,0,0,102.64,87.06Zm-.11,5.17c-.2.18-.4.29-.57.11C101.65,92,102.37,91.84,102.53,92.23Zm-1.83-2.18c-.13.16-.28.18-.41,0a1.83,1.83,0,0,1-.28-.44,1.21,1.21,0,0,0-.68-.69c-.24-.08-.28-.22-.19-.5l1,.64c.16.1.32.23.47.34A.39.39,0,0,1,100.7,90.05Zm-.28-2a.19.19,0,0,1-.22.15.79.79,0,0,1-.21-.06.15.15,0,0,1,0-.26l.25,0a.18.18,0,0,1,.22.19Z"/><path class="cls-2" d="M123,61.21A61.49,61.49,0,1,1,61.3,0,61.43,61.43,0,0,1,123,61.21ZM61.31,3A58.45,58.45,0,1,0,120,61.22,58.49,58.49,0,0,0,61.31,3Z"/><path class="cls-2" d="M102.88,61.26a41.39,41.39,0,1,1-41.52-41.2A41.37,41.37,0,0,1,102.88,61.26ZM61.37,21.53a39.86,39.86,0,1,0,40,39.74A39.89,39.89,0,0,0,61.37,21.53Z"/><path class="cls-2" d="M61.57,102.72a41.41,41.41,0,0,0,39.25-28.59h-.4a41.4,41.4,0,0,0-38.85,27.43,41.4,41.4,0,0,0-39-27.19h-.4A41.4,41.4,0,0,0,61.57,102.72Z"/><path class="cls-2" d="M60.53,77.46h0a2.08,2.08,0,1,0-2.07,2.08,2,2,0,0,0,1.13-.34v.5a1.14,1.14,0,0,1-1.13,1.14,1.11,1.11,0,0,1-1.1-.91l-.93.25a2.08,2.08,0,0,0,4.11-.47V77.46Zm-2.07,1.13a1.13,1.13,0,1,1,1.12-1.13A1.13,1.13,0,0,1,58.46,78.59Z"/><path class="cls-2" d="M63.5,77.64a2,2,0,0,0-.91.23L63,76.21h2.1v-.82H62.22l-.79,3.41,1.14.3a1.1,1.1,0,0,1,.93-.52,1.13,1.13,0,0,1,0,2.26,1.08,1.08,0,0,1-1.14-.92l-.93.25a2,2,0,0,0,2.07,1.62,2.08,2.08,0,0,0,2.06-2.09A2.06,2.06,0,0,0,63.5,77.64Z"/><path class="cls-2" d="M70.63,80.83H67.42a1.15,1.15,0,0,1,1.13-1.17h0a2.15,2.15,0,1,0-2.09-2.14,1.53,1.53,0,0,0,0,.3l.93-.25v0a1.13,1.13,0,1,1,1.13,1.16h0a2.1,2.1,0,0,0-2.06,2.15h0v1l4.17,0Z"/><polygon class="cls-2" points="54.29 80.83 54.28 75.37 53.33 75.38 52.44 75.65 52.44 76.58 53.33 76.31 53.34 80.84 52.34 80.84 52.34 81.79 55.68 81.78 55.68 80.83 54.29 80.83"/><path class="cls-1" d="M9.93,71.74l-.32-1.41,7-1.6.33,1.41-4.1,4.25,4.82-1.11L18,74.69l-7,1.6-.32-1.41,4.1-4.25Z"/><path class="cls-1" d="M16.27,64.25a3.6,3.6,0,0,1-.87,2.66,3.52,3.52,0,0,1-2.56,1.2,3.48,3.48,0,0,1-2.68-.89A3.79,3.79,0,0,1,9.85,62a3.53,3.53,0,0,1,2.56-1.21,3.55,3.55,0,0,1,3.86,3.42Zm-2-1.45a2.34,2.34,0,0,0-1.73-.5,2.38,2.38,0,0,0-1.66.7,2.08,2.08,0,0,0-.54,1.61A2.12,2.12,0,0,0,11,66.15a2.38,2.38,0,0,0,1.74.51A2.38,2.38,0,0,0,14.41,66,2.13,2.13,0,0,0,15,64.33,2.09,2.09,0,0,0,14.22,62.8Z"/><path class="cls-1" d="M13.39,58.05l2.82.27-.13,1.44L9,59.09l.24-2.62a2.7,2.7,0,0,1,.8-1.84,2,2,0,0,1,1.58-.52,2.16,2.16,0,0,1,1.21.52A2.09,2.09,0,0,1,13.49,56l3.09-1.54-.16,1.7-3,1.44Zm-3.18-.29,2.08.19.11-1.18a1.15,1.15,0,0,0-.21-.85,1,1,0,0,0-.73-.36,1,1,0,0,0-.78.22,1.14,1.14,0,0,0-.36.8Z"/><path class="cls-1" d="M10.82,52.44l-1.08-.25L10.94,47l1.07.25-.44,1.89,5.88,1.36-.32,1.39-5.88-1.36Z"/><path class="cls-1" d="M13.1,41.05l.52-1.34,6.65,2.59-.52,1.34L16.9,42.53l-1.11,2.86,2.85,1.11-.53,1.34-6.64-2.59L12,43.91,14.76,45l1.11-2.86Z"/><path class="cls-1" d="M16.65,34.06l1,.54-1.31,2.34,1.63.91,1.16-2.07,1,.54L18.9,38.39l1.73,1L21.93,37l1,.54-2,3.59-6.24-3.49Z"/><path class="cls-1" d="M26.34,32.76,25,32.33l-1.67,2.22.79,1.17-.91,1.22L19,30.62l1-1.37,7.23,2.3Zm-3.67.82L23.89,32l-3-1Z"/><path class="cls-1" d="M25.16,25.08a1,1,0,0,0-.34.65.72.72,0,0,0,.23.62.83.83,0,0,0,.57.29,1.14,1.14,0,0,0,.61-.13,5.34,5.34,0,0,0,.66-.35,6.85,6.85,0,0,1,.71-.39,3.47,3.47,0,0,1,.74-.27,1.45,1.45,0,0,1,.77,0,1.88,1.88,0,0,1,.78.5,2,2,0,0,1,.57,1.57,2.71,2.71,0,0,1-.88,1.76,3,3,0,0,1-1.71.93,1.8,1.8,0,0,1-1.59-.59l1.08-1.08a.94.94,0,0,0,1.43-.09,1.15,1.15,0,0,0,.37-.72.89.89,0,0,0-.28-.69.76.76,0,0,0-.74-.21,2.81,2.81,0,0,0-.91.39c-.31.19-.63.37-1,.55a2,2,0,0,1-1.08.21,1.66,1.66,0,0,1-1.08-.55,1.89,1.89,0,0,1-.59-1.59,2.78,2.78,0,0,1,.87-1.7A2.88,2.88,0,0,1,26,23.33a1.94,1.94,0,0,1,1.61.57L26.49,25a.94.94,0,0,0-.67-.25A1,1,0,0,0,25.16,25.08Z"/><path class="cls-1" d="M28.24,22.22l-.67-.88,4.21-3.2.66.88-1.53,1.17L34.57,25l-1.14.87-3.66-4.79Z"/><path class="cls-1" d="M39.39,21.83,36.2,15.45l3.94-2,.5,1L38,15.79l.84,1.67,2-1,.49,1-2,1,1.37,2.73Z"/><path class="cls-1" d="M47.24,18.5a3.55,3.55,0,0,1-2.79-.16,3.51,3.51,0,0,1-1.83-2.16,3.53,3.53,0,0,1,.18-2.82,3.77,3.77,0,0,1,4.93-1.63,3.5,3.5,0,0,1,1.82,2.16,3.55,3.55,0,0,1-2.31,4.61Zm.87-2.35a2.39,2.39,0,0,0,0-1.81,2.38,2.38,0,0,0-1.1-1.42,2.08,2.08,0,0,0-1.7-.1,2.11,2.11,0,0,0-1.3,1.1,2.37,2.37,0,0,0,0,1.8,2.36,2.36,0,0,0,1.11,1.42,2.09,2.09,0,0,0,1.7.11A2,2,0,0,0,48.11,16.15Z"/><path class="cls-1" d="M52.49,14.13l.46,2.8-1.42.24-1.16-7L53,9.7a2.64,2.64,0,0,1,2,.3,2,2,0,0,1,.91,1.4,2.11,2.11,0,0,1-.19,1.3,2.14,2.14,0,0,1-1.15,1l2.28,2.6-1.69.28L53,14.05ZM52,11,52.31,13l1.17-.19a1.1,1.1,0,0,0,.77-.42,1,1,0,0,0,.16-.79,1,1,0,0,0-.4-.71,1.16,1.16,0,0,0-.87-.14Z"/><path class="cls-1" d="M61.74,9l0,1.1-2.68.09L59.17,12l2.37-.08,0,1.1-2.37.09.07,2L62,15l0,1.11-4.12.14-.25-7.15Z"/><path class="cls-1" d="M66.11,10.26a1.11,1.11,0,0,0-.72.16.73.73,0,0,0-.32.58.82.82,0,0,0,.14.62,1.29,1.29,0,0,0,.49.39,6.86,6.86,0,0,0,.7.27c.25.09.5.18.75.29a4.06,4.06,0,0,1,.68.4,1.34,1.34,0,0,1,.48.61,1.92,1.92,0,0,1,.11.92,2,2,0,0,1-.83,1.44,2.67,2.67,0,0,1-1.91.46,3,3,0,0,1-1.82-.71,1.84,1.84,0,0,1-.57-1.6l1.52.14a.94.94,0,0,0,1,1,1.12,1.12,0,0,0,.79-.18.87.87,0,0,0,.35-.65.74.74,0,0,0-.32-.7,2.55,2.55,0,0,0-.87-.45q-.52-.18-1-.39a2,2,0,0,1-.86-.69A1.65,1.65,0,0,1,63.57,11a1.94,1.94,0,0,1,.84-1.49,2.75,2.75,0,0,1,1.86-.41A3,3,0,0,1,68,9.78a2,2,0,0,1,.59,1.6L67,11.24a1,1,0,0,0-.92-1Z"/><path class="cls-1" d="M70.27,10.79l.25-1.08,5.15,1.17L75.43,12l-1.89-.42-1.32,5.88-1.4-.32,1.33-5.88Z"/><path class="cls-1" d="M77.28,15.93l-1,2.66-1.35-.5,2.49-6.68,2.46.91a2.72,2.72,0,0,1,1.57,1.25,2,2,0,0,1,.09,1.66,2.13,2.13,0,0,1-.82,1,2.09,2.09,0,0,1-1.48.3L79.93,20l-1.6-.6-.61-3.25Zm1.11-3-.72,2,1.11.41a1.1,1.1,0,0,0,.87,0,1,1,0,0,0,.53-.62,1,1,0,0,0,0-.81,1.11,1.11,0,0,0-.68-.55Z"/><path class="cls-1" d="M83.72,21.94l-1.27-.68,1.17-2.16.11-5.26,1.42.77-.26,3.68,2.93-2.24,1.42.77-4.35,3Z"/><path class="cls-1" d="M90.58,23.08l2.86-3.34,1.1.94L91.68,24a1.5,1.5,0,0,0-.44,1.09,1.41,1.41,0,0,0,.56,1,1.45,1.45,0,0,0,1.06.41,1.54,1.54,0,0,0,1-.6l2.85-3.34,1.09.93L95,26.83a2.59,2.59,0,0,1-2,1,3.07,3.07,0,0,1-2-.79,3,3,0,0,1-1.07-1.87A2.64,2.64,0,0,1,90.58,23.08Z"/><path class="cls-1" d="M102.53,28.69l.94,1.09L98,34.42l-.94-1.09,1.67-5.67L95,30.87l-.94-1.1,5.44-4.64.94,1.1L98.77,31.9Z"/><path class="cls-1" d="M98.73,35.57l5.92-4,.8,1.2-5.91,4Z"/><path class="cls-1" d="M101.24,39.6l5.1-5.64.71,1.35-4.13,4.38,6-.93.71,1.36-7.53,1Z"/><path class="cls-1" d="M111.59,45.54l-1,.38-.91-2.52-1.76.64.81,2.23-1,.38-.81-2.23-1.85.67.91,2.52-1,.37-1.41-3.87,6.73-2.44Z"/><path class="cls-1" d="M108.33,50l-2.78.62-.31-1.41,7-1.54.56,2.56a2.69,2.69,0,0,1-.19,2,2,2,0,0,1-1.34,1A2.08,2.08,0,0,1,108.86,52l-2.47,2.41L106,52.69l2.41-2.28Zm3.11-.69-2,.45.26,1.16a1.18,1.18,0,0,0,.45.75,1.06,1.06,0,0,0,.81.11,1,1,0,0,0,.68-.44,1.18,1.18,0,0,0,.1-.87Z"/><path class="cls-1" d="M112.77,57.25a1.07,1.07,0,0,0-.27-.68.74.74,0,0,0-.63-.22.85.85,0,0,0-.59.25,1.31,1.31,0,0,0-.29.55,6.69,6.69,0,0,0-.15.73,7.43,7.43,0,0,1-.17.79,3.4,3.4,0,0,1-.26.74,1.44,1.44,0,0,1-.53.57,1.94,1.94,0,0,1-.88.27,2,2,0,0,1-1.57-.57,2.69,2.69,0,0,1-.78-1.81,3,3,0,0,1,.4-1.91,1.81,1.81,0,0,1,1.47-.84l.13,1.53a1,1,0,0,0-.86,1.15,1.18,1.18,0,0,0,.32.75.87.87,0,0,0,.7.23.77.77,0,0,0,.64-.43,2.81,2.81,0,0,0,.29-.94,11.18,11.18,0,0,1,.21-1.1,2.07,2.07,0,0,1,.53-1,1.63,1.63,0,0,1,1.12-.47,1.92,1.92,0,0,1,1.61.58,2.75,2.75,0,0,1,.72,1.76,2.92,2.92,0,0,1-.36,1.82,1.94,1.94,0,0,1-1.48.85L112,58.32a.94.94,0,0,0,.62-.35A1,1,0,0,0,112.77,57.25Z"/><path class="cls-1" d="M106.87,61.62l7.14.12,0,1.44-7.13-.12Z"/><path class="cls-1" d="M112.87,64.67l1.1.12L113.38,70l-1.1-.12L112.5,68l-6-.67.16-1.42,6,.67Z"/><path class="cls-1" d="M105.34,73.27l.35-1.4,2.38.59,5.13-1.2-.4,1.57-3.63.66,2.9,2.28-.4,1.57-4-3.48Z"/><polygon class="cls-2" points="76.53 68.75 93.35 68.75 61.28 29.25 29.2 68.75 46.03 68.75 51.55 61.94 57.07 68.75 67.19 68.75 56.61 55.71 61.28 49.97 76.53 68.75"/></g></g></svg>