<svg id="图层_1" data-name="图层 1" xmlns="http://www.w3.org/2000/svg" viewBox="0 0 190.51 42.83"><defs><style>.cls-1{fill-rule:evenodd;}</style></defs><g id="图层_2" data-name="图层 2"><g id="图层_1-2" data-name="图层 1-2"><path class="cls-1" d="M77,99.26a2.73,2.73,0,0,1-.3.62c-.87,1-1.79,2-2.63,3a7.71,7.71,0,0,0-1.57,2.79,1.84,1.84,0,0,0,1.79,2.48.59.59,0,0,0,.45-.18,10.26,10.26,0,0,0,1.16-1.53c.76-1.31,1.45-2.65,2.18-4a.58.58,0,0,1,.35-.28.44.44,0,0,1,.29.29A7.76,7.76,0,0,1,78.9,104c0,1-.14,1.91-.14,2.86a2.27,2.27,0,0,0,1,2,1,1,0,0,0,1.27-.1,3.51,3.51,0,0,0,.94-1.5,9.92,9.92,0,0,0,.35-3.39c0-1.54-.09-3.07-.08-4.61a3.76,3.76,0,0,1,1.22-3c1-.85,1.82-1.81,2.71-2.73a31,31,0,0,1,3.62-3.44,13.87,13.87,0,0,1,1.41-.8c.21-.12.33,0,.38.2a4.13,4.13,0,0,1,.13.77c0,1.26-.09,2.52-.13,3.78a2.65,2.65,0,0,1-2.14,2.58c-.45.14-.92.23-1.39.33-.88.18-1.78.32-2.65.53a2.06,2.06,0,0,0-1.35,1.06,3,3,0,0,0,1.35,3.73c.29.13.55.13.71-.15a7.29,7.29,0,0,0,.56-1.2,1.7,1.7,0,0,1,1.16-1.32,2.83,2.83,0,0,0,1.73-1.41,1.35,1.35,0,0,1,.28-.35,2,2,0,0,1,.49-.37c.66-.31,1.1,0,1.12.67v1.63a2,2,0,0,1-1.14,2,.67.67,0,0,0-.19.14,1.5,1.5,0,0,0-.28.47A6.26,6.26,0,0,0,90,105,3,3,0,0,0,91,106.86a.3.3,0,0,0,.43,0,4,4,0,0,0,1.17-1.29,6.77,6.77,0,0,0,.71-2.46c.12-1,.18-2,.33-3A19.82,19.82,0,0,0,94,96.84a2.26,2.26,0,0,1,.29-.91.48.48,0,0,1,.33-.22c.64-.15,1.08.19,1.12.91v1.44a.62.62,0,0,0,0,.27,1,1,0,0,0,1.34.46l.12-.07a2.12,2.12,0,0,0,.55-.39,4.15,4.15,0,0,0,1.14-2.13,1.22,1.22,0,0,0-.57-1.37,2.11,2.11,0,0,0-1-.35,23.3,23.3,0,0,0-2.51.09.8.8,0,0,1-.91-.58,1,1,0,0,1-.08-.38,22.65,22.65,0,0,1,.08-2.6,15.21,15.21,0,0,1,1.18-4.38,2,2,0,0,1,.59-.71A43.06,43.06,0,0,1,100.1,83a2.06,2.06,0,0,0,1.09-1.24.72.72,0,0,0-.59-.83h-.17a5.87,5.87,0,0,0-1.86,1,5.11,5.11,0,0,1-1.09.56.61.61,0,0,1-.81-.3.57.57,0,0,1,0-.14,3.59,3.59,0,0,1-.14-.86A1.61,1.61,0,0,0,96,79.83a1.48,1.48,0,0,1-.25-.25.53.53,0,0,0-.73-.09l-.09.09a5.76,5.76,0,0,0-2.16,5.25,1.79,1.79,0,0,1-.48,1.56,6.71,6.71,0,0,1-1,.85,13.83,13.83,0,0,0-2.18,1.86c-.77.82-1.56,1.62-2.36,2.4a13.82,13.82,0,0,1-2.92,2.24c-.46.25-.82.12-.9-.38a1.48,1.48,0,0,1,0-.42c.12-.76.25-1.52.38-2.28.3-1.74.65-3.48.9-5.23A12.43,12.43,0,0,0,84.24,83c0-.69-.61-1-1.18-1.22s-.63.17-.9.34a1,1,0,0,0-.48.87,20.26,20.26,0,0,1-.58,4.11,5.11,5.11,0,0,1-1.69,3c-.45.37-.86.8-1.31,1.17a28.34,28.34,0,0,1-4.8,3.57,3.78,3.78,0,0,0-.56.4,1.23,1.23,0,0,0-.43,1.54,5.26,5.26,0,0,0,1.79,2.35.8.8,0,0,0,.45.14Z" transform="translate(-0.09 -73.9)"/><path class="cls-1" d="M155.25,89.74c-.31-.47-.61-.93-.93-1.37a4.43,4.43,0,0,0-.64-.66,2.18,2.18,0,0,0-2.36-.21,13.16,13.16,0,0,1-1.35.55,1.18,1.18,0,0,1-1.56-.59,1.22,1.22,0,0,1-.1-.53,8.16,8.16,0,0,0-.07-1.31,13.6,13.6,0,0,0-.3-2,1.48,1.48,0,0,0-1.3-1.12.63.63,0,0,0-.38.09,2.72,2.72,0,0,0-1.16,1.85,31.71,31.71,0,0,0-.44,4.56,1.13,1.13,0,0,1-.18.57,3.09,3.09,0,0,1-1.35,1.1c-.89.38-1.81.71-2.71,1.06s-1.71.63-2.52,1a1.26,1.26,0,0,0-.62,1.91,5.52,5.52,0,0,0,2.7,2.75,1.38,1.38,0,0,0,1.45-.11c.2-.15.41-.3.63-.44s.66-.33,1-.47.29,0,.33.23a2.91,2.91,0,0,1-.33,1.64,9.12,9.12,0,0,1-1.62,2.35,23.74,23.74,0,0,1-3.07,3.11c-.41.31-.88.54-1.32.81a2.78,2.78,0,0,0-1.14,1.06c-.24.47-.2.64.19,1a2.58,2.58,0,0,0,1.59.59,3.8,3.8,0,0,0,3.07-1.32,22.19,22.19,0,0,0,2.72-3.79c.38-.62.69-1.28,1-1.92a2.69,2.69,0,0,1,.89-1.09c.34-.22.55-.22.79.09.53.68,1,1.35,1.53,2.06.73,1,1.39,2.15,2.14,3.19a5.16,5.16,0,0,0,2.58,2,8,8,0,0,0,4.12.24,3.08,3.08,0,0,0,2-1.14,1.15,1.15,0,0,0,.17-1.21,2.59,2.59,0,0,0-2.09-1.74c-.89-.1-1.79-.09-2.68-.13a1.84,1.84,0,0,1-.47-.06,6.52,6.52,0,0,1-3.65-2.49c-.8-1.14-1.5-2.36-2.23-3.55a2.27,2.27,0,0,1-.23-.58,1.43,1.43,0,0,1,.36-1.56,4.59,4.59,0,0,1,.88-.7c.68-.37,1.38-.7,2.08-1,1.09-.52,2.19-1,3.27-1.56A3.49,3.49,0,0,0,155.25,89.74Z" transform="translate(-0.09 -73.9)"/><path class="cls-1" d="M37.83,97.83c.08.55.13,1,.23,1.5A.79.79,0,0,0,39,100a.75.75,0,0,0,.36-.17c.36-.28.71-.59,1.06-.88a5.45,5.45,0,0,1,2.53-1.34.5.5,0,0,1,.38.15,3.26,3.26,0,0,1,0,4.18,9,9,0,0,1-1.78,1.65,7.36,7.36,0,0,1-3.43,1.59,1.39,1.39,0,0,0-.72.44,2.82,2.82,0,0,0,0,3.57,1.88,1.88,0,0,0,2.28.6,4.42,4.42,0,0,0,1.12-.58,24.77,24.77,0,0,0,2.33-1.9,3.11,3.11,0,0,1,2.22-1h.33c1-.08,1.54-.42,1.73-1.43a20,20,0,0,0,.28-3c0-1.07,0-2.13-.06-3.19a10,10,0,0,1,.5-3.64c.43-1.28.77-2.59,1.15-3.89a3.5,3.5,0,0,0-.75-3.72c-.7-.73-1.29-1.54-2-2.3a3.65,3.65,0,0,0-2-1.35.77.77,0,0,0-.86.67.49.49,0,0,0,0,.12c.13.74.27,1.47.39,2.21a18,18,0,0,1,.4,4.39c-.09,1.23-.58,1.87-1.64,2.07a4.8,4.8,0,0,1-.75.09,3.81,3.81,0,0,0-3.83,3A11.65,11.65,0,0,0,37.83,97.83Z" transform="translate(-0.09 -73.9)"/><path class="cls-1" d="M50.58,103.17a5.19,5.19,0,0,0,.11,1,4,4,0,0,0,3.2,3.64,2.19,2.19,0,0,0,2.74-1.23,6.62,6.62,0,0,0,.3-.66,3.51,3.51,0,0,1,2.27-2.22,11.09,11.09,0,0,0,1.65-.74,2.3,2.3,0,0,0,1.25-2.08.87.87,0,0,0-.19-.48,3.09,3.09,0,0,0-2.17-.92c-.64-.06-1.28-.08-1.92-.15a1.92,1.92,0,0,1-1.8-1.5,7.26,7.26,0,0,1,0-4.08c.35-1.15.84-2.26,1.19-3.41q.93-3,1.77-6a3,3,0,0,0,0-1.26,4.92,4.92,0,0,0-3.37-3.62,1.61,1.61,0,0,0-1.92.31.62.62,0,0,0-.23.62c.1.44.2.87.32,1.3a9.45,9.45,0,0,1,.37,1.36,20.19,20.19,0,0,1-.23,5.49c-.07.44-.26.86.08,1.28V90a16.59,16.59,0,0,1-.51,3.14c-.81,2.39-1.55,4.82-2.34,7.22A9.76,9.76,0,0,0,50.58,103.17Z" transform="translate(-0.09 -73.9)"/><path class="cls-1" d="M65.64,97h.1a10,10,0,0,0-.54-1.47,7.47,7.47,0,0,0-3.72-3.2,1.24,1.24,0,0,0-1.32.14c-.76.58-.76.69-.33,1.38a9.07,9.07,0,0,0,1.39,1.75c.87.89,1.82,1.7,2.69,2.59a.84.84,0,0,0,1,.22A1.37,1.37,0,0,0,65.64,97Z" transform="translate(-0.09 -73.9)"/><path class="cls-1" d="M177.94,91.28c-1,.21-2.09.36-3.13.67-1.84.54-3.65,1.17-5.47,1.77a1.28,1.28,0,0,1-.24.11,2.3,2.3,0,0,0-1.68,2,11.67,11.67,0,0,1-.5,1.75,3.75,3.75,0,0,1-.21.5A1.35,1.35,0,0,1,165,99h0a1.52,1.52,0,0,1-1.3-1.55,6.32,6.32,0,0,1,.55-2.6c.33-.82.68-1.64,1.08-2.43a13.62,13.62,0,0,0,1.35-3.55,1.76,1.76,0,0,1,1.23-1.51,6,6,0,0,1,.27,1.17v2.21c0,.74.2.88.56.89s.53-.33.55-.89c.06-2,.15-4,.2-6.07,0-.64-.09-1.28-.14-2-.42.17-.74.28-1,.41a.57.57,0,0,1-.79-.2l0-.06a1.62,1.62,0,0,1,.49-2.23,1.3,1.3,0,0,1,.31-.16,1.36,1.36,0,0,1,1.31.29,5.08,5.08,0,0,1,2.11,3.5,36.05,36.05,0,0,1,0,3.89v2c0,.27.16.33.38.35a.92.92,0,0,0,1.07-.74,1.11,1.11,0,0,0,0-.26c-.19-1.59-.42-3.17-.61-4.75a16.29,16.29,0,0,1,0-5.7,3.82,3.82,0,0,1,1.22-2.18.7.7,0,0,1,.51-.1,1.41,1.41,0,0,1,1.05,1.47c0,.72-.13,1.43-.2,2.15a3.31,3.31,0,0,0,.14,1.87,1.28,1.28,0,0,0,1.08-1.08c.15-.72.18-1.46.28-2.19a7.06,7.06,0,0,1,.25-1.28c.23-.67.65-.79,1.25-.41a1.54,1.54,0,0,1,.7,1.29,11.93,11.93,0,0,0,.09,1.79,8,8,0,0,0,.16.85c.39-.16.73-.29,1-.45.78-.38,1.53-.8,2.31-1.16a4.67,4.67,0,0,1,1.22-.32,1.36,1.36,0,0,1,1.49.88,2.56,2.56,0,0,1,.07,2.21c-.3.7-.65,1.38-1,2.06a6.92,6.92,0,0,0-.93,2.52c-.06.57,0,.8.49,1a.86.86,0,0,0,.55,0c.82-.22,1.62-.49,2.45-.67a6.11,6.11,0,0,1,1.48,0,1.9,1.9,0,0,1,1.29.74,4.59,4.59,0,0,1,.92,4,3.8,3.8,0,0,1-.23.59c-.49.92-.86,1.06-1.71.49a5.18,5.18,0,0,0-3.81-.57,11.33,11.33,0,0,0-2.07.57,2.43,2.43,0,0,0-1.55,1.42c-.16.52-.36,1-.55,1.56a2.33,2.33,0,0,1-1.32,1.41c-.34.19-.68.39-1,.6a2.18,2.18,0,0,0,1.76.8,7,7,0,0,0,1.49-.28c.51-.12,1-.29,1.51-.41a1.84,1.84,0,0,1,1.64.37,4.75,4.75,0,0,1,1.58,2.44,1.41,1.41,0,0,1-1.48,1.66c-.43-.08-.84-.21-1.27-.31a11.45,11.45,0,0,0-1.2-.23,1.22,1.22,0,0,0-1.43.93,19.43,19.43,0,0,0-.6,2.59c-.21,1.25-.28,2.53-.54,3.77a6,6,0,0,1-4.74,4.39,3.66,3.66,0,0,1-3.23-1,29.09,29.09,0,0,1-2.27-2.69,2.39,2.39,0,0,1-.35-.76c-.14-.41,0-.67.44-.7a3,3,0,0,1,1.12.13c.79.26,1.54.62,2.33.88a1.72,1.72,0,0,0,2.36-.69,1,1,0,0,0,.1-.21,6.31,6.31,0,0,0,1-4.34c-.12-.74-.2-.82-.94-.65a14.08,14.08,0,0,0-2.55.75,3.6,3.6,0,0,1-4.37-.85,2,2,0,0,1-.31-.34,1.25,1.25,0,0,1-.13-1.77l.06-.07a4,4,0,0,1,3.46-1.79,7.72,7.72,0,0,0,1.91-.33,1.06,1.06,0,0,0,.62-1.39,1,1,0,0,0-.24-.38.93.93,0,0,0-.48-.17c-.66,0-1.32.1-2,.15a2.16,2.16,0,0,1-2.13-1.19.33.33,0,0,1,0-.47h0a4.37,4.37,0,0,1,2-1.12c1.3-.36,2.63-.66,3.93-1a5.11,5.11,0,0,0,2.63-1.46.6.6,0,0,0,.11-.84Zm.39-8.94c-.55.46-.69.86-.54,1.24a3.42,3.42,0,0,1,0,2.4c-.2.64-.38,1.3-.55,2a.55.55,0,0,0,0,.36,1,1,0,0,0,1.86-.46c-.07-1.27-.13-2.54-.27-3.8A11.27,11.27,0,0,0,178.33,82.34Zm-1.64,15c.11-.27.25-.45.22-.59a12,12,0,0,0-.39-1.15h-.15c-.44,0-.57.36-.76.64s0,.42.17.56.55.27.91.5ZM180.89,84c.36,0,.71-.06.73-.47a1.4,1.4,0,0,0-.19-.63A1.05,1.05,0,0,0,181,83c-.34.24-.26.6-.11,1Zm.88,6.37-.16.1c.08.16.1.41.23.48a.32.32,0,0,0,.51-.24c0-.46-.39-.25-.58-.38Z" transform="translate(-0.09 -73.9)"/><path class="cls-1" d="M114.19,106.07c-.2.59-.36,1.15-.57,1.69a6.94,6.94,0,0,1-1.43,2.43.58.58,0,0,1-.78.13,1.71,1.71,0,0,1-.93-1.49,9.72,9.72,0,0,1,1.37-5.93,1.21,1.21,0,0,1,.2-.26.86.86,0,0,1,.14-.13c.52.1.65.45.7.91a6.62,6.62,0,0,0,.26,1.34,1,1,0,0,0,.8.73v-.42a2.31,2.31,0,0,1,1-2,9.73,9.73,0,0,0,.92-.78c.25-.24.22-.5-.1-.61a1.18,1.18,0,0,1-.86-1.43v0a1.46,1.46,0,0,0-.82-1.52,2.56,2.56,0,0,1-.48-.33,1.08,1.08,0,0,1-.21-1.52l0,0c.27-.38.58-.74.86-1.13a3.77,3.77,0,0,0,.37-.65c.24-.53,0-.82-.55-.75a2.48,2.48,0,0,0-.71.24,1.71,1.71,0,0,0-.54.38,5.23,5.23,0,0,1-2.42,1.49,2,2,0,0,0-1.09,1.16,12.36,12.36,0,0,1-3.17,3.8c-.17.15-.35.28-.52.42a1.78,1.78,0,0,1-1-2,5.31,5.31,0,0,1,.34-1.07,1.48,1.48,0,0,1,.81-.8c1.13-.5,2.26-1,3.37-1.56a4.86,4.86,0,0,0,1.24-.82,33.15,33.15,0,0,1,6.2-5,3.79,3.79,0,0,0,.4-.3l.67-.57c.18-.16.41-.36.21-.58s-.39-.09-.59-.08a3.71,3.71,0,0,0-.47.16,1,1,0,0,1-1.31-.54,1,1,0,0,1-.07-.46,4.74,4.74,0,0,1,.06-.92c.06-.31-.22-.58-.52-.31a6.63,6.63,0,0,0-1,1.12c-.28.4-.49.84-.76,1.25a.48.48,0,0,1-.62.17A1.14,1.14,0,0,1,112,88a.52.52,0,0,1,.06-.13,4.68,4.68,0,0,1,2-1.94c.58-.32,1.17-.65,1.73-1a8.38,8.38,0,0,0,1.15-.83,1.76,1.76,0,0,0,.51-2.33A17,17,0,0,0,116,79.56a.75.75,0,0,1,0-1.06l0,0a4.78,4.78,0,0,1,.42-.34.9.9,0,0,1,1.12,0c.43.31.9.56,1.32.87a2,2,0,0,1,.89,1.84,6.46,6.46,0,0,0,.06,1.08,2.37,2.37,0,0,0,.18.53c.18-.21.35-.33.39-.49a16.43,16.43,0,0,0,.52-2.31c.1-.92,0-1.87.11-2.79A4.35,4.35,0,0,1,122.59,74a.78.78,0,0,1,1,.15A1.64,1.64,0,0,1,123.9,76c-.32.88-.66,1.74-1,2.62a4.91,4.91,0,0,0-.35,2.48,1.19,1.19,0,0,0,1.08-.3,6.63,6.63,0,0,0,1.12-1,.92.92,0,0,1,1-.28,1.15,1.15,0,0,1,.76,1,3.6,3.6,0,0,1-2,3.28c-.55.25-1.08.53-1.6.83a8,8,0,0,0-1.29,1.1c-.29.31-.06.72.38.75.71,0,1.42.14,2.13.13a3.83,3.83,0,0,0,1.24-.27c.68-.25,1.34-.57,2-.81a2.38,2.38,0,0,1,1.87,0,1.06,1.06,0,0,1,.36.37c.26.41.09.69-.27,1a10.41,10.41,0,0,1-3.29,1.4c-.93.28-1.88.53-2.79.86a3,3,0,0,0-1.08.75c-.34.36-.25.74.12,1.07a1.62,1.62,0,0,1,.49,2.23c-.11.29-.23.57-.33.86a1.63,1.63,0,0,0,.31,1.75,2,2,0,0,1,.69,1.83c-.06.24.09.39.34.48a2.12,2.12,0,0,1,1.49,1.61.58.58,0,0,1-.14.46c-.43.3-.89.58-1.34.84l-1.84,1a.72.72,0,0,0-.37.84,6.37,6.37,0,0,1,.07.74,17.17,17.17,0,0,1,2.12.62,6.24,6.24,0,0,1,3.78,4,1.53,1.53,0,0,1-.47,1.79c-.69.59-1.17.7-1.89.14a4.82,4.82,0,0,1-1.12-1.22c-.41-.61-.72-1.29-1.1-1.93-.21-.37-.47-.72-.7-1.08a.46.46,0,0,0-.57-.2.43.43,0,0,0-.35.44c-.07,1-.12,2-.23,3a8.23,8.23,0,0,1-.35,1.92,3.36,3.36,0,0,1-.84,1.26,1.56,1.56,0,0,1-2.2.16l-.06-.06a4.28,4.28,0,0,1-1.63-3.64.59.59,0,0,1,.59-.59.85.85,0,0,1,.22,0c1.7.47,1.42.21,1.57-1a11.74,11.74,0,0,0-.06-2.37c0-.53-.27-.63-.75-.42a2.69,2.69,0,0,0-.91.57A2.68,2.68,0,0,1,114.19,106.07Zm5.24-14.35c-.28,0-.62,0-.73.15a18.87,18.87,0,0,0-1.12,1.73.49.49,0,0,0,0,.41.43.43,0,0,0,.55.25c.34-.1.68-.21.78-.6C119.1,93,119.26,92.42,119.43,91.72ZM123.21,83a2.08,2.08,0,0,0-.38-.55c-.28-.2-.5,0-.69.24a1.12,1.12,0,0,0-.12,1.29c.11.16.33.34.48.32a.74.74,0,0,0,.45-.4A5.47,5.47,0,0,0,123.21,83Z" transform="translate(-0.09 -73.9)"/><path class="cls-1" d="M16.31,74.9c.38.15.76.28,1.14.44a3,3,0,0,1,2,2.09,4.77,4.77,0,0,1-.06,1.51c-.09.66-.31,1.3-.36,2s.25,1,1,.87a8.22,8.22,0,0,0,1.09-.17,1,1,0,0,1,1.2.69c.11.3-.06.47-.22.63-.61.57-1.27,1.1-1.88,1.68a19.27,19.27,0,0,0-1.53,1.6,2,2,0,0,0-.35,1.86c.08.25.21.33.44.25L20,87.9a10.42,10.42,0,0,1,1.89-.61,3.63,3.63,0,0,1,3.77,2,9.22,9.22,0,0,1,.78,2A1.66,1.66,0,0,1,26.1,93a20.89,20.89,0,0,1-2.21,2c-1.05.78-2.18,1.46-3.29,2.16a6.33,6.33,0,0,1-1,.44.73.73,0,0,0-.53.82v.64a1.29,1.29,0,0,1-.84,1.43,10.29,10.29,0,0,1-1.36.61.59.59,0,0,0-.43.56c-.05.66-.11,1.32-.15,2a.33.33,0,0,0,.28.37.14.14,0,0,0,.09,0,22.08,22.08,0,0,0,2.44-.19,5.47,5.47,0,0,1,6.18,4,3.66,3.66,0,0,1-1.58,4,.49.49,0,0,1-.41,0A5.73,5.73,0,0,1,22.1,111c-.74-.71-1.41-1.5-2.16-2.2a9.77,9.77,0,0,0-1.6-1.19,2.25,2.25,0,0,0-1.86-.16.48.48,0,0,0-.39.55c0,1.61.09,3.22.08,4.83a5.38,5.38,0,0,1-.67,2.67,2,2,0,0,1-2.63,1.06,2.39,2.39,0,0,1-.22-.12,7.28,7.28,0,0,1-3.45-3.62c-.11-.25-.06-.44.2-.49q.64-.11,1.29-.15h.6a1.16,1.16,0,0,0,1.31-1,.17.17,0,0,0,0-.07,12.8,12.8,0,0,0,.36-3.9,10.52,10.52,0,0,0-.3-1.1,2.76,2.76,0,0,1-.07-.86,4.06,4.06,0,0,1,.35-.87,3,3,0,0,0,.13-2,.42.42,0,0,0-.31-.31,14.52,14.52,0,0,0-1.48.1,6,6,0,0,0-.92.18A1.3,1.3,0,0,1,9.22,102a3.12,3.12,0,0,1,1.06-1.25c.57-.42,1.17-.81,1.75-1.23A3.24,3.24,0,0,0,13.47,96a1.6,1.6,0,0,0-1.53.28c-.49.37-.94.82-1.4,1.24a.65.65,0,0,1-.91.11l0,0c-.44-.37-.56-.76-.22-1.1A15.15,15.15,0,0,1,11.1,95c.62-.46,1.3-.82,1.93-1.26a3.6,3.6,0,0,0,.79-.77,2.87,2.87,0,0,0,.26-.71c-.94-.06-1.73.46-2.66,0,.31-.32.57-.61.86-.87a12,12,0,0,0,1.14-1,2.7,2.7,0,0,0,.48-.94c.12-.39-.12-.61-.52-.54-1.2.22-2.4.47-3.61.64a3.39,3.39,0,0,1-2.34-.48.56.56,0,0,1-.17-.91A11.88,11.88,0,0,1,9,86.73c1.16-.76,2.38-1.44,3.58-2.16.24-.15.47-.32.72-.46a3.76,3.76,0,0,0,1.85-3.28,11.41,11.41,0,0,0-.33-4.19c-.27-.85.08-1.39,1-1.76Zm2.26,19.57c.19-.06.37-.06.46-.16A4.3,4.3,0,0,0,20.5,90.9a.59.59,0,0,0-.09-.31A1.43,1.43,0,0,0,19,90.1a1.43,1.43,0,0,0-1.32,1.54,1.35,1.35,0,0,0,.32.79,2.8,2.8,0,0,1,.5,1.42A4.23,4.23,0,0,0,18.57,94.47Z" transform="translate(-0.09 -73.9)"/><path class="cls-1" d="M5.77,93.46a3.24,3.24,0,0,1,1,2.14,19.27,19.27,0,0,0,1.52,4.87,21,21,0,0,1,1,3.06,3,3,0,0,1-.46,2.57.84.84,0,0,1-1.18.13l0,0a5.62,5.62,0,0,1-1.76-3.46,24.77,24.77,0,0,1-.76-5.43A7.71,7.71,0,0,1,5.56,94,2.21,2.21,0,0,1,5.77,93.46Z" transform="translate(-0.09 -73.9)"/><path class="cls-1" d="M.1,113.32a5,5,0,0,1,1.49-3.06.5.5,0,0,1,.43-.08,2.22,2.22,0,0,1,.64.69,1.48,1.48,0,0,0,1.44,1h.38c.54.13.73.4.56.91a4.32,4.32,0,0,1-3,3.13,1,1,0,0,1-.94-.14A2.75,2.75,0,0,1,.1,113.32Z" transform="translate(-0.09 -73.9)"/></g></g></svg>