<svg id="图层_1" data-name="图层 1" xmlns="http://www.w3.org/2000/svg" viewBox="0 0 67.35 67.35"><defs><style>.cls-1{fill:#fff;}.cls-2{fill:#d6191d;}.cls-3{fill:#236735;fill-rule:evenodd;}.cls-4{fill:#e7372f;}.cls-5{fill:#206735;}</style></defs><g id="图层_2" data-name="图层 2"><g id="图层_1-2" data-name="图层 1-2"><circle class="cls-1" cx="34.08" cy="33.43" r="32.54"/><path class="cls-2" d="M15.55,50a.94.94,0,0,0,.09-.73c-.21-.3-.4,0-.57.16a1.52,1.52,0,0,1-.94.36,5.42,5.42,0,0,1-.73-.35c-.15-.08-.62-.4-.78-.24s.56.79.55,1c-.32.06-.61-.31-.91-.16,0,.24.26.29.37.47-.4,0-.73-.43-1.12-.2.12.32.49.16.67.44-.17.3-.57.2-.8.18s-.32-.31-.54-.19c0,.25.3.33.35.51-.11.27-.5.22-.64.3s-.11.14-.16.18c-.33.28-.84.54-1,.3s0-.24-.13-.37-.18.26-.23.41c-.11.32-.33,1,.25.9a4.38,4.38,0,0,0,1.39-.63.84.84,0,0,1,.07.84c-.1.23-.46.54-.15.77.82.23,1.4-.83.83-1.61v-.27c.3-.06.6-.34.89-.26.09,0,.17.15.29.22l.3.13a5.78,5.78,0,0,0,.63.28.56.56,0,0,0,.71-.29c.25-.4.06-.82-.34-1.25.24-.22.56-.12.84,0,.12,0,.21.14.32,0s-.17-.31-.21-.53C15,50.13,15.33,50.19,15.55,50Z" transform="translate(0 0)"/><path class="cls-2" d="M10.28,50.23a3.39,3.39,0,0,0-.33.42c-.14.28.1.52.36.38s.15-.31.34-.34c.15-.47.71-.81,1-1.26h0A3.4,3.4,0,0,0,10.28,50.23Z" transform="translate(0 0)"/><path class="cls-2" d="M8.69,50.22a2.92,2.92,0,0,0-.5.05c-.28.1-.43.48-.24.66a1,1,0,0,0,.86,0l-.15-.25c0-.11.13-.2.16-.3A.29.29,0,0,0,8.69,50.22Z" transform="translate(0 0)"/><path class="cls-2" d="M13.85,51.26c.15-.16-.13-.43-.34-.31s0,.15-.1.22-.21,0-.24.12A.82.82,0,0,0,13.85,51.26Z" transform="translate(0 0)"/><path class="cls-2" d="M13.13,51.29c0-.09.17-.1.24-.12s0-.16.1-.22.49.15.34.31S13.26,51.35,13.13,51.29Z" transform="translate(0 0)"/><path class="cls-2" d="M20.16,59.77c.14-.23-.21-.33-.4-.6a.49.49,0,0,1,0-.41c.24-.54.67-.57,1.14-.79a2.8,2.8,0,0,0,.67-.47c.44-.38.57-.91.11-1.24-.27.1-.29.4-.46.56s-.19.12-.27.2a4.45,4.45,0,0,1-.92.87c-.16.09-.36.14-.52.23s-.13.12-.2.15l-.65.3a1.07,1.07,0,0,0-.43,1,.88.88,0,0,0,1.14.18C19.59,59.77,20,60.11,20.16,59.77Z" transform="translate(0 0)"/><path class="cls-2" d="M20.87,58.54s-.08-.09-.1-.09c-.29-.13-.2.54-.2.68s-.12.43.08.64C21.13,59.63,21.09,58.83,20.87,58.54Z" transform="translate(0 0)"/><path class="cls-2" d="M17.75,57.69c0-.3.37-.3.5-.44s0-.06,0-.09a1.23,1.23,0,0,0-.44-.16c-.12,0-.29.06-.39-.08s.33-.5.57-.56h.33c.26.09.46.41.72.27a3.06,3.06,0,0,0,.59-.55c.15-.19.08-.35.29-.47s.17.4.16.61a1.51,1.51,0,0,1-.08.6,3.49,3.49,0,0,1-.87.67c-.19.14-.36.32-.53.47l-.5.4c-.21.19-.41.37-.59.25s-.12-.2-.21-.26-.76.07-1-.23a.37.37,0,0,1,0-.53.36.36,0,0,1,.31-.12c.11,0,.18.09.28.13A1.43,1.43,0,0,0,17.75,57.69Z" transform="translate(0 0)"/><path class="cls-2" d="M30.42,58.67c.17.14,0,.52.25.55s.38-.42.68-.25c-.17.49-.91.52-1.11,1a.89.89,0,0,1-.06.39,1.76,1.76,0,0,0-.09.91c.23.06.62-.06.81.12a.54.54,0,0,1-.37.64c-.23-.08,0-.53-.19-.6s-.23.1-.29.19a3,3,0,0,1-.16,1.4c-.06.16-.14.37-.23.39-.36.09-.2-.54-.29-.79.29-.11.36-.58.27-.9-.28-.07-.35.23-.51.33s-.22,0-.29.14,0,.44-.23.46-.46-.41-.37-.64a.56.56,0,0,1,.41-.27c.31-.06.5,0,.74-.14a.78.78,0,0,0,.27-.27v-.25c0-.26.16-.59,0-.76-.18,0-.32.17-.45.27a4.43,4.43,0,0,0-.39.37,5.51,5.51,0,0,0-.7.82,5.82,5.82,0,0,1-.2,1.81.22.22,0,0,1-.21.26h0c-.42,0-.46-.63-.45-1-.3.11-.37.61-.64.82l-.21-.06c-.35-.53.28-1,.47-1.44-.28,0-.69-.4-.67-.63s.46-.35.59-.44.26-.24.41-.35a3.39,3.39,0,0,0,.42-.33,1.73,1.73,0,0,0,.27-.93c0-.19,0-.42.15-.45.37-.06.24.57.22.9a9.43,9.43,0,0,0-.14,1.19c.21,0,.34-.22.49-.33a1.51,1.51,0,0,0,.44-.35,1.59,1.59,0,0,1,.45-.37c.16-.12.35-.26.39-.41s0-.48.06-.7A.47.47,0,0,1,30.42,58.67Z" transform="translate(0 0)"/><path class="cls-2" d="M39.17,57.65c0,.17-.14.34-.12.57s.36.82.11,1c-.11-.08-.1-.23-.16-.4s-.31-.22-.5-.19-.25.14-.2.25.19.09.28.16a1,1,0,0,1,.27.4c.06.33-.46.64-.62.88s-.11.6.18.41-.07-.65.32-.57c.07.09,0,.23.07.38s.27-.15.42-.15a1.77,1.77,0,0,1-.44.73,3.43,3.43,0,0,0-.56.92,3.17,3.17,0,0,0-.7.76c0,.16.06.37.2.41.35-.13.22-.5.43-.7a.8.8,0,0,1,.32-.59c.15-.16.26-.51.51-.51.17.3-.2.46-.1.7s.46.09.44.49c.47.1-.16.48.18.79.27.16.3-.22.53-.24,0,.17.28.29.22.48a.31.31,0,0,0-.33.07c0,.34.33.35.44.59.72.4.64-.84.5-1.24.32,0,.49.57.83.53a.34.34,0,0,0,.29-.35h0v-.07c-.06-.17-.42-.37-.64-.51s-.43-.16-.59-.32a1.6,1.6,0,0,1,.32-.45c0-.26-.23-.25-.38-.31s0-.14-.1-.23-.18-.08-.22-.18.06-.41,0-.59-.19-.06-.3-.21c.22-.39.78-.59,1.08-.92a.35.35,0,0,0-.11-.26c-.47.1-.75.56-1.27.54a.75.75,0,0,1,.09-.3c.43-.11.47-.66.38-1-.33-.19-.39.34-.55.42-.31-.35,0-.91-.24-1.29A.56.56,0,0,0,39.17,57.65Z" transform="translate(0 0)"/><path class="cls-2" d="M39,63a1.46,1.46,0,0,0,.26,1.31.31.31,0,0,0,.19,0,2.21,2.21,0,0,1,.07-.72c.07-.23-.25-.13-.33-.26s0-.28-.15-.28S39,62.94,39,63Z" transform="translate(0 0)"/><path class="cls-2" d="M39.35,57.69a.1.1,0,0,0,.1-.09h0c0-.09-.14-.16-.18-.2S39.27,57.6,39.35,57.69Z" transform="translate(0 0)"/><path class="cls-2" d="M39.4,60.33h.11a.58.58,0,0,0,.1-.13.54.54,0,0,1-.06-.25A.34.34,0,0,0,39.4,60.33Z" transform="translate(0 0)"/><path class="cls-2" d="M39.28,57.39c.07,0,.14.2,0,.27s-.08,0-.13,0S39.19,57.44,39.28,57.39Z" transform="translate(0 0)"/><path class="cls-2" d="M39.58,60a.54.54,0,0,0,.06.25c0,.05-.09.08-.1.13s-.07,0-.11,0A.34.34,0,0,1,39.58,60Z" transform="translate(0 0)"/><path class="cls-2" d="M48.16,57.23a1,1,0,0,0,.13,1.2,1.4,1.4,0,0,0,1,.28c.4-.08.82-.41,1-.06s-.63.75-1,.75-.93-.61-1.41-.67a2.82,2.82,0,0,0-.25.49v.09l-.09.24a2.33,2.33,0,0,1-.23.72c-.09.12-.41.35-.63.29-.15-.22,0-.36.14-.51a1.51,1.51,0,0,0,.21-.49,2.31,2.31,0,0,0,.12-.52c.06-.21.27-.49.09-.73a2.15,2.15,0,0,1-.48.52,1.91,1.91,0,0,1-.51-.17.47.47,0,0,1-.23-.25c0-.09.36-.45.52-.61s.41-.44.41-.64c0-.43-.59-1-.09-1.21.4.09.23.38.51.66a.27.27,0,0,0,.24.06c.2,0,.28-.28.46-.34s.53,0,.58.22S48.25,57,48.16,57.23Z" transform="translate(0 0)"/><path class="cls-2" d="M52.85,50.73c.21,0,.26.34,0,.28S52.72,50.81,52.85,50.73Z" transform="translate(0 0)"/><path class="cls-2" d="M52.67,52.06c0-.08.19,0,.09.11S52.67,52.13,52.67,52.06Z" transform="translate(0 0)"/><path class="cls-2" d="M54,52.89c.08,0,.16.1.24.13a.49.49,0,0,1-.28.09.13.13,0,0,1,0-.18Z" transform="translate(0 0)"/><path class="cls-2" d="M52.85,51a.51.51,0,0,0-.22-.59c-.22-.16-.31-.15-.23-.3s.43,0,.56.15.1.38.26.51.18,0,.26.07.27.47.49.52h0c.22-.37-.71-.57-.81-.88v-.27a2.26,2.26,0,0,1,0-.52c.09-.15.32-.28.45-.23s.14.19.22.31a3,3,0,0,1,.38.61.3.3,0,0,0,.23,0c.21-.38.47-.84.86-.7s.58.4.54.66c-.2.09-.49.14-.64.4s0,.23-.08.34.06,0,.1,0a4.69,4.69,0,0,0-.21.46.49.49,0,0,1,.26.63h0a.36.36,0,0,1-.08.12c.28-.13.38-.5.57-.68a.6.6,0,0,1,.81.12c.09.37-.55.38-.5.72a2.83,2.83,0,0,1,1,1.63,1.26,1.26,0,0,1-.44.72c-.15.1-.4,0-.59,0a1.08,1.08,0,0,1-.59-.11c.19-.33.8-.19.82-.64s-.32-.93-.68-1a4.33,4.33,0,0,0-.22.56.51.51,0,0,1-.24.51.91.91,0,0,1-.65,0c-.13-.1-.1-.37-.07-.49s.46-.65.33-.82a.24.24,0,0,0-.28,0c-.1.08-.07.22-.14.32a.36.36,0,0,1-.48.19h0l-.09-.06a1.08,1.08,0,0,1,.22-.53,6,6,0,0,0,.26-.75.66.66,0,0,0,0-.44c-.11.16-.11.28-.28.51a5.36,5.36,0,0,0-.51,1.27c.24.21.54.57.32.81a.35.35,0,0,1-.5-.08h0c-.13-.19-.24-.59-.39-.84s-.45-.51-.36-.63.42.48.66.34,0-.16,0-.24c-.47-.28-.78-.72-1.19-1-.12.11,0,.2-.14.32s-.28-.32-.2-.43.5-.1.69,0c.38.14.69.67,1,.75.25-.34-.2-.36-.46-.54a1,1,0,0,1-.22-.23c-.27-.26-1.1-.83-.89-1.08S52.65,51.09,52.85,51Z" transform="translate(0 0)"/><path class="cls-2" d="M52.85,51.07c.22.06.17-.3,0-.28S52.76,51,52.85,51.07Z" transform="translate(0 0)"/><path class="cls-2" d="M52.76,52.17c.1-.06,0-.19-.09-.11S52.7,52.11,52.76,52.17Z" transform="translate(0 0)"/><path class="cls-2" d="M54,53.11a.49.49,0,0,0,.28-.09c-.08,0-.16-.09-.24-.13a.12.12,0,0,0-.07.17Z" transform="translate(0 0)"/><path class="cls-3" d="M33.66,0A32.72,32.72,0,0,1,57.37,9.75a32.67,32.67,0,0,1,9.94,25A32.51,32.51,0,0,1,57.24,57.72,33.59,33.59,0,0,1,10,57.6,33,33,0,0,1,0,32.25,33.6,33.6,0,0,1,33.66,0Zm.26,65.37a31.73,31.73,0,1,0-.57,0Z" transform="translate(0 0)"/><path class="cls-3" d="M56.9,33.64A23,23,0,0,1,11,36.2a20.3,20.3,0,0,1,0-2.34A23,23,0,0,1,34.05,11H35A22.9,22.9,0,0,1,56.9,33.64ZM56,34V32A21.43,21.43,0,0,0,50.79,19.6a21.29,21.29,0,0,0-9.47-6.49,21.69,21.69,0,0,0-13-.45,21.17,21.17,0,0,0-11.76,8A21.63,21.63,0,0,0,12.9,39.81a.52.52,0,0,0,.54.46,9.49,9.49,0,0,1,1.49.19,23.32,23.32,0,0,1,12.92,6.35,23.93,23.93,0,0,1,5.61,8.58c.06.16.25.27.39.4.11-.13.28-.25.33-.4a23.07,23.07,0,0,1,4.28-7.16,23.44,23.44,0,0,1,16.39-8.14.4.4,0,0,0,.42-.35A19.31,19.31,0,0,0,56,34Z" transform="translate(0 0)"/><polygon class="cls-3" points="34.98 14.76 52.12 37.9 43.48 38.01 34.98 28.06 33.17 29.8 39.66 38.01 33.41 38.01 29.82 34.08 26.59 37.9 16.04 38.01 34.98 14.76"/><path class="cls-4" d="M8.18,38.63l.13.64-2.44,2h0l2.71-.57.12.59-3.76.76-.09-.64,2.44-2h0L4.62,40l-.12-.59Z" transform="translate(0 0)"/><path class="cls-4" d="M5.94,35.34a2.37,2.37,0,0,1,1.54.26,1.44,1.44,0,0,1,.17,2.1,2.36,2.36,0,0,1-1.48.5,2.21,2.21,0,0,1-1.53-.27,1.47,1.47,0,0,1-.21-2.07l.05,0A2.32,2.32,0,0,1,5.94,35.34Zm0,.62a2.23,2.23,0,0,0-1.21.33.75.75,0,0,0-.25.6.73.73,0,0,0,.34.56,3.22,3.22,0,0,0,2.47-.19.71.71,0,0,0,.09-1,.69.69,0,0,0-.18-.16A2.2,2.2,0,0,0,6,36Z" transform="translate(0 0)"/><path class="cls-4" d="M8,31.81v.62l-1.7.87V34L8,34.05v.6l-3.83-.18.06-1.3a1.8,1.8,0,0,1,.3-1,1,1,0,0,1,.86-.36,1,1,0,0,1,.68.3,1.24,1.24,0,0,1,.29.61Zm-2.77.6a.62.62,0,0,0-.5.2,1.14,1.14,0,0,0-.21.71v.57L5.83,34v-.73a1,1,0,0,0-.12-.55.59.59,0,0,0-.49-.28Z" transform="translate(0 0)"/><path class="cls-4" d="M5.14,28.05l-.18,1,3.36.57-.1.59-3.37-.57-.17,1-.42-.07.45-2.65Z" transform="translate(0 0)"/><path class="cls-4" d="M9.42,25.4,9.25,26l-1.67-.52-.43,1.42,1.72.52L8.7,28,5,26.87l.17-.58,1.54.47.43-1.42-1.54-.47.17-.57Z" transform="translate(0 0)"/><path class="cls-4" d="M10.77,22.27,9.68,24.7l-3.5-1.56,1-2.31.39.17-.72,1.81,1.09.48.68-1.66L9,21.8l-.72,1.62L9.54,24l.84-1.88Z" transform="translate(0 0)"/><path class="cls-4" d="M12.58,19.22l-.32.54-1.21-.3-.59,1,.83.93-.33.53L8.3,18.81l.27-.45Zm-2,.13L9.19,19h0l1,1.06Z" transform="translate(0 0)"/><path class="cls-4" d="M13.67,16.06a1,1,0,0,1,.41.81,1.84,1.84,0,0,1-1.28,1.6.92.92,0,0,1-.84-.2l-.11-.09.38-.47.1.08a.64.64,0,0,0,.55.14.88.88,0,0,0,.48-.32.84.84,0,0,0,.23-.6.58.58,0,0,0-.24-.44.56.56,0,0,0-.47-.07,2.69,2.69,0,0,0-.69.31,2.25,2.25,0,0,1-.91.43.74.74,0,0,1-.63-.15,1,1,0,0,1-.36-.77,1.37,1.37,0,0,1,.33-.88,1.28,1.28,0,0,1,.88-.56,1.14,1.14,0,0,1,.77.24l-.37.47a.64.64,0,0,0-.45-.16.72.72,0,0,0-.48.28.8.8,0,0,0-.19.48.44.44,0,0,0,.19.39.47.47,0,0,0,.36.1,2.12,2.12,0,0,0,.74-.36,2.58,2.58,0,0,1,.93-.4A.85.85,0,0,1,13.67,16.06Z" transform="translate(0 0)"/><path class="cls-4" d="M14.47,12l-.75.73,2.39,2.44-.43.42L13.29,13.1l-.71.71-.3-.3,1.92-1.88Z" transform="translate(0 0)"/><path class="cls-4" d="M20.76,7.63,18.91,8.69l.67,1.12L21,9l.21.36-1.4.81.86,1.5-.53.29-2-3.36,2.41-1.35Z" transform="translate(0 0)"/><path class="cls-4" d="M24.85,7.49A2.42,2.42,0,0,1,25.08,9a1.49,1.49,0,0,1-2,.83,2.3,2.3,0,0,1-.93-1.26A2.23,2.23,0,0,1,22,7.06a1.51,1.51,0,0,1,2-.82A2.39,2.39,0,0,1,24.85,7.49Zm-.57.23a2.18,2.18,0,0,0-.69-1,.78.78,0,0,0-1.07.49,2.13,2.13,0,0,0,.23,1.24,2.08,2.08,0,0,0,.7,1.05.7.7,0,0,0,.66.06.65.65,0,0,0,.42-.5,2.32,2.32,0,0,0-.27-1.34Z" transform="translate(0 0)"/><path class="cls-4" d="M28.85,8.37l-.6.16L26.92,7.16l-.66.18.42,1.6-.58.15-1-3.71,1.26-.33a2.11,2.11,0,0,1,1,0,.93.93,0,0,1,.59.76,1,1,0,0,1-.1.7,1.2,1.2,0,0,1-.5.45Zm-1.4-2.46a.6.6,0,0,0-.34-.42,1.17,1.17,0,0,0-.74,0l-.52.14.34,1.28.7-.18a1,1,0,0,0,.49-.28A.55.55,0,0,0,27.45,5.91Z" transform="translate(0 0)"/><path class="cls-4" d="M32.08,7.94l-2.64.33L29,4.46l2.51-.31.06.42-2,.24L29.68,6l1.84-.18v.43l-1.76.22L30,7.81l2-.25Z" transform="translate(0 0)"/><path class="cls-4" d="M35.43,6.81a1,1,0,0,1-.38.83,1.57,1.57,0,0,1-1,.3,1.43,1.43,0,0,1-1-.3,1,1,0,0,1-.37-.83v-.1h.6v.1a.63.63,0,0,0,.23.51.83.83,0,0,0,.55.18.81.81,0,0,0,.61-.2.59.59,0,0,0,.18-.49.58.58,0,0,0-.24-.41,2.28,2.28,0,0,0-.68-.34,2.46,2.46,0,0,1-.9-.45A.72.72,0,0,1,32.75,5a.91.91,0,0,1,.37-.76A1.44,1.44,0,0,1,34,4a1.28,1.28,0,0,1,1,.34,1.29,1.29,0,0,1,.31.75h-.6a.59.59,0,0,0-.16-.44.71.71,0,0,0-.53-.2.84.84,0,0,0-.49.15.5.5,0,0,0-.18.39.43.43,0,0,0,.14.35,2.22,2.22,0,0,0,.75.34,2.85,2.85,0,0,1,.89.48A.86.86,0,0,1,35.43,6.81Z" transform="translate(0 0)"/><path class="cls-4" d="M39.17,4.94l-1-.14L37.7,8.18l-.59-.08.47-3.38-1-.14.06-.42,2.66.36Z" transform="translate(0 0)"/><path class="cls-4" d="M42.11,9.2,41.51,9,41,7.19,40.39,7,40,8.61l-.58-.16,1-3.7,1.26.35a1.92,1.92,0,0,1,.91.51.93.93,0,0,1,.16.92.88.88,0,0,1-.44.6,1.2,1.2,0,0,1-.66.14Zm0-2.83A.59.59,0,0,0,42,5.84a1.19,1.19,0,0,0-.65-.37l-.53-.15L40.5,6.6l.7.19a.92.92,0,0,0,.57,0,.51.51,0,0,0,.38-.42Z" transform="translate(0 0)"/><path class="cls-4" d="M46.73,7l-2,1.46L44.06,10l-.48-.2.67-1.59-.33-2.41.55.23.2,1.87h0l1.48-1.16Z" transform="translate(0 0)"/><path class="cls-4" d="M51.38,13.21a1.08,1.08,0,0,1-.78.48,1.47,1.47,0,0,1-1-.38,1.39,1.39,0,0,1-.62-.88,1.11,1.11,0,0,1,.26-.87L50.9,9.41l.48.37-1.66,2.14a.66.66,0,0,0-.18.57.9.9,0,0,0,.87.67.66.66,0,0,0,.5-.31l1.67-2.15.48.37Z" transform="translate(0 0)"/><path class="cls-4" d="M53.07,16.42,52.61,16l1-3h0l-2,2-.42-.43,2.66-2.72.46.46-1,3h0l2-2,.43.42Z" transform="translate(0 0)"/><path class="cls-4" d="M54.52,18.22l-.36-.47,3-2.35.37.47Z" transform="translate(0 0)"/><path class="cls-4" d="M60.31,20.14l-4,.85-.26-.45,2.67-3.1L59,18,57,20.26v0l3-.71Z" transform="translate(0 0)"/><path class="cls-4" d="M58.3,25l-1.06-2.44,3.53-1.52,1,2.32-.39.17-.8-1.73-1.09.47.7,1.63-.39.17-.7-1.63L57.84,23l.82,1.9Z" transform="translate(0 0)"/><path class="cls-4" d="M59.3,28.33l-.17-.6,1.33-1.37-.19-.65-1.59.46-.17-.57,3.68-1.07.39,1.28a1.89,1.89,0,0,1,0,1,.91.91,0,0,1-.7.61.84.84,0,0,1-.74-.05,1.3,1.3,0,0,1-.47-.49Zm2.43-1.46a.6.6,0,0,0,.41-.35,1.17,1.17,0,0,0,0-.74L62,25.23l-1.27.36.2.71a.94.94,0,0,0,.3.48A.54.54,0,0,0,61.73,26.87Z" transform="translate(0 0)"/><path class="cls-4" d="M60.9,31.36a1,1,0,0,1-.87-.24,1.58,1.58,0,0,1-.46-1,1.51,1.51,0,0,1,.15-1.06,1,1,0,0,1,.72-.48h.16l.09.59h-.13a.67.67,0,0,0-.48.31,1,1,0,0,0-.09.57.88.88,0,0,0,.29.58.59.59,0,0,0,.48.12.6.6,0,0,0,.38-.3,2,2,0,0,0,.23-.72,2.7,2.7,0,0,1,.3-1,.79.79,0,0,1,.54-.36.94.94,0,0,1,.81.25,1.48,1.48,0,0,1,.43.84,1.12,1.12,0,0,1-.89,1.42l-.09-.6a.52.52,0,0,0,.42-.22.72.72,0,0,0,.12-.55.88.88,0,0,0-.23-.46.45.45,0,0,0-.41-.12.51.51,0,0,0-.32.19,2.47,2.47,0,0,0-.23.79,2.46,2.46,0,0,1-.34.95A.77.77,0,0,1,60.9,31.36Z" transform="translate(0 0)"/><path class="cls-4" d="M60,33.81v-.6l3.84-.13v.6Z" transform="translate(0 0)"/><path class="cls-4" d="M63.14,38.47l.09-1-3.4-.3v-.6l3.4.3.09-1h.53l-.22,2.64Z" transform="translate(0 0)"/><path class="cls-4" d="M62.79,42.45,61,40.81l-1.69-.36.13-.59,1.69.36,2.31-.75-.12.58-1.79.55h0l1.41,1.21Z" transform="translate(0 0)"/><path class="cls-5" d="M30.41,43.75a3.06,3.06,0,0,1-.58.44v-.38a2.53,2.53,0,0,0,.72-.7h.21v3h-.35Z" transform="translate(0 0)"/><path class="cls-5" d="M30.85,46.29h-.58V44a2.71,2.71,0,0,1-.41.28l-.17.1v-.58h0a2.62,2.62,0,0,0,.69-.68h.47Zm-.35-.23h.12V43.27h0a3.17,3.17,0,0,1-.67.65V44a2.31,2.31,0,0,0,.39-.31l.19-.2Z" transform="translate(0 0)"/><path class="cls-5" d="M32.24,46.23a10.12,10.12,0,0,0,.61-1.18,1,1,0,0,1-.73-.11.75.75,0,0,1-.35-.5,1.42,1.42,0,0,1,0-.58,1,1,0,0,1,.22-.42,1,1,0,0,1,.36-.24,1.59,1.59,0,0,1,.38-.07,1.37,1.37,0,0,1,.34.07,1.26,1.26,0,0,1,.32.21,1,1,0,0,1,.19.3.81.81,0,0,1,0,.38,1.47,1.47,0,0,1-.17.61q-.18.39-.87,1.53Zm-.1-2a.63.63,0,0,0,.19.38.53.53,0,0,0,.67,0,.58.58,0,0,0,.22-.29.86.86,0,0,0,0-.45.63.63,0,0,0-.19-.31.58.58,0,0,0-.32-.12.45.45,0,0,0-.28,0,.55.55,0,0,0-.26.28.92.92,0,0,0,0,.52Z" transform="translate(0 0)"/><path class="cls-5" d="M32.69,46.35H32l.11-.18c.19-.32.37-.66.54-1a1,1,0,0,1-.6-.16.82.82,0,0,1-.4-.57,1.34,1.34,0,0,1,0-.63,1.24,1.24,0,0,1,.24-.47,1.12,1.12,0,0,1,1.57,0,1.11,1.11,0,0,1,.22.34,1,1,0,0,1,.06.42,1.53,1.53,0,0,1-.19.66c-.12.25-.41.77-.87,1.54Zm-.25-.23h.14c.43-.74.71-1.23.82-1.47a1.22,1.22,0,0,0,.17-.56,1,1,0,0,0,0-.35.78.78,0,0,0-.16-.24.87.87,0,0,0-.28-.19.91.91,0,0,0-.65,0,.85.85,0,0,0-.31.21,1.09,1.09,0,0,0-.19.37,1.14,1.14,0,0,0,0,.52.63.63,0,0,0,.3.43.86.86,0,0,0,.65.1h.22l-.09.2C32.85,45.43,32.66,45.81,32.44,46.12Zm.21-1.23a.52.52,0,0,1-.39-.17.62.62,0,0,1-.23-.45h0a1,1,0,0,1,.08-.5.63.63,0,0,1,.32-.34.93.93,0,0,1,.34-.06.67.67,0,0,1,.38.15.64.64,0,0,1,.22.37.89.89,0,0,1,0,.51h0a1.1,1.1,0,0,1-.26.34.69.69,0,0,1-.36.13Zm-.4-.64a.45.45,0,0,0,.16.3.37.37,0,0,0,.27.11.38.38,0,0,0,.25-.09.76.76,0,0,0,.18-.25.81.81,0,0,0,0-.38A.38.38,0,0,0,33,43.7a.39.39,0,0,0-.25-.1.33.33,0,0,0-.42.18.09.09,0,0,0,0,0,.72.72,0,0,0-.07.38Z" transform="translate(0 0)"/><path class="cls-5" d="M34.31,45.35c.09.32.23.49.43.53a.64.64,0,0,0,.75-.36,1,1,0,0,0,.07-.42.65.65,0,0,0-.13-.38.47.47,0,0,0-.29-.21.65.65,0,0,0-.39,0,.61.61,0,0,0-.36.24h-.3c0-.07.13-.58.33-1.52h1.43v.32H34.68a4.91,4.91,0,0,1-.17.76,1,1,0,0,1,.93,0,.86.86,0,0,1,.31.26,2,2,0,0,1,.14.34,1.09,1.09,0,0,1,0,.36,1.69,1.69,0,0,1-.08.39.77.77,0,0,1-.22.34.81.81,0,0,1-.34.21.92.92,0,0,1-.46.06.84.84,0,0,1-.51-.19,1,1,0,0,1-.32-.6Z" transform="translate(0 0)"/><path class="cls-5" d="M34.92,46.35h-.07a1,1,0,0,1-.56-.22,1,1,0,0,1-.37-.67v-.1l.54-.15v.11q.12.42.33.45a.52.52,0,0,0,.4-.05.45.45,0,0,0,.22-.25.57.57,0,0,0,.06-.36.64.64,0,0,0-.1-.33.41.41,0,0,0-.23-.16.65.65,0,0,0-.34,0,.5.5,0,0,0-.29.2v.06L34,44.81v-.14s.08-.34.33-1.5v-.09h1.6v.55H34.78a2.26,2.26,0,0,1-.1.45.91.91,0,0,1,.33,0,1.16,1.16,0,0,1,.48.11.86.86,0,0,1,.36.32,1.94,1.94,0,0,1,.15.36.86.86,0,0,1,0,.39,1.56,1.56,0,0,1-.08.43.9.9,0,0,1-.25.38,1,1,0,0,1-.38.24A1.17,1.17,0,0,1,34.92,46.35Zm-.78-.83a.73.73,0,0,0,.25.43.89.89,0,0,0,.86.11.73.73,0,0,0,.31-.19.59.59,0,0,0,.18-.28,1.16,1.16,0,0,0,.07-.37.86.86,0,0,0,0-.32,1.69,1.69,0,0,0-.13-.31.68.68,0,0,0-.26-.22,1.38,1.38,0,0,0-.39-.09,1.05,1.05,0,0,0-.44.1l-.24.11.08-.25a6.42,6.42,0,0,1,.17-.74v-.09h1.11v-.09H34.52c-.16.78-.24,1.13-.28,1.3h.1a.83.83,0,0,1,.85-.23.67.67,0,0,1,.35.25.88.88,0,0,1,.14.45,1,1,0,0,1-.08.46.73.73,0,0,1-.31.36.79.79,0,0,1-.56.07.63.63,0,0,1-.48-.5Z" transform="translate(0 0)"/><path class="cls-5" d="M36.39,46.11a.75.75,0,0,1,.25-.48,5.27,5.27,0,0,0,.58-.66,3.61,3.61,0,0,0,.46-.69.89.89,0,0,0,.08-.43.66.66,0,0,0-.17-.29.5.5,0,0,0-.33-.09.83.83,0,0,0-.35.14.59.59,0,0,0-.25.37l-.34,0a1.45,1.45,0,0,1,.36-.59.81.81,0,0,1,.52-.21h.32a1.08,1.08,0,0,1,.29.13.79.79,0,0,1,.25.29.89.89,0,0,1,.07.46,1.52,1.52,0,0,1-.28.65,10.06,10.06,0,0,1-1,1.15h1.27v.32H36.34Z" transform="translate(0 0)"/><path class="cls-5" d="M38.29,46.29h-2V46.1a.84.84,0,0,1,.28-.55,7.16,7.16,0,0,0,.57-.65,2.51,2.51,0,0,0,.44-.67.63.63,0,0,0,.07-.36.34.34,0,0,0-.12-.22.4.4,0,0,0-.25-.07.69.69,0,0,0-.29.12.87.87,0,0,0-.22.32v.09L36.21,44v-.13a1.54,1.54,0,0,1,.4-.64A1,1,0,0,1,37.2,43h.34a1.56,1.56,0,0,1,.33.14.92.92,0,0,1,.29.33,1,1,0,0,1,.08.53,1.53,1.53,0,0,1-.29.71,11.3,11.3,0,0,1-.8,1h1.14Zm-1.78-.23h1.55V46H36.65l.2-.17a13.51,13.51,0,0,0,.94-1.18A1.28,1.28,0,0,0,38,44a.61.61,0,0,0-.06-.4.71.71,0,0,0-.2-.25l-.25-.11h-.29a.8.8,0,0,0-.45.17,1.25,1.25,0,0,0-.28.41h.1a1.35,1.35,0,0,1,.26-.33.88.88,0,0,1,.41-.17.62.62,0,0,1,.41.12.54.54,0,0,1,.16.34.88.88,0,0,1-.09.48,3.88,3.88,0,0,1-.47.72,6.39,6.39,0,0,1-.59.68A.6.6,0,0,0,36.51,46.06Z" transform="translate(0 0)"/></g></g></svg>