<svg xmlns="http://www.w3.org/2000/svg" viewBox="0 0 301.77 81.23"><defs><style>.cls-1{fill:#231815;}.cls-2{fill:#9f0810;}.cls-3{fill:#006b38;}</style></defs><g id="图层_2" data-name="图层 2"><g id="图层_1-2" data-name="图层 1"><path class="cls-1" d="M180.92,48.05a1.1,1.1,0,0,1-1.34.84,2,2,0,0,1-1.26-1c-.72-1.23-.21-4.35-.23-5.06,0-.32-.07-.87-.41-1-.88-.19-2.28,3.23-3,4.55-.13.25-.72,1.81-1.76,1.57-.54-.12-2.36-1.06-1.23-3.44a16.18,16.18,0,0,1,3.7-4.62c.1-.1.26-.16.33-.28s.28-.51.2-.66a.82.82,0,0,0-.66-.23c-2.37.23-3.34-.35-4.21-2.47a1.16,1.16,0,0,1,.47-1.55c2.49-1.83,5-3.61,7.46-5.51a4.45,4.45,0,0,0,1.69-3.08c.12-1.27.1-2.56.32-3.82.18-1.1.65-1.48,1.41-1.4a1.54,1.54,0,0,1,1.24,1.78c-.17,1.61-.4,3.21-.64,4.81s-.54,3.25-.75,4.88c0,.32,0,.87.3,1s.71-.18,1-.38c1.72-1.32,3.44-2.65,5.1-4a47.52,47.52,0,0,0,3.65-3.29,3.42,3.42,0,0,0,.72-1.66c.2-1,.21-2,.38-3A3.39,3.39,0,0,1,195,18.8a1.07,1.07,0,0,1,1.32,0c.42.45.73,2.67,1.29,2.81a22.49,22.49,0,0,0,3.1-1.44c.31-.13.93-.21,1.18.11a1,1,0,0,1-.19,1.06,13.48,13.48,0,0,1-1.89,1.35,27.72,27.72,0,0,0-4.66,3.95c-1.66,2.43-1.36,3.86-1.09,6.13.27,2.09,3,1.22,3.82,1.22,1.4,0,2.09.86,1.58,2.11a6,6,0,0,1-1.66,2.24c-.31.26-1.63.44-1.59-2.32-.14-1.44-2-.69-2,.39.12,2.89-.91,10.74-3,10.31-.86-.17-1.24-3.15-1.3-4.28a1.11,1.11,0,0,1,.46-.92c1.59-.9,1.51-4.11,1.14-5a.2.2,0,0,0-.31-.08c-.91.68-4.53,3.56-4.92,4.74-.37.94-1.06,1.11-1.82.44a3.42,3.42,0,0,1-.84-3.17,2.8,2.8,0,0,1,2.47-1.54,6.5,6.5,0,0,1,1.08,0A5.15,5.15,0,0,0,191,35.31a2.44,2.44,0,0,0,.8-1.67c.09-1.43.15-2.87.18-4.3,0-.85-.42-1.06-1.17-.59a28.15,28.15,0,0,0-5.26,4.6,29.86,29.86,0,0,1-2.35,2.29,4.28,4.28,0,0,0-1.6,3.56C181.72,39.88,181.5,47.34,180.92,48.05Z"/><path class="cls-1" d="M256.13,44a48.23,48.23,0,0,0-3-4.23c-.72-.92-1.22-.88-1.9.09-1.21,1.72-5.63,8.38-7.2,9a4.78,4.78,0,0,1-3.44.06c-.77-.3-1.3-1-.74-1.62.38-.4,9.58-6.93,9.63-10.27a1.06,1.06,0,0,0-.13-.67c-.16-.29-1.17.22-1.28.46-2.21,2-4,.7-5.46-1.21a3.31,3.31,0,0,1-.53-1.16,1.2,1.2,0,0,1,.76-1.64c1.88-.75,4-1.78,5.88-2.56a9.73,9.73,0,0,0,1.13-.65c1.43-.86,1.17-2.85,1.34-4.15,0-1,.45-3.92,1.16-4.6a1.24,1.24,0,0,1,2,.34,6,6,0,0,1,.75,3.56c-.09,1.52.58,2.64,2.11,2.33a14.92,14.92,0,0,0,2.2-.81c1.49-.62,6.35,2.21,3.05,3.66-1.31.57-3.18,1.35-4.48,2a30.69,30.69,0,0,0-3,1.63,1.77,1.77,0,0,0-.78,2.15,13.65,13.65,0,0,0,11.24,8.49c1.58.12,2.52,1.11,2.47,2.28C267.6,49.06,259.47,49,256.13,44Z"/><path class="cls-1" d="M133,38.11c0-2.68,1.37-4.61,4.51-4.82,1.6-.11,2.18-.79,2.19-2.38a17.42,17.42,0,0,0-.66-6.25c-.47-.87,2.37-1.67,5.32,3.3.78,1.32.33,2.4.06,3.58-.33,1.49-.84,2.94-1.15,4.43a18.45,18.45,0,0,0-.27,3c-.08,1.69-.15,3.37-.18,5.06s-.72,2.28-2.29,2.24a2.53,2.53,0,0,0-1.86.75,10.25,10.25,0,0,1-4.12,2.64,2.18,2.18,0,0,1-2.68-1.71,2.33,2.33,0,0,1,1.56-2.77c2.25-.39,5.94-2.81,5.88-4.15a24.41,24.41,0,0,0-.3-2.71c-.14-.81-.57-1-1.31-.6s-1.71,1.09-2.58,1.59c-.45.26-1.17.69-1.41.53S133,38.16,133,38.11Z"/><path class="cls-1" d="M155.1,39.43h1.05c1.13,0,1.88.53,2,1.31a2.26,2.26,0,0,1-1.54,2.38,11.43,11.43,0,0,0-2.59,1.3,3.89,3.89,0,0,0-1.26,1.63,2.33,2.33,0,0,1-3.16,1.55c-2.11-.66-3-2-3.15-4.27-.5-3.88,5.49-13.57,3-22.59-.32-.82.21-1.36,1.12-1.41a3.48,3.48,0,0,1,2.83,1.08,5.07,5.07,0,0,1,1.12,5.4c-.74,2.35-1.47,4.71-2.41,7-1.57,3.82.4,6.63,1.8,6.63A10.1,10.1,0,0,0,155.1,39.43Z"/><path class="cls-1" d="M100.24,31.09c.39.89,3.33,9.24,3.72,10.39a1.59,1.59,0,0,1-.85,2.09c-.64.27-1.39-.1-1.87-.92-2.34-4-1.84-11-1.32-11.55C100.05,31,100.15,31,100.24,31.09Z"/><path class="cls-1" d="M98.09,53.05a2.3,2.3,0,0,1-2.16-2.86,12,12,0,0,1,1.33-2.66c.4-.64,1-.61,1.33.06a1.88,1.88,0,0,0,2,1.22.65.65,0,0,1,.69,1A9.29,9.29,0,0,1,98.09,53.05Z"/><path class="cls-1" d="M160,37.89c-1.32-1.28-2.62-2.59-3.86-4s.55-1.72,1-1.7c1.71.07,4.3,2.52,4.72,4.28C161.93,36.83,161.76,39.57,160,37.89Z"/><path class="cls-1" d="M121.34,27.36c-1.18-1.41-2.52-2.3-4.36-1.88a19.25,19.25,0,0,0-2.55.89c-.89.33-1.37,0-1.29-.89a2.86,2.86,0,0,1,1.28-2.24A23.63,23.63,0,0,0,117.19,21c.25-.23,1.23-1.77-.73-1.5-.46.07-.94.17-1.42.25-.79.13-1.16-.22-1-1s.25-.43.41-1.16c.55-2.49-4.15-5.64-4.93-3.51a1.05,1.05,0,0,0,0,.7c1,3-.3,6.29-1.42,6.92-1,.55-5.27,3.3-6.4,4.19-1.25,1.2,1.06,2.52,2.14,1.87,2.16-1.31,5.85-.9,4.47.47a16.3,16.3,0,0,0-2.92,2.67.21.21,0,0,0,.24.32c1.09-.48,3-1.33,3-.73a39.33,39.33,0,0,1-4.42,3.72c-.51.37-.92.87-.45,1.48s1.14.27,1.49-.14,2-1.55,2.78-1.47a3.57,3.57,0,0,1,.17,1.19A5.26,5.26,0,0,1,105,39.06c-.65.34-1.25.66-1.38,1.57a6.05,6.05,0,0,0,3-.24c.6-.25,1-.55,1.16.17a3.5,3.5,0,0,1-.26,2.5,1.42,1.42,0,0,0-.23,1c.55,1.71.26,1.76,0,3.46-.14,1.21-.94,2.06-2.11,1.53-1.36-.62-1.35,1.61,1.49,4a2.19,2.19,0,0,0,3.44-.61,8.94,8.94,0,0,0,.88-3.33,14.1,14.1,0,0,0-.1-2.51c0-1,.21-1.13,1.25-.93a7.69,7.69,0,0,1,5.08,3.5,1.81,1.81,0,0,0,2.85.44,3.38,3.38,0,0,0,1-2A5.59,5.59,0,0,0,118.76,43c-1.76-1.41-3.92-1.44-6-1.09s-1.81.49-1.72-1a.48.48,0,0,0,0-.17,1.5,1.5,0,0,1,1.19-1.6c1.55-.5,1.73-.77,1.73-2.33a1,1,0,0,1,.73-1.06c.66-.24,1.19-.78,1.86-1C118.25,34.14,123,29.3,121.34,27.36Zm-7.81,5.3a4,4,0,0,0-.33-2c-.77-.73-.86-1.48.07-2a2.57,2.57,0,0,1,1.81-.2C116,28.72,115.22,32.15,113.53,32.66Z"/><path class="cls-1" d="M299.07,26a23.13,23.13,0,0,0-3.85.59c-.84.16-1.38-.1-1.42-.89a2.21,2.21,0,0,1,.34-1.37c1-1.25,2.9-5.17.86-6.23a2.86,2.86,0,0,0-3,.25c-.55.36-2.52,2.4-2.73.42a16,16,0,0,0-.48-2.66.9.9,0,0,0-1.28-.53,1.28,1.28,0,0,0-.6,1,8.45,8.45,0,0,1-.87,3.84c-.17.4-1,.54-1-.37,0-.36.52-2.68.15-3.86a1.75,1.75,0,0,0-1.1-1c-.89-.18-1.6,3.21-1.65,4.33a19,19,0,0,0,.44,6.63,8.37,8.37,0,0,1,.38,2.17.94.94,0,0,1-1.08,1,1,1,0,0,1-.71-.61,20.84,20.84,0,0,1-.05-3.16c.14-2.25.74-10.51-4.53-5.38-.47.64.32,1.68,1.39,1.21.64-.28.95-.17.93.55-.05,1.68-.12,3.36-.16,5,0,.88.06,1.78,0,2.66,0,.31-.25.86-.61.88s-.66-.47-.69-.74a9.47,9.47,0,0,1,.1-2.19c.09-.62,0-1.6-.7-1.43-.45.11-.53.71-.69,1.09-1,2.32-3.91,8-3.27,9.47s3.26,1.43,3.58-1.09c.24-1.88,1.22-2.67,3-3.16,2.49-.69,8.75-3.32,9-2.22s-2.23,2.1-3.14,2.41c-1.74.59-3.54,1-5.34,1.46-.56.13-1.14.21-1.2.88a1.21,1.21,0,0,0,1,1.4,9.09,9.09,0,0,0,2.55-.09c.91-.13,1.54.12,1.72.86s-.17,1.24-1.1,1.42-2.12.33-3.17.55-2.37.83-2.56,2.06,2.38,3.41,4.66,2.67c1-.32,2-.72,3-1s1.78.06,1.58,1.23a25.21,25.21,0,0,1-1.2,4.15c-.2.58-1,1.84-4.81.14-.34-.15-1.39-.63-1.81-.24s.66,2.1,1.21,2.63c5.77,5.59,9.42,1.13,9.89-2.15.29-2,.72-4,1.09-6,.23-1.25.76-1.54,2.05-1.24.68.15,1.35.33,2,.45A1.44,1.44,0,0,0,297,39.85a6.23,6.23,0,0,0-.58-1.32,2.49,2.49,0,0,0-2.93-1.24c-.68.14-1.34.36-2,.45a3.31,3.31,0,0,1-2.76-.41.18.18,0,0,1,0-.31,5.85,5.85,0,0,0,2.88-3.46,2.91,2.91,0,0,1,.8-1.27,7,7,0,0,1,7.37-.63c.81.45,1.38.27,1.65-.61a7.09,7.09,0,0,0,.36-1.74C301.82,27.88,301,25.94,299.07,26Zm-12,10.3c-.79-.09-1.48-.33-1.41-1.06C285.83,33.8,287.67,35.1,287.1,36.26Zm1.24-8.6c-.63,0-1-.26-.93-.85a5.15,5.15,0,0,1,.4-1.54,3.58,3.58,0,0,0,.19-2.95c-.29-.7-.07-1.07.75-1.47.21,1.23.42,2.41.6,3.59.09.59.11,1.19.18,1.78A1.19,1.19,0,0,1,288.34,27.66Zm4-4.78a.58.58,0,0,1-.79-.19,2.84,2.84,0,0,1-.31-.6.51.51,0,0,1,.54-.62,4.55,4.55,0,0,1,.63.47.56.56,0,0,1,0,.89Z"/><path class="cls-1" d="M230.91,25.27a7.42,7.42,0,0,1-5.38.87c-.26,0-.64-.14-.71-.32a1,1,0,0,1,.22-.76,2.35,2.35,0,0,1,1.86-1.14c1.74-.14,2.29-1.73,3-3,.35-.63.51-1.37-.22-1.85s-1.27-.09-1.8.36a15.85,15.85,0,0,1-1.24,1.09c-.54.38-.92.2-1-.43a1.71,1.71,0,0,1,.07-.71c.5-1.59,1-3.19,1.49-4.79.23-.75-1.34-1.53-2.21-.55a4.92,4.92,0,0,0-1.09,3.33c0,1.34-.19,2.67-.34,4,0,.18-.28.54-.51.48-.56-.15-.36-1.2-.39-1.51-.45-3.87-5.16-3.07-3.66-1s2.4,4.38-.68,5.59c-.91.36-3.4,1.53-3.86,3a.9.9,0,0,0,.6,1.23c.6.18.94-.15,1.17-.64a5.55,5.55,0,0,1,.69-1.45,3.65,3.65,0,0,1,1.26-.57,4.54,4.54,0,0,1,0,1.1c-.21,1,.41,1.63,1.43,1.34a3.9,3.9,0,0,1,.57-.21.73.73,0,0,1,.54.07.58.58,0,0,1,0,.53,3.52,3.52,0,0,1-.76.78c-1.78,1.29-3.57,2.54-5.35,3.81l-4,2.91c-1.17.85-1.66.5-2.48.85A2.71,2.71,0,0,0,206.62,41c.82,2.31,3.47-1.22,4.64-2.35,3.07-3,4.77-3.87,5.58-4.13a.38.38,0,0,1,.49.43.93.93,0,0,1-.12.33c-.28.46-.68.84-1,1.29-.74,1.07-.63,1.74.5,2.41a1.43,1.43,0,0,1,.8,1.47,1.32,1.32,0,0,0,.8,1.38c.68.33.71.7.05,1.09-1.17.69-2.1,1.47-1.74,3-.79,0-1-.46-1.12-1s-.07-.87-.19-1.27-.2-.74-.52-.79-.55.34-.66.58c-.36.83-1.74,4.42-1,6.54a1.36,1.36,0,0,0,.92.85,1.43,1.43,0,0,0,1-.72c.56-1.05,1-2.18,1.49-3.25a.84.84,0,0,1,.67-.38,1.74,1.74,0,0,0,1.8-.56c1.7-1.49,2.45-1.17,2.45-1.07a16.69,16.69,0,0,1,.11,3.31c-.1,1-.4,1-1.37.77-.32-.09-.9-.13-1,.09-.55.91.66,2.89,1.25,3.68a1.54,1.54,0,0,0,2.44.26,4.39,4.39,0,0,0,1.33-2.09,34.37,34.37,0,0,0,.41-4.08c0-.28.15-.68.36-.78a1,1,0,0,1,.8.3,8.42,8.42,0,0,1,1.05,1.33c.6.9,1.08,1.89,1.76,2.73a1.5,1.5,0,0,0,2.18.18,1.47,1.47,0,0,0,.45-2.11c-.34-.59-.72-1.17-1.11-1.73A5.24,5.24,0,0,0,225.36,44a1.14,1.14,0,0,1,.2-2.11c.66-.34,1.38-.55,2-.9.45-.23,1.15-.6,1.16-.92a1.82,1.82,0,0,0-.77-1.45c-.94-.44-1.46-1-1.29-2a.58.58,0,0,0-.21-.45c-1-.73-.72-1.61-.39-2.54s.53-2.08-.56-2.94a.79.79,0,0,1,.19-1.37,5.94,5.94,0,0,1,1.34-.59c1.58-.46,3.17-.88,4.74-1.34C233,27.16,233.76,23.49,230.91,25.27Zm-4.94-2c-.58,1-.91.23-.66-.54C225.9,20.9,226.43,22.47,226,23.31Zm-4,10.32a1.43,1.43,0,0,1-1.09.68c-.61-.11-.55-.65-.33-1.16.52-1.22,1.05-1.64,2-1.45A9.52,9.52,0,0,1,222,33.63Z"/><path class="cls-1" d="M100.44,59.11h1.67v8.62h-1.67l-3.77-6v6H95V59.11h1.67l3.77,6Z"/><path class="cls-1" d="M107.69,67.81a4.09,4.09,0,0,1-3-1.24,4.69,4.69,0,0,1,0-6.32,4.3,4.3,0,0,1,6,0,4.67,4.67,0,0,1,0,6.32A4.08,4.08,0,0,1,107.69,67.81Zm1.83-2.35a2.93,2.93,0,0,0,.7-2,2.9,2.9,0,0,0-.7-2,2.58,2.58,0,0,0-3.67,0,2.85,2.85,0,0,0-.71,2,2.89,2.89,0,0,0,.71,2,2.57,2.57,0,0,0,3.67,0Z"/><path class="cls-1" d="M114.94,64.3v3.43h-1.68v-8.6h3.06a3.07,3.07,0,0,1,2.22.75,2.43,2.43,0,0,1,.78,1.84,2.6,2.6,0,0,1-.48,1.51,2.44,2.44,0,0,1-1.5,1l2.12,3.54h-2l-2-3.43Zm0-3.84V63h1.38a1.3,1.3,0,0,0,1-.33,1.28,1.28,0,0,0,.33-.92,1.26,1.26,0,0,0-.33-.92,1.3,1.3,0,0,0-1-.34Z"/><path class="cls-1" d="M120.49,60.46V59.13h6.16v1.33H124.4v7.27h-1.67V60.46Z"/><path class="cls-1" d="M133.19,59.13h1.67v8.6h-1.67V64.05h-3.58v3.68h-1.67v-8.6h1.67v3.59h3.58Z"/><path class="cls-1" d="M141.45,59.11v1.33h-3.12v2.25h2.76V64h-2.76V66.4h3.12v1.33h-4.8V59.11Z"/><path class="cls-1" d="M148.61,67.73l-.53-1.62h-3.24l-.54,1.62h-1.77l2.94-8.62h2l2.93,8.62Zm-3.33-2.94h2.37l-1.19-3.59Z"/><path class="cls-1" d="M154.24,60.4a1.2,1.2,0,0,0-.81.27.9.9,0,0,0-.32.73,1.1,1.1,0,0,0,.23.73,1.53,1.53,0,0,0,.62.41,7.46,7.46,0,0,0,.83.25,8.46,8.46,0,0,1,.91.27,4.25,4.25,0,0,1,.83.4,1.62,1.62,0,0,1,.61.68,2.28,2.28,0,0,1,.23,1.09,2.42,2.42,0,0,1-.81,1.82,3,3,0,0,1-2.17.76,3.39,3.39,0,0,1-2.18-.65,2.23,2.23,0,0,1-.84-1.86h1.79a1.11,1.11,0,0,0,1.25,1.14,1.34,1.34,0,0,0,.91-.31,1.08,1.08,0,0,0,.33-.82.94.94,0,0,0-.44-.81,3.25,3.25,0,0,0-1.07-.44c-.41-.1-.83-.22-1.25-.36a2.31,2.31,0,0,1-1.07-.73,2.06,2.06,0,0,1-.45-1.39,2.34,2.34,0,0,1,.83-1.87,3.11,3.11,0,0,1,2.11-.7,3.3,3.3,0,0,1,2.08.61,2.35,2.35,0,0,1,.85,1.85h-1.83a1.15,1.15,0,0,0-.36-.78A1.13,1.13,0,0,0,154.24,60.4Z"/><path class="cls-1" d="M158.49,60.46V59.13h6.16v1.33H162.4v7.27h-1.67V60.46Z"/><path class="cls-1" d="M169.5,67.73v-8.6h5.15v1.33h-3.47v2.26h2.65v1.33h-2.65v3.68Z"/><path class="cls-1" d="M179.75,67.81a4.08,4.08,0,0,1-3-1.24,4.66,4.66,0,0,1,0-6.32,4.3,4.3,0,0,1,6,0,4.7,4.7,0,0,1,0,6.32A4.09,4.09,0,0,1,179.75,67.81Zm1.84-2.35a2.93,2.93,0,0,0,.7-2,2.9,2.9,0,0,0-.7-2,2.38,2.38,0,0,0-1.84-.76,2.34,2.34,0,0,0-1.83.77,2.85,2.85,0,0,0-.71,2,2.89,2.89,0,0,0,.71,2,2.57,2.57,0,0,0,3.67,0Z"/><path class="cls-1" d="M187,64.3v3.43h-1.67v-8.6h3.06a3.07,3.07,0,0,1,2.22.75,2.43,2.43,0,0,1,.78,1.84,2.6,2.6,0,0,1-.48,1.51,2.44,2.44,0,0,1-1.5,1l2.12,3.54h-2l-2-3.43Zm0-3.84V63h1.39a1.3,1.3,0,0,0,1-.33,1.28,1.28,0,0,0,.33-.92,1.26,1.26,0,0,0-.33-.92,1.3,1.3,0,0,0-1-.34Z"/><path class="cls-1" d="M197.85,59.11v1.33h-3.12v2.25h2.76V64h-2.76V66.4h3.12v1.33h-4.8V59.11Z"/><path class="cls-1" d="M202.25,60.4a1.2,1.2,0,0,0-.81.27.9.9,0,0,0-.32.73,1.05,1.05,0,0,0,.24.73,1.43,1.43,0,0,0,.61.41,7.46,7.46,0,0,0,.83.25,8.46,8.46,0,0,1,.91.27,4.25,4.25,0,0,1,.83.4,1.62,1.62,0,0,1,.61.68,2.28,2.28,0,0,1,.23,1.09,2.42,2.42,0,0,1-.81,1.82,3,3,0,0,1-2.17.76,3.39,3.39,0,0,1-2.18-.65,2.23,2.23,0,0,1-.84-1.86h1.79a1.11,1.11,0,0,0,1.25,1.14,1.34,1.34,0,0,0,.91-.31,1.08,1.08,0,0,0,.33-.82.94.94,0,0,0-.44-.81,3.25,3.25,0,0,0-1.07-.44c-.41-.1-.83-.22-1.25-.36a2.31,2.31,0,0,1-1.07-.73,2.06,2.06,0,0,1-.45-1.39,2.34,2.34,0,0,1,.83-1.87,3.11,3.11,0,0,1,2.11-.7,3.3,3.3,0,0,1,2.08.61,2.35,2.35,0,0,1,.85,1.85h-1.83a1.15,1.15,0,0,0-.36-.78A1.13,1.13,0,0,0,202.25,60.4Z"/><path class="cls-1" d="M206.5,60.46V59.13h6.16v1.33h-2.25v7.27h-1.67V60.46Z"/><path class="cls-1" d="M215.62,64.3v3.43h-1.68v-8.6H217a3.07,3.07,0,0,1,2.22.75,2.43,2.43,0,0,1,.78,1.84,2.67,2.67,0,0,1-.47,1.51,2.44,2.44,0,0,1-1.5,1l2.12,3.54h-2l-2-3.43Zm0-3.84V63H217a1.33,1.33,0,0,0,1-.33,1.28,1.28,0,0,0,.33-.92,1.26,1.26,0,0,0-.33-.92,1.33,1.33,0,0,0-1-.34Z"/><path class="cls-1" d="M225.44,67.73h-1.67v-3L221,59.13h1.88l1.77,4,1.76-4h1.88l-2.81,5.64Z"/><path class="cls-1" d="M232.87,64.43v-5.3h1.68v5.3a1.91,1.91,0,0,0,.43,1.34,1.93,1.93,0,0,0,2.5,0,1.86,1.86,0,0,0,.44-1.34v-5.3h1.67v5.3a3.16,3.16,0,0,1-1,2.5,3.48,3.48,0,0,1-2.41.88,3.4,3.4,0,0,1-2.37-.87A3.25,3.25,0,0,1,232.87,64.43Z"/><path class="cls-1" d="M246.78,59.11h1.67v8.62h-1.67l-3.77-6v6h-1.67V59.11H243l3.77,6Z"/><path class="cls-1" d="M250.24,67.73v-8.6h1.68v8.6Z"/><path class="cls-1" d="M256,67.73l-3-8.6h1.77L257,66l2.27-6.86h1.78l-3,8.6Z"/><path class="cls-1" d="M266.94,59.11v1.33h-3.12v2.25h2.76V64h-2.76V66.4h3.12v1.33h-4.8V59.11Z"/><path class="cls-1" d="M270.33,64.3v3.43h-1.67v-8.6h3.06a3.07,3.07,0,0,1,2.22.75,2.42,2.42,0,0,1,.77,1.84,2.59,2.59,0,0,1-.47,1.51,2.44,2.44,0,0,1-1.5,1l2.12,3.54h-2l-2-3.43Zm0-3.84V63h1.39a1.3,1.3,0,0,0,1-.33,1.28,1.28,0,0,0,.33-.92,1.26,1.26,0,0,0-.33-.92,1.3,1.3,0,0,0-1-.34Z"/><path class="cls-1" d="M279.07,60.4a1.2,1.2,0,0,0-.81.27.9.9,0,0,0-.32.73,1.1,1.1,0,0,0,.23.73,1.53,1.53,0,0,0,.62.41,7.46,7.46,0,0,0,.83.25,7.69,7.69,0,0,1,.9.27,4.34,4.34,0,0,1,.84.4,1.62,1.62,0,0,1,.61.68,2.28,2.28,0,0,1,.23,1.09,2.42,2.42,0,0,1-.81,1.82,3.06,3.06,0,0,1-2.17.76,3.39,3.39,0,0,1-2.18-.65,2.23,2.23,0,0,1-.84-1.86H278a1.11,1.11,0,0,0,1.25,1.14,1.29,1.29,0,0,0,.9-.31,1.05,1.05,0,0,0,.34-.82.94.94,0,0,0-.44-.81,3.25,3.25,0,0,0-1.07-.44c-.42-.1-.83-.22-1.26-.36a2.36,2.36,0,0,1-1.07-.73,2.1,2.1,0,0,1-.44-1.39,2.36,2.36,0,0,1,.82-1.87,3.15,3.15,0,0,1,2.12-.7,3.25,3.25,0,0,1,2.07.61,2.36,2.36,0,0,1,.86,1.85h-1.83a1.11,1.11,0,0,0-1.17-1.07Z"/><path class="cls-1" d="M283.81,67.73v-8.6h1.68v8.6Z"/><path class="cls-1" d="M286.79,60.46V59.13h6.15v1.33h-2.25v7.27H289V60.46Z"/><path class="cls-1" d="M298,67.73h-1.68v-3l-2.81-5.64h1.88l1.78,4,1.76-4h1.88L298,64.77Z"/><path class="cls-2" d="M13.78,58.64c-.1.18-1.13,1.73-1.27,1.94a.31.31,0,1,1-.54-.31,3.78,3.78,0,0,1,1.77-1.68S13.79,58.62,13.78,58.64Z"/><path class="cls-2" d="M9.83,61.06a.47.47,0,0,1,.2-.72,2.18,2.18,0,0,1,.62-.11c.15,0,.22.08.16.23a.38.38,0,0,0,0,.48.14.14,0,0,1-.07.24A2,2,0,0,1,9.83,61.06Z"/><path class="cls-2" d="M17.08,61.7a.89.89,0,0,0-.24-1,4.87,4.87,0,0,0-.47-.32c-.17-.1-.18-.22,0-.32a.61.61,0,0,1,.54-.08,4.49,4.49,0,0,0,.72.19c.07,0,.46,0,.16-.31l-.22-.21q-.18-.18,0-.3c.14-.07.11,0,.25-.07.49-.23.42-1.41,0-1.27a.21.21,0,0,0-.11.08,1.43,1.43,0,0,1-1.34.64c-.22-.09-1.22-.46-1.51-.54s-.29.5-.05.6c.5.19.9.86.49.8a3.54,3.54,0,0,0-.82-.15,0,0,0,0,0,0,.08c.22.12.61.34.5.41a7.67,7.67,0,0,1-1.18-.27c-.13,0-.27,0-.31.11s.1.23.21.23a1.07,1.07,0,0,1,.6.28c-.06.06-.1.15-.17.18a1.13,1.13,0,0,1-1-.06.44.44,0,0,0-.43,0,1.2,1.2,0,0,0,.42.48c.12.06.22.1.12.21a.71.71,0,0,1-.46.27.31.31,0,0,0-.19.09c-.22.31-.26.27-.57.45s-.47.1-.53-.16-.44,0-.48.75a.47.47,0,0,0,.54.5,2,2,0,0,0,.67-.27,3.36,3.36,0,0,0,.41-.34c.16-.13.22-.11.31.09a1.59,1.59,0,0,1,.06,1.3.38.38,0,0,0,.29.53.71.71,0,0,0,.46-.1,1.14,1.14,0,0,0,.46-1,1.48,1.48,0,0,0-.57-1.13c-.32-.31-.31-.25-.05-.41l0,0a.31.31,0,0,1,.42,0c.28.2.35.19.61,0a.21.21,0,0,1,.27,0c.13.08.28.1.41.18C15.55,62,17,62.22,17.08,61.7Zm-1.88-.63c.07,0,.28-.23.29-.31s.14-.33.35-.24a.48.48,0,0,1,.26.28C16.18,61,15.5,61.29,15.2,61.07Z"/><path class="cls-2" d="M20,67.13a1,1,0,0,1,1.46-.4.46.46,0,0,0,.71-.2,4,4,0,0,0,.62-1.3c0-.23.66,0,.65,1.28,0,.35-.23.5-.42.7s-.52.48-.76.73a5.61,5.61,0,0,0-.41.55c-.22.32-.43.64-.64,1a.45.45,0,0,1-.72.16.54.54,0,0,0-.45-.07,2.49,2.49,0,0,1-1.12,0,.51.51,0,0,1-.32-.66.53.53,0,0,1,.64-.35c.48.19,1.5.16,1.64-.11a5.77,5.77,0,0,0,.27-.56c.07-.18,0-.27-.18-.28s-.47,0-.7,0-.31,0-.34-.06A.94.94,0,0,1,20,67.13Z"/><path class="cls-2" d="M24.14,70.29l.2.12c.22.14.31.33.23.49a.5.5,0,0,1-.58.28,2.53,2.53,0,0,0-.67-.05.92.92,0,0,0-.44.17.53.53,0,0,1-.8-.08A1,1,0,0,1,22,70c.37-.82,2.71-2,3.3-4.06,0-.2.2-.24.38-.14a.8.8,0,0,1,.43.55,1.17,1.17,0,0,1-.43,1.19c-.43.37-.85.74-1.31,1.08-.76.55-.72,1.34-.44,1.51Z"/><path class="cls-2" d="M25.29,70.57c-.11-.41-.21-.82-.29-1.23s.32-.27.4-.22a1.54,1.54,0,0,1,.41,1.4C25.79,70.59,25.42,71.11,25.29,70.57Z"/><path class="cls-2" d="M33.24,76.69a.28.28,0,0,1-.35.17c-.11,0-.26-.17-.28-.28-.14-.32.08-1.06.09-1.23s0-.21-.07-.24-.65.72-.86,1c0,.05-.23.41-.47.33a.54.54,0,0,1-.2-.87,4.08,4.08,0,0,1,1-1s.07,0,.09-.06.08-.12.07-.15a.21.21,0,0,0-.16-.08c-.58,0-.8-.18-.95-.71a.29.29,0,0,1,.16-.37c.66-.37,1.32-.73,2-1.12a1.08,1.08,0,0,0,.5-.7c.06-.3.1-.62.18-.91s.2-.34.39-.3a.37.37,0,0,1,.25.46c-.09.39-.19.77-.29,1.15s-.23.77-.32,1.16c0,.08,0,.21,0,.25s.18,0,.25-.06c.45-.27.91-.54,1.35-.83s.66-.45,1-.7a.81.81,0,0,0,.23-.38c.07-.23.1-.47.17-.7a.82.82,0,0,1,.46-.52.26.26,0,0,1,.32,0c.09.12.1.66.23.71a5.1,5.1,0,0,0,.79-.26c.08,0,.23,0,.28.06a.21.21,0,0,1-.07.25,4,4,0,0,1-.5.28,6.5,6.5,0,0,0-1.24.82,1.76,1.76,0,0,0-.43,1.45c0,.51.7.38.89.4s.48.27.32.56a1.54,1.54,0,0,1-.46.49c-.09.06-.41.06-.32-.6,0-.35-.47-.22-.5,0-.05.7-.52,2.57-1,2.41-.2-.07-.21-.8-.19-1.08a.26.26,0,0,1,.13-.2c.42-.18.49-1,.42-1.18a.05.05,0,0,0-.07,0,5.5,5.5,0,0,0-1.33,1c-.11.22-.28.24-.45.06a.81.81,0,0,1-.11-.79.66.66,0,0,1,.64-.3.76.76,0,0,1,.26,0,1.26,1.26,0,0,0,1-.28.56.56,0,0,0,.24-.38c.07-.35.12-.69.17-1s-.07-.27-.27-.17a6.81,6.81,0,0,0-1.4,1,7.25,7.25,0,0,1-.64.49,1.06,1.06,0,0,0-.48.82A9.24,9.24,0,0,1,33.24,76.69Z"/><path class="cls-2" d="M49.34,70.24a1.75,1.75,0,0,1-1.18.51c-.06,0-.16,0-.18,0a.25.25,0,0,1,0-.19.56.56,0,0,1,.36-.36c.39-.14.42-.54.51-.87,0-.16,0-.34-.15-.41s-.3.06-.4.19a2.53,2.53,0,0,1-.21.32c-.1.12-.2.1-.26,0a.29.29,0,0,1,0-.16L47.87,68c0-.19-.4-.27-.54,0a1.13,1.13,0,0,0-.06.83,7.23,7.23,0,0,1,.16.93s0,.14-.08.14-.16-.25-.18-.32c-.34-.86-1.36-.4-.9,0s.81.86.17,1.31c-.18.14-.68.55-.7.93a.22.22,0,0,0,.21.24c.15,0,.21-.09.23-.21a1.35,1.35,0,0,1,.07-.37c0-.09.17-.14.26-.21a1,1,0,0,1,.07.25c0,.25.19.35.41.22l.11-.08s.1,0,.13,0a.14.14,0,0,1,0,.12.76.76,0,0,1-.13.23l-1,1.18-.75.9c-.22.27-.35.21-.51.34a.63.63,0,0,0-.16.84c.32.48.72-.48.92-.81a3.89,3.89,0,0,1,1-1.27.08.08,0,0,1,.13.07.11.11,0,0,1,0,.08c0,.12-.11.24-.15.36-.11.28,0,.43.25.52a.33.33,0,0,1,.27.28.31.31,0,0,0,.27.27c.17,0,.2.12.07.25s-.39.46-.22.79c-.18,0-.25-.05-.31-.16s-.07-.19-.12-.27-.09-.16-.16-.15-.11.11-.12.17a2.59,2.59,0,0,0,.16,1.55.33.33,0,0,0,.26.14.34.34,0,0,0,.19-.23c.07-.27.1-.55.15-.83a.19.19,0,0,1,.13-.12.41.41,0,0,0,.38-.23c.3-.44.49-.42.5-.4a5.31,5.31,0,0,1,.22.75c0,.23,0,.26-.27.26-.08,0-.21,0-.23.08-.07.24.32.62.51.77a.36.36,0,0,0,.57-.09,1,1,0,0,0,.18-.55,8,8,0,0,0-.15-1,.27.27,0,0,1,0-.2s.14,0,.2,0a2.51,2.51,0,0,1,.32.25c.19.17.36.36.56.51a.36.36,0,0,0,.51-.08.35.35,0,0,0,0-.51c-.12-.12-.24-.22-.36-.33a1.24,1.24,0,0,0-1.25-.34.27.27,0,0,1-.08-.49c.13-.12.28-.21.41-.33s.23-.2.21-.28a.41.41,0,0,0-.26-.28c-.24,0-.39-.13-.41-.38A.12.12,0,0,0,49,73c-.27-.11-.26-.33-.24-.56a.54.54,0,0,0-.3-.64c-.13-.06-.15-.2,0-.32a1.09,1.09,0,0,1,.27-.21l1-.59C49.92,70.54,49.88,69.66,49.34,70.24Zm-1.25-.16c-.07.26-.19.11-.18-.08C47.94,69.53,48.15,69.86,48.09,70.08Zm-.3,2.59c0,.09-.13.22-.21.22s-.17-.11-.15-.24c0-.31.15-.44.37-.45A2.44,2.44,0,0,1,47.79,72.67Z"/><path class="cls-2" d="M60.34,69.25a11.52,11.52,0,0,0-1.14-.35c-.26-.07-.35,0-.34.29a11.15,11.15,0,0,1,0,2.66,1.12,1.12,0,0,1-.63.49c-.18,0-.38,0-.36-.19s.78-2.61.32-3.23c0,0-.09-.09-.12-.11s-.18.21-.17.27c-.13.67-.63.68-1.17.54a.91.91,0,0,1-.26-.13.28.28,0,0,1-.09-.41c.24-.4.48-.89.71-1.3a2.21,2.21,0,0,0,.12-.27c.14-.36-.19-.69-.34-1a2.3,2.3,0,0,1-.44-1,.29.29,0,0,1,.41-.22,1.38,1.38,0,0,1,.64.55c.2.29.48.4.72.13a3.58,3.58,0,0,0,.29-.46c.18-.32,1.47-.49,1.07.24-.16.29-.39.69-.55,1s-.23.48-.33.72a.42.42,0,0,0,.16.51,3.18,3.18,0,0,0,3.26,0,.54.54,0,0,1,.77.07C63.16,68.58,61.67,69.72,60.34,69.25Z"/><path class="cls-2" d="M67.9,57.6a5.64,5.64,0,0,0-.46.7c-.1.16-.22.21-.35.1a.47.47,0,0,1-.17-.25c-.06-.34-.42-1.22-.88-1a.61.61,0,0,0-.4.52c0,.14,0,.75-.33.5a4.19,4.19,0,0,0-.5-.31.19.19,0,0,0-.27.13.28.28,0,0,0,.08.24,2,2,0,0,1,.49.7c0,.08-.07.24-.21.11s-.36-.47-.6-.58a.36.36,0,0,0-.32,0c-.16.12.29.72.46.89a3.91,3.91,0,0,0,1.13.89,2.19,2.19,0,0,1,.41.26.2.2,0,0,1,0,.31.21.21,0,0,1-.2,0,5.59,5.59,0,0,1-.52-.45c-.34-.35-1.59-1.64-1.52-.05,0,.17.31.19.39,0s.11-.18.23-.07l.79.75c.14.14.29.25.42.39s.11.17.06.23a.18.18,0,0,1-.22,0,1.77,1.77,0,0,1-.34-.33c-.09-.1-.26-.24-.33-.09s0,.18.07.26c.23.5.72,1.79,1,1.9s.71-.32.35-.73a.74.74,0,0,1-.08-.94c.25-.5.73-1.89,1-1.77s0,.66-.07.85c-.16.37-.35.72-.54,1.07-.06.11-.13.22,0,.33a.26.26,0,0,0,.37,0,1.82,1.82,0,0,0,.36-.42c.11-.16.24-.23.39-.15s.17.2.07.38-.26.39-.37.59a.6.6,0,0,0,0,.71c.18.22.89.11,1.1-.36.1-.21.18-.43.28-.64s.27-.27.43-.07a5,5,0,0,1,.49.79c.07.12.16.42-.67.8-.08,0-.31.13-.3.25s.43.2.6.19c1.73-.12,1.54-1.35,1.08-1.91-.28-.33-.54-.69-.81-1s-.14-.35.1-.51l.37-.26a.32.32,0,0,0,0-.56,1.18,1.18,0,0,0-.3-.1.56.56,0,0,0-.63.29,3,3,0,0,1-.22.39.69.69,0,0,1-.46.39s-.06,0,0-.05a1.28,1.28,0,0,0-.14-1,.69.69,0,0,1-.09-.31,1.53,1.53,0,0,1,1-1.28c.19-.06.25-.18.14-.35a1,1,0,0,0-.23-.31A.63.63,0,0,0,67.9,57.6ZM67.83,61c-.13.11-.27.19-.38.07S67.72,60.76,67.83,61Zm-1.21-1.45a.16.16,0,0,1-.27,0,1,1,0,0,1-.19-.29.79.79,0,0,0-.45-.46c-.16-.05-.18-.14-.13-.33l.67.42c.11.07.21.16.31.23A.26.26,0,0,1,66.62,59.57Zm-.19-1.34a.12.12,0,0,1-.14.1l-.14,0c-.06,0-.09-.11,0-.17l.16,0a.13.13,0,0,1,.15.13Z"/><path class="cls-3" d="M81.35,40.49A40.68,40.68,0,1,1,40.55,0,40.64,40.64,0,0,1,81.35,40.49ZM40.56,2A38.67,38.67,0,1,0,79.4,40.5,38.7,38.7,0,0,0,40.56,2Z"/><path class="cls-3" d="M68.06,40.53A27.38,27.38,0,1,1,40.59,13.27,27.36,27.36,0,0,1,68.06,40.53ZM40.6,14.24A26.37,26.37,0,1,0,67.09,40.53,26.39,26.39,0,0,0,40.6,14.24Z"/><path class="cls-3" d="M40.73,68A27.39,27.39,0,0,0,66.7,49h-.27a27.36,27.36,0,0,0-25.7,18.14,27.41,27.41,0,0,0-25.81-18h-.26A27.37,27.37,0,0,0,40.73,68Z"/><path class="cls-3" d="M40,51.24h0a1.38,1.38,0,1,0-.62,1.15v.33a.75.75,0,0,1-.75.75.73.73,0,0,1-.72-.6l-.62.17a1.38,1.38,0,0,0,2.72-.32V51.24ZM38.67,52a.75.75,0,1,1,.75-.75A.76.76,0,0,1,38.67,52Z"/><path class="cls-3" d="M42,51.36a1.22,1.22,0,0,0-.6.16l.25-1.1h1.39v-.54H41.16l-.52,2.26.75.2A.72.72,0,0,1,42,52a.73.73,0,0,1,.74.74.74.74,0,0,1-.74.75.71.71,0,0,1-.75-.61l-.62.17A1.35,1.35,0,0,0,42,54.11a1.38,1.38,0,0,0,0-2.75Z"/><path class="cls-3" d="M46.73,53.47H44.6a.77.77,0,0,1,.75-.78h0A1.42,1.42,0,1,0,44,51.29a1.36,1.36,0,0,0,0,.2l.62-.17v0a.75.75,0,1,1,1.5,0,.78.78,0,0,1-.75.78h0A1.39,1.39,0,0,0,44,53.48h0v.63h2.76Z"/><polygon class="cls-3" points="35.92 53.48 35.91 49.86 35.28 49.87 34.69 50.05 34.69 50.66 35.28 50.48 35.29 53.48 34.63 53.48 34.63 54.11 36.84 54.1 36.83 53.47 35.92 53.48"/><path class="cls-2" d="M6.57,47.46l-.21-.93L11,45.47l.21.93L8.47,49.21l3.19-.73.22.93L7.26,50.47l-.21-.93,2.71-2.82Z"/><path class="cls-2" d="M10.76,42.51A2.34,2.34,0,0,1,8.5,45.06a2.35,2.35,0,0,1-2.56-2.27A2.35,2.35,0,0,1,6.52,41a2.31,2.31,0,0,1,1.69-.8,2.35,2.35,0,0,1,1.77.59A2.38,2.38,0,0,1,10.76,42.51Zm-1.35-1a1.61,1.61,0,0,0-1.15-.34,1.56,1.56,0,0,0-1.09.47,1.33,1.33,0,0,0-.36,1.06,1.38,1.38,0,0,0,.48,1,1.61,1.61,0,0,0,1.15.34,1.58,1.58,0,0,0,1.09-.47,1.35,1.35,0,0,0,.36-1.07A1.31,1.31,0,0,0,9.41,41.55Z"/><path class="cls-2" d="M8.86,38.41l1.87.17-.09,1-4.7-.44.16-1.73a1.8,1.8,0,0,1,.53-1.22,1.29,1.29,0,0,1,1-.34,1.39,1.39,0,0,1,.81.34,1.43,1.43,0,0,1,.44.9L11,36l-.11,1.13-2,1Zm-2.11-.2,1.38.13.07-.78A.79.79,0,0,0,8.07,37a.71.71,0,0,0-.49-.23.7.7,0,0,0-.52.14.75.75,0,0,0-.23.53Z"/><path class="cls-2" d="M7.16,34.69l-.71-.16.78-3.41.72.17-.29,1.24,3.88.9-.21.93-3.89-.91Z"/><path class="cls-2" d="M8.67,27.16,9,26.27,13.41,28l-.35.89-1.88-.73L10.44,30l1.89.73-.35.89-4.4-1.71.35-.89,1.83.71.74-1.89Z"/><path class="cls-2" d="M11,22.53l.63.36-.86,1.55,1.08.6.76-1.37.64.36-.76,1.37,1.13.63.87-1.54.64.36-1.33,2.37L9.69,24.91Z"/><path class="cls-2" d="M17.43,21.68l-.89-.29-1.11,1.46.52.78-.6.8-2.78-4.18.68-.9L18,20.87ZM15,22.22l.81-1.08-2-.64Z"/><path class="cls-2" d="M16.64,16.59a.72.72,0,0,0-.22.43.46.46,0,0,0,.15.41.57.57,0,0,0,.38.2,1,1,0,0,0,.4-.09,3.89,3.89,0,0,0,.44-.24,5.19,5.19,0,0,1,.47-.25,2.22,2.22,0,0,1,.49-.18.89.89,0,0,1,.51,0,1.12,1.12,0,0,1,.51.33,1.3,1.3,0,0,1,.38,1,1.77,1.77,0,0,1-.58,1.16,2,2,0,0,1-1.13.62,1.22,1.22,0,0,1-1.06-.39l.72-.71a.63.63,0,0,0,.94-.06.75.75,0,0,0,.25-.49.59.59,0,0,0-.18-.45.51.51,0,0,0-.49-.14,2,2,0,0,0-.6.26,6.77,6.77,0,0,1-.65.36,1.34,1.34,0,0,1-.71.15,1.12,1.12,0,0,1-.72-.37,1.26,1.26,0,0,1-.39-1.06A1.83,1.83,0,0,1,16.13,16a2,2,0,0,1,1.07-.59,1.32,1.32,0,0,1,1.07.38l-.74.73a.66.66,0,0,0-.45-.16A.7.7,0,0,0,16.64,16.59Z"/><path class="cls-2" d="M18.68,14.7l-.44-.58L21,12l.44.58-1,.78,2.42,3.17-.76.57L19.7,13.93Z"/><path class="cls-2" d="M26.06,14.44,24,10.22l2.61-1.31.32.65-1.76.89.56,1.1L27,10.88l.33.65L26,12.2l.9,1.81Z"/><path class="cls-2" d="M31.25,12.24a2.37,2.37,0,0,1-1.85-.11,2.3,2.3,0,0,1-1.2-1.43,2.31,2.31,0,0,1,.12-1.86,2.48,2.48,0,0,1,3.25-1.08,2.31,2.31,0,0,1,1.21,1.43,2.37,2.37,0,0,1-1.53,3.05Zm.58-1.56a1.57,1.57,0,0,0,0-1.19,1.52,1.52,0,0,0-.73-.94A1.36,1.36,0,0,0,30,8.48a1.4,1.4,0,0,0-.86.73,1.57,1.57,0,0,0,0,1.19,1.54,1.54,0,0,0,.73.94,1.5,1.5,0,0,0,2-.66Z"/><path class="cls-2" d="M34.73,9.35,35,11.2l-.94.16L33.32,6.7,35,6.42a1.79,1.79,0,0,1,1.31.19,1.37,1.37,0,0,1,.6.93,1.44,1.44,0,0,1-.13.86,1.36,1.36,0,0,1-.76.66l1.51,1.72L36.45,11,35,9.3Zm-.35-2.09.23,1.37.77-.13a.74.74,0,0,0,.51-.27A.68.68,0,0,0,36,7.7a.72.72,0,0,0-.27-.47.76.76,0,0,0-.57-.09Z"/><path class="cls-2" d="M40.84,5.92l0,.73-1.77.06,0,1.24,1.57-.06,0,.73-1.56.06,0,1.3L41,9.92l0,.73-2.73.09L38.12,6Z"/><path class="cls-2" d="M43.73,6.79a.73.73,0,0,0-.47.1.52.52,0,0,0-.22.39.6.6,0,0,0,.1.41.85.85,0,0,0,.33.25,2.64,2.64,0,0,0,.45.18l.5.2a2,2,0,0,1,.45.26,1,1,0,0,1,.32.4,1.2,1.2,0,0,1,.07.61,1.28,1.28,0,0,1-.55,1,1.73,1.73,0,0,1-1.26.3,2,2,0,0,1-1.2-.47,1.19,1.19,0,0,1-.38-1.06l1,.09a.62.62,0,0,0,.65.69.73.73,0,0,0,.52-.12.55.55,0,0,0,.23-.43.49.49,0,0,0-.21-.47,1.85,1.85,0,0,0-.58-.3,6.46,6.46,0,0,1-.69-.26,1.32,1.32,0,0,1-.57-.45,1.11,1.11,0,0,1-.18-.78,1.26,1.26,0,0,1,.56-1A1.83,1.83,0,0,1,43.84,6,2,2,0,0,1,45,6.47a1.33,1.33,0,0,1,.39,1.06l-1-.09A.67.67,0,0,0,44.18,7,.67.67,0,0,0,43.73,6.79Z"/><path class="cls-2" d="M46.49,7.14l.16-.71,3.41.77-.16.71-1.25-.28-.88,3.89-.92-.21.88-3.89Z"/><path class="cls-2" d="M51.12,10.54l-.65,1.76L49.58,12l1.64-4.42,1.63.6a1.79,1.79,0,0,1,1,.83,1.32,1.32,0,0,1,.06,1.1,1.37,1.37,0,0,1-1.52.88l.45,2.24-1.06-.4-.4-2.15Zm.74-2-.48,1.29.73.28a.78.78,0,0,0,.58,0,.74.74,0,0,0,.36-.41.67.67,0,0,0,0-.54.71.71,0,0,0-.44-.36Z"/><path class="cls-2" d="M55.39,14.52l-.84-.46.77-1.42.07-3.49.94.51-.17,2.44,1.94-1.48.94.51-2.88,2Z"/><path class="cls-2" d="M59.93,15.27l1.89-2.21.72.62-1.89,2.21a1,1,0,0,0-.29.72,1.11,1.11,0,0,0,1.07.92,1,1,0,0,0,.67-.4L64,14.93l.72.61-1.89,2.21a1.71,1.71,0,0,1-1.32.68,2,2,0,0,1-1.35-.52,1.92,1.92,0,0,1-.71-1.24A1.74,1.74,0,0,1,59.93,15.27Z"/><path class="cls-2" d="M67.83,19l.62.72-3.6,3.07-.62-.72,1.1-3.75-2.49,2.12-.61-.72,3.6-3.07.62.72L65.34,21.1Z"/><path class="cls-2" d="M65.32,23.53l3.91-2.64.53.79-3.91,2.64Z"/><path class="cls-2" d="M67,26.2l3.37-3.73.47.89-2.73,2.9L72,25.64l.48.9-5,.67Z"/><path class="cls-2" d="M73.82,30.13l-.68.25-.61-1.67-1.16.43.53,1.47-.68.25-.54-1.48-1.22.45.6,1.66-.69.25-.93-2.56,4.45-1.61Z"/><path class="cls-2" d="M71.66,33.05l-1.83.4-.21-.93,4.61-1,.38,1.7a1.85,1.85,0,0,1-.13,1.32,1.35,1.35,0,0,1-.89.65,1.46,1.46,0,0,1-.87-.09,1.38,1.38,0,0,1-.7-.71L70.38,36l-.24-1.1,1.59-1.51Zm2.06-.46-1.34.3.17.76a.74.74,0,0,0,.3.5.67.67,0,0,0,.53.07.63.63,0,0,0,.45-.29.76.76,0,0,0,.06-.57Z"/><path class="cls-2" d="M74.61,37.88a.72.72,0,0,0-.19-.45.46.46,0,0,0-.41-.15.58.58,0,0,0-.39.16.88.88,0,0,0-.2.37c0,.15-.07.31-.1.48a4.76,4.76,0,0,1-.1.52,3.12,3.12,0,0,1-.18.49,1,1,0,0,1-.35.38,1.28,1.28,0,0,1-.58.18,1.33,1.33,0,0,1-1-.38,1.77,1.77,0,0,1-.51-1.19A1.91,1.91,0,0,1,70.82,37a1.19,1.19,0,0,1,1-.55l.08,1a.62.62,0,0,0-.56.75.75.75,0,0,0,.21.5.58.58,0,0,0,.46.16.52.52,0,0,0,.43-.29A2.06,2.06,0,0,0,72.6,38a6.68,6.68,0,0,1,.14-.73,1.4,1.4,0,0,1,.35-.64,1.15,1.15,0,0,1,.74-.31,1.27,1.27,0,0,1,1.06.39,1.81,1.81,0,0,1,.48,1.16,1.88,1.88,0,0,1-.24,1.2,1.27,1.27,0,0,1-1,.57l-.09-1a.62.62,0,0,0,.41-.23A.69.69,0,0,0,74.61,37.88Z"/><path class="cls-2" d="M70.7,40.76l4.72.08,0,1-4.71-.09Z"/><path class="cls-2" d="M74.67,42.78l.73.08L75,46.34l-.73-.09L74.42,45l-4-.44.1-.94,4,.44Z"/><path class="cls-2" d="M69.69,48.47l.23-.93,1.57.4,3.39-.8-.26,1-2.4.43,1.92,1.52-.26,1-2.62-2.3Z"/><polygon class="cls-3" points="50.63 45.48 61.76 45.48 40.54 19.35 19.32 45.48 30.45 45.48 34.11 40.98 37.76 45.48 44.45 45.48 37.45 36.86 40.54 33.05 50.63 45.48"/></g></g></svg>