<svg xmlns="http://www.w3.org/2000/svg" viewBox="0 0 150.94 29.45"><defs><style>.cls-1{fill:#fff;}</style></defs><g id="图层_2" data-name="图层 2"><g id="图层_1-2" data-name="图层 1"><path class="cls-1" d="M62.36,25.39a.81.81,0,0,1-1,.61,1.45,1.45,0,0,1-.92-.71c-.53-.91-.16-3.2-.17-3.72,0-.23-.05-.63-.3-.69-.65-.14-1.67,2.37-2.21,3.34-.1.18-.53,1.32-1.29,1.15a1.64,1.64,0,0,1-.91-2.53,12,12,0,0,1,2.71-3.38c.08-.08.2-.12.25-.21s.2-.37.15-.48a.6.6,0,0,0-.49-.17c-1.73.17-2.45-.25-3.09-1.81a.87.87,0,0,1,.35-1.14c1.83-1.34,3.68-2.64,5.47-4a3.23,3.23,0,0,0,1.23-2.25c.09-.93.08-1.88.24-2.81s.48-1.08,1-1a1.13,1.13,0,0,1,.92,1.3c-.13,1.18-.3,2.36-.48,3.53s-.39,2.38-.55,3.58c0,.23,0,.63.22.75s.53-.14.72-.29c1.26-1,2.52-1.93,3.74-2.94.93-.77,1.84-1.57,2.68-2.42a2.55,2.55,0,0,0,.53-1.22c.14-.71.15-1.45.27-2.16A2.48,2.48,0,0,1,72.65,4a.77.77,0,0,1,1,0c.31.33.54,2,.95,2.05a15.57,15.57,0,0,0,2.27-1c.23-.1.68-.15.86.08a.7.7,0,0,1-.14.78,9.86,9.86,0,0,1-1.38,1,19.78,19.78,0,0,0-3.42,2.9c-1.21,1.77-1,2.83-.79,4.48s2.22.9,2.8.9c1,0,1.53.63,1.15,1.55a4.28,4.28,0,0,1-1.21,1.64c-.23.19-1.2.32-1.17-1.7-.1-1.06-1.47-.5-1.45.28.08,2.13-.67,7.88-2.18,7.56-.64-.13-.91-2.31-1-3.14a.84.84,0,0,1,.34-.67c1.16-.66,1.11-3,.84-3.65a.16.16,0,0,0-.24-.06c-.66.5-3.32,2.61-3.6,3.47-.27.7-.78.82-1.33.33a2.5,2.5,0,0,1-.62-2.32,2,2,0,0,1,1.81-1.13,3.49,3.49,0,0,1,.79,0,3.78,3.78,0,0,0,2.78-1.16,1.82,1.82,0,0,0,.59-1.23c.06-1.05.11-2.1.13-3.15,0-.62-.31-.78-.86-.43a20.65,20.65,0,0,0-3.85,3.37A21.08,21.08,0,0,1,64,16.29a3.16,3.16,0,0,0-1.17,2.61C62.94,19.4,62.78,24.86,62.36,25.39Z"/><path class="cls-1" d="M117.48,22.38a33.44,33.44,0,0,0-2.2-3.1c-.53-.68-.89-.65-1.39.06-.88,1.26-4.12,6.15-5.27,6.62a3.58,3.58,0,0,1-2.53,0c-.56-.22-1-.75-.54-1.18s7-5.08,7.06-7.54a.76.76,0,0,0-.1-.48c-.12-.22-.85.16-.94.33-1.61,1.46-2.9.51-4-.88a2.38,2.38,0,0,1-.38-.86.87.87,0,0,1,.55-1.2c1.38-.55,2.94-1.3,4.31-1.88a6.8,6.8,0,0,0,.83-.47c1.05-.63.86-2.09,1-3,0-.7.33-2.87.85-3.37a.91.91,0,0,1,1.45.25,4.41,4.41,0,0,1,.55,2.61c-.07,1.11.42,1.93,1.54,1.71a12.15,12.15,0,0,0,1.62-.6c1.09-.46,4.65,1.62,2.23,2.68-1,.42-2.33,1-3.28,1.43a22.89,22.89,0,0,0-2.24,1.2,1.3,1.3,0,0,0-.57,1.57,10,10,0,0,0,8.24,6.22c1.16.1,1.85.82,1.81,1.68C125.89,26.13,119.93,26.12,117.48,22.38Z"/><path class="cls-1" d="M27.25,18.1a3.21,3.21,0,0,1,3.31-3.53c1.17-.08,1.6-.58,1.61-1.74a12.89,12.89,0,0,0-.49-4.58c-.35-.65,1.73-1.23,3.9,2.41a3.12,3.12,0,0,1,0,2.62c-.24,1.09-.61,2.16-.84,3.25a14.5,14.5,0,0,0-.2,2.19c-.06,1.23-.11,2.47-.13,3.7s-.53,1.68-1.68,1.64a1.88,1.88,0,0,0-1.36.56,7.61,7.61,0,0,1-3,1.93,1.6,1.6,0,0,1-2-1.25,1.71,1.71,0,0,1,1.15-2c1.64-.29,4.35-2.06,4.3-3.05a16.41,16.41,0,0,0-.21-2c-.11-.59-.42-.74-1-.44s-1.25.8-1.9,1.17c-.33.18-.85.5-1,.39S27.25,18.14,27.25,18.1Z"/><path class="cls-1" d="M43.43,19.07c.26,0,.51,0,.77,0,.82,0,1.38.39,1.45,1a1.67,1.67,0,0,1-1.13,1.75,8.21,8.21,0,0,0-1.9.94,2.94,2.94,0,0,0-.92,1.2,1.71,1.71,0,0,1-2.32,1.14,3.07,3.07,0,0,1-2.31-3.13c-.36-2.85,4-9.95,2.18-16.57-.22-.59.16-1,.83-1a2.51,2.51,0,0,1,2.07.79,3.72,3.72,0,0,1,.82,4c-.54,1.72-1.07,3.45-1.76,5.12-1.15,2.8.29,4.86,1.32,4.86C42.82,19.09,43.13,19.07,43.43,19.07Z"/><path class="cls-1" d="M3.22,13c.28.65,2.44,6.78,2.72,7.62a1.16,1.16,0,0,1-.62,1.53c-.47.2-1-.07-1.37-.67C2.23,18.5,2.6,13.34,3,13,3.08,12.86,3.15,12.87,3.22,13Z"/><path class="cls-1" d="M1.64,29.05A1.68,1.68,0,0,1,.06,27a8.73,8.73,0,0,1,1-2c.29-.46.72-.44,1,.05a1.37,1.37,0,0,0,1.45.89.49.49,0,0,1,.51.71A6.84,6.84,0,0,1,1.64,29.05Z"/><path class="cls-1" d="M47,17.94c-1-.94-1.92-1.9-2.84-2.9s.41-1.25.72-1.24c1.25,0,3.15,1.85,3.46,3.13C48.43,17.16,48.31,19.17,47,17.94Z"/><path class="cls-1" d="M18.68,10.22a3.1,3.1,0,0,0-3.19-1.38,16.07,16.07,0,0,0-1.88.65c-.65.25-1,0-.93-.64a2.07,2.07,0,0,1,.93-1.65,17.58,17.58,0,0,0,2-1.62c.19-.17.9-1.3-.53-1.1-.34,0-.7.12-1,.18-.58.09-.86-.16-.77-.72s.19-.31.31-.85C14,1.27,10.56-1,10,.52A.81.81,0,0,0,10,1c.71,2.23-.21,4.61-1,5.07S5.09,8.52,4.26,9.17c-.91.88.78,1.85,1.57,1.37,1.59-.95,4.29-.66,3.28.35A11.71,11.71,0,0,0,7,12.84a.15.15,0,0,0,.18.24c.79-.36,2.21-1,2.18-.54a29,29,0,0,1-3.24,2.73c-.38.27-.68.64-.33,1.09s.84.19,1.09-.11a3.67,3.67,0,0,1,2-1.07A3,3,0,0,1,9,16,3.87,3.87,0,0,1,6.67,18.8c-.47.24-.91.48-1,1.14a4.29,4.29,0,0,0,2.21-.17c.44-.18.75-.4.85.13a2.53,2.53,0,0,1-.19,1.83,1,1,0,0,0-.16.73c.4,1.25.18,1.29,0,2.53-.11.89-.7,1.51-1.55,1.12-1-.45-1,1.18,1.09,2.92a1.61,1.61,0,0,0,2.52-.45,6.65,6.65,0,0,0,.65-2.44,11.39,11.39,0,0,0-.08-1.84c0-.73.16-.83.92-.68a5.62,5.62,0,0,1,3.72,2.56,1.32,1.32,0,0,0,2.09.33A2.55,2.55,0,0,0,18.5,25a4.11,4.11,0,0,0-1.71-3.31,5.32,5.32,0,0,0-4.37-.8c-1.52.26-1.33.36-1.26-.71v-.12A1.1,1.1,0,0,1,12,18.89c1.13-.37,1.26-.56,1.27-1.71a.7.7,0,0,1,.53-.77c.48-.18.87-.57,1.36-.75C16.42,15.19,19.87,11.64,18.68,10.22ZM13,14.11a3.17,3.17,0,0,0-.24-1.47c-.57-.53-.63-1.08,0-1.47A1.9,1.9,0,0,1,14.1,11C14.79,11.22,14.2,13.73,13,14.11Z"/><path class="cls-1" d="M149,9.2a15.89,15.89,0,0,0-2.82.43c-.62.11-1-.07-1-.65a1.59,1.59,0,0,1,.25-1c.7-.91,2.12-3.79.63-4.57a2.11,2.11,0,0,0-2.22.19c-.4.26-1.85,1.75-2,.3A12.72,12.72,0,0,0,141.41,2a.66.66,0,0,0-.94-.39.9.9,0,0,0-.44.72,6.19,6.19,0,0,1-.64,2.82c-.12.29-.76.39-.74-.28A8.89,8.89,0,0,0,138.76,2a1.31,1.31,0,0,0-.81-.73c-.65-.13-1.18,2.35-1.21,3.17a13.73,13.73,0,0,0,.32,4.86,6.17,6.17,0,0,1,.28,1.59.68.68,0,0,1-.79.72c-.19,0-.51-.27-.52-.44a15,15,0,0,1,0-2.32c.11-1.65.54-7.71-3.32-3.94-.34.46.23,1.23,1,.89.47-.21.7-.13.68.39,0,1.24-.09,2.47-.12,3.7,0,.65.05,1.3,0,1.95,0,.23-.18.63-.45.65s-.48-.35-.5-.55a6.61,6.61,0,0,1,.07-1.6c.07-.46,0-1.18-.51-1.05-.33.08-.39.52-.51.8-.74,1.7-2.87,5.84-2.4,6.94s2.39,1,2.63-.8a2.5,2.5,0,0,1,2.18-2.31c1.82-.51,6.41-2.44,6.61-1.63s-1.63,1.54-2.3,1.76c-1.28.43-2.6.74-3.92,1.07-.41.1-.83.16-.88.65a.9.9,0,0,0,.75,1,6.84,6.84,0,0,0,1.86-.07c.67-.1,1.13.08,1.27.63s-.13.91-.81,1-1.56.24-2.33.4-1.74.61-1.87,1.51,1.74,2.5,3.41,2c.74-.23,1.47-.53,2.22-.74s1.31,0,1.16.9a19.29,19.29,0,0,1-.88,3.05c-.15.42-.71,1.35-3.52.1-.26-.12-1-.47-1.33-.18s.48,1.54.89,1.93c4.23,4.09,6.9.83,7.25-1.58.21-1.47.52-2.94.79-4.41.17-.91.56-1.13,1.51-.91.5.11,1,.24,1.49.33a1.05,1.05,0,0,0,1.29-1.38,4.66,4.66,0,0,0-.42-1,1.83,1.83,0,0,0-2.15-.91c-.5.1-1,.27-1.49.33a2.44,2.44,0,0,1-2-.3.13.13,0,0,1,0-.23,4.33,4.33,0,0,0,2.11-2.53,2.06,2.06,0,0,1,.58-.94,5.16,5.16,0,0,1,5.4-.46c.6.33,1,.2,1.21-.44a5.22,5.22,0,0,0,.27-1.28C151,10.6,150.38,9.18,149,9.2Zm-8.77,7.54c-.59-.06-1.09-.24-1-.78C139.26,14.94,140.6,15.89,140.19,16.74Zm.9-6.3c-.46,0-.72-.19-.68-.62a3.71,3.71,0,0,1,.3-1.13,2.63,2.63,0,0,0,.13-2.16c-.21-.52-.05-.79.56-1.08.15.9.3,1.77.44,2.63.06.43.08.87.13,1.3A.88.88,0,0,1,141.09,10.44Zm3-3.51a.41.41,0,0,1-.58-.13,2.36,2.36,0,0,1-.23-.44.38.38,0,0,1,.4-.46,3.81,3.81,0,0,1,.46.35.41.41,0,0,1,0,.65Z"/><path class="cls-1" d="M99,8.69a5.48,5.48,0,0,1-3.94.64c-.2,0-.48-.11-.53-.24a.74.74,0,0,1,.16-.56,1.72,1.72,0,0,1,1.36-.83c1.28-.1,1.69-1.27,2.22-2.2.26-.46.37-1-.16-1.35s-.93-.07-1.32.26-.58.57-.91.8-.67.14-.73-.32a1.32,1.32,0,0,1,0-.52C95.57,3.2,95.94,2,96.3.86c.16-.55-1-1.12-1.62-.41a3.63,3.63,0,0,0-.81,2.45c0,1-.14,2-.25,2.93,0,.13-.2.4-.37.35C92.84,6.07,93,5.3,93,5.07c-.33-2.83-3.77-2.25-2.68-.75s1.76,3.21-.49,4.1c-.67.26-2.5,1.12-2.84,2.23a.66.66,0,0,0,.45.9c.43.13.68-.11.85-.47A4.34,4.34,0,0,1,88.76,10a2.59,2.59,0,0,1,.92-.42,3.1,3.1,0,0,1,0,.8c-.15.76.3,1.2,1.05,1a2.31,2.31,0,0,1,.41-.16.57.57,0,0,1,.4,0,.39.39,0,0,1,0,.39,2.75,2.75,0,0,1-.55.58c-1.3.94-2.62,1.85-3.92,2.79l-3,2.13c-.86.62-1.22.36-1.82.62a2,2,0,0,0-1.14,2.41c.6,1.69,2.55-.9,3.4-1.72,2.26-2.19,3.5-2.85,4.1-3a.27.27,0,0,1,.35.31A.62.62,0,0,1,89,16c-.21.34-.51.62-.74.95-.54.78-.46,1.28.37,1.77a1,1,0,0,1,.58,1.07,1,1,0,0,0,.59,1c.5.25.52.52,0,.8-.86.51-1.54,1.08-1.28,2.21-.58,0-.72-.34-.82-.71s0-.63-.14-.92-.15-.55-.38-.58-.4.25-.48.43c-.27.6-1.28,3.23-.72,4.79a.73.73,0,0,0,1.42.09c.41-.77.71-1.59,1.1-2.38a.61.61,0,0,1,.48-.28,1.27,1.27,0,0,0,1.32-.41c1.25-1.09,1.8-.85,1.8-.79a12.38,12.38,0,0,1,.08,2.43c-.07.71-.3.75-1,.57-.24-.07-.66-.1-.75.06-.4.67.49,2.12.91,2.7a1.13,1.13,0,0,0,1.79.19,3.16,3.16,0,0,0,1-1.53,26.79,26.79,0,0,0,.3-3c0-.21.11-.5.26-.57s.45.07.59.21a7.22,7.22,0,0,1,.77,1c.44.66.79,1.38,1.29,2a1.1,1.1,0,0,0,1.6.13,1.07,1.07,0,0,0,.32-1.54c-.25-.44-.52-.86-.81-1.27a3.84,3.84,0,0,0-3.5-2,.83.83,0,0,1,.14-1.54c.49-.25,1-.41,1.5-.66s.84-.44.85-.67a1.32,1.32,0,0,0-.56-1.07c-.7-.32-1.07-.69-1-1.47a.48.48,0,0,0-.15-.33c-.73-.53-.53-1.17-.29-1.85a1.68,1.68,0,0,0-.41-2.16.59.59,0,0,1,.14-1,5,5,0,0,1,1-.43c1.16-.34,2.32-.64,3.48-1C100.52,10.07,101.09,7.39,99,8.69ZM95.37,7.25c-.42.73-.66.17-.48-.39C95.33,5.49,95.72,6.64,95.37,7.25Zm-2.93,7.56a1,1,0,0,1-.8.5c-.45-.07-.41-.47-.25-.85.39-.89.78-1.2,1.45-1.06A6.38,6.38,0,0,1,92.44,14.81Z"/></g></g></svg>